AndadaPro-SemiBoldItalic.ufo
<glyph name="exclam" format="2">
  <advance width="308.34999999999997"/>
  <unicode hex="0021"/>
  <outline>
    <contour>
      <point x="173.36363636363637" y="220.0909090909091" type="line"/>
      <point x="187.86363636363637" y="229.5909090909091" type="line"/>
      <point x="199.4090909090909" y="311.90909090909093" type="line" smooth="yes"/>
      <point x="207.1818181818182" y="369.8636363636364"/>
      <point x="260.90909090909093" y="617.0454545454545"/>
      <point x="292.59090909090907" y="749.9090909090909" type="curve"/>
      <point x="272.5" y="771.4090909090909" type="line"/>
      <point x="181.5909090909091" y="763.5909090909091" type="line"/>
      <point x="110.22727272727273" y="289.90909090909093" type="line"/>
      <point x="97.86363636363636" y="223.9090909090909" type="line"/>
    </contour>
    <contour>
      <point x="105.5" y="-11.636363636363637" type="curve" smooth="yes"/>
      <point x="148.5909090909091" y="-11.636363636363637"/>
      <point x="179.63636363636363" y="24.40909090909091"/>
      <point x="179.63636363636363" y="73.72727272727273" type="curve" smooth="yes"/>
      <point x="179.63636363636363" y="107.22727272727273"/>
      <point x="160.77272727272728" y="127.86363636363636"/>
      <point x="129.27272727272728" y="127.86363636363636" type="curve" smooth="yes"/>
      <point x="85.5909090909091" y="127.86363636363636"/>
      <point x="54.72727272727273" y="92.5909090909091"/>
      <point x="54.72727272727273" y="42.09090909090909" type="curve" smooth="yes"/>
      <point x="54.72727272727273" y="9.227272727272727"/>
      <point x="72.18181818181819" y="-11.636363636363637"/>
    </contour>
  </outline>
</glyph>
<glyph name="numbersign" format="2">
  <advance width="634.6999999999999"/>
  <unicode hex="0023"/>
  <outline>
    <contour>
      <point x="175.6818181818182" y="-15.0" type="line"/>
      <point x="340.04545454545456" y="562.0" type="line"/>
      <point x="274.04545454545456" y="572.0" type="line"/>
      <point x="110.27272727272727" y="-5.0" type="line"/>
    </contour>
    <contour>
      <point x="52.0" y="146.5" type="line"/>
      <point x="536.4090909090909" y="146.5" type="line"/>
      <point x="546.6363636363636" y="224.5" type="line"/>
      <point x="61.81818181818182" y="219.5" type="line"/>
    </contour>
    <contour>
      <point x="364.1818181818182" y="-15.0" type="line"/>
      <point x="528.1363636363636" y="562.0" type="line"/>
      <point x="462.54545454545456" y="572.0" type="line"/>
      <point x="298.77272727272725" y="-5.0" type="line"/>
    </contour>
    <contour>
      <point x="95.5909090909091" y="333.5" type="line"/>
      <point x="581.0" y="338.5" type="line"/>
      <point x="590.2272727272727" y="411.5" type="line"/>
      <point x="106.4090909090909" y="411.5" type="line"/>
    </contour>
  </outline>
</glyph>
<glyph name="dollar" format="2">
  <advance width="556.5500000000001"/>
  <unicode hex="0024"/>
  <outline>
    <contour>
      <point x="235.5909090909091" y="-13.409090909090908" type="curve" smooth="yes"/>
      <point x="378.22727272727275" y="-13.409090909090908"/>
      <point x="479.1818181818182" y="75.13636363636364"/>
      <point x="479.1818181818182" y="198.04545454545456" type="curve" smooth="yes"/>
      <point x="479.1818181818182" y="369.8636363636364"/>
      <point x="232.36363636363637" y="367.1818181818182"/>
      <point x="232.36363636363637" y="480.40909090909093" type="curve" smooth="yes"/>
      <point x="232.36363636363637" y="535.8636363636364"/>
      <point x="276.8636363636364" y="577.3181818181819"/>
      <point x="336.5909090909091" y="577.3181818181819" type="curve" smooth="yes"/>
      <point x="383.5909090909091" y="577.3181818181819"/>
      <point x="425.8181818181818" y="559.0454545454545"/>
      <point x="461.6363636363636" y="538.5454545454545" type="curve"/>
      <point x="411.54545454545456" y="591.7272727272727" type="line"/>
      <point x="416.1818181818182" y="562.0454545454545"/>
      <point x="426.27272727272725" y="522.1363636363636"/>
      <point x="424.6818181818182" y="510.77272727272725" type="curve"/>
      <point x="419.6818181818182" y="463.4090909090909" type="line"/>
      <point x="479.27272727272725" y="459.22727272727275" type="line"/>
      <point x="512.6818181818181" y="613.2272727272727" type="line"/>
      <point x="456.27272727272725" y="629.2727272727273"/>
      <point x="390.1818181818182" y="643.2727272727273"/>
      <point x="331.90909090909093" y="643.2727272727273" type="curve" smooth="yes"/>
      <point x="201.4090909090909" y="643.2727272727273"/>
      <point x="108.72727272727273" y="561.5909090909091"/>
      <point x="108.72727272727273" y="445.8636363636364" type="curve" smooth="yes"/>
      <point x="108.72727272727273" y="275.3181818181818"/>
      <point x="353.77272727272725" y="283.22727272727275"/>
      <point x="353.77272727272725" y="162.36363636363637" type="curve" smooth="yes"/>
      <point x="353.77272727272725" y="100.77272727272728"/>
      <point x="306.5" y="57.13636363636364"/>
      <point x="239.6818181818182" y="57.13636363636364" type="curve" smooth="yes"/>
      <point x="183.1818181818182" y="57.13636363636364"/>
      <point x="140.0" y="80.5"/>
      <point x="107.31818181818181" y="96.72727272727273" type="curve"/>
      <point x="150.22727272727272" y="45.77272727272727" type="line"/>
      <point x="143.54545454545456" y="64.0909090909091"/>
      <point x="135.8181818181818" y="121.13636363636364"/>
      <point x="136.8181818181818" y="129.13636363636363" type="curve" smooth="yes"/>
      <point x="145.22727272727272" y="182.13636363636363" type="line"/>
      <point x="77.27272727272727" y="186.72727272727272" type="line"/>
      <point x="43.63636363636363" y="31.363636363636363" type="line"/>
      <point x="43.63636363636363" y="31.363636363636363"/>
      <point x="119.36363636363636" y="-13.409090909090908"/>
    </contour>
    <contour>
      <point x="230.9090909090909" y="-154.0" type="line"/>
      <point x="260.5" y="15.0" type="line"/>
      <point x="208.5" y="15.0" type="line"/>
      <point x="178.9090909090909" y="-151.0" type="line"/>
    </contour>
    <contour>
      <point x="311.22727272727275" y="616.0" type="line"/>
      <point x="362.22727272727275" y="616.0" type="line"/>
      <point x="391.8181818181818" y="785.0" type="line"/>
      <point x="340.8181818181818" y="788.0" type="line"/>
    </contour>
  </outline>
</glyph>
<glyph name="ampersand" format="2">
  <advance width="842.75"/>
  <unicode hex="0026"/>
  <outline>
    <contour>
      <point x="204.04545454545453" y="-13.272727272727273" type="curve" smooth="yes"/>
      <point x="429.6363636363636" y="-13.272727272727273"/>
      <point x="628.3636363636364" y="234.13636363636363"/>
      <point x="628.3636363636364" y="509.5" type="curve" smooth="yes"/>
      <point x="628.3636363636364" y="557.1818181818181"/>
      <point x="621.3636363636364" y="606.5454545454545"/>
      <point x="609.0" y="656.7272727272727" type="curve"/>
      <point x="503.0" y="620.9090909090909" type="line"/>
      <point x="528.7272727272727" y="562.0"/>
      <point x="541.3181818181819" y="495.59090909090907"/>
      <point x="541.3181818181819" y="434.6363636363636" type="curve" smooth="yes"/>
      <point x="541.3181818181819" y="254.6818181818182"/>
      <point x="394.1363636363636" y="67.36363636363636"/>
      <point x="252.36363636363637" y="67.36363636363636" type="curve" smooth="yes"/>
      <point x="195.4090909090909" y="67.36363636363636"/>
      <point x="172.4090909090909" y="94.54545454545455"/>
      <point x="172.4090909090909" y="159.86363636363637" type="curve" smooth="yes"/>
      <point x="172.4090909090909" y="278.8181818181818"/>
      <point x="240.5" y="433.5"/>
      <point x="292.6818181818182" y="433.5" type="curve" smooth="yes"/>
      <point x="342.09090909090907" y="433.5"/>
      <point x="359.27272727272725" y="422.72727272727275"/>
      <point x="359.27272727272725" y="392.09090909090907" type="curve" smooth="yes"/>
      <point x="359.27272727272725" y="329.8636363636364"/>
      <point x="286.3636363636364" y="277.90909090909093"/>
      <point x="163.5909090909091" y="253.54545454545453" type="curve"/>
      <point x="199.04545454545453" y="254.04545454545453"/>
      <point x="234.0909090909091" y="254.54545454545453"/>
      <point x="269.54545454545456" y="255.04545454545453" type="curve"/>
      <point x="387.72727272727275" y="292.04545454545456"/>
      <point x="454.5" y="351.1363636363636"/>
      <point x="454.5" y="418.6818181818182" type="curve" smooth="yes"/>
      <point x="454.5" y="475.40909090909093"/>
      <point x="407.1363636363636" y="503.0"/>
      <point x="311.72727272727275" y="503.0" type="curve" smooth="yes"/>
      <point x="208.22727272727272" y="503.0"/>
      <point x="70.54545454545455" y="298.5"/>
      <point x="70.54545454545455" y="145.63636363636363" type="curve" smooth="yes"/>
      <point x="70.54545454545455" y="42.13636363636363"/>
      <point x="117.22727272727273" y="-13.272727272727273"/>
    </contour>
    <contour>
      <point x="151.77272727272728" y="196.8181818181818" type="line"/>
      <point x="395.5" y="241.4090909090909"/>
      <point x="562.5909090909091" y="366.09090909090907"/>
      <point x="802.7727272727273" y="465.77272727272725" type="curve"/>
      <point x="811.6363636363636" y="499.04545454545456" type="line"/>
      <point x="753.7727272727273" y="561.3181818181819" type="line"/>
      <point x="629.7727272727273" y="442.3181818181818"/>
      <point x="392.77272727272725" y="291.3181818181818"/>
      <point x="153.77272727272728" y="251.3181818181818" type="curve"/>
    </contour>
  </outline>
</glyph>
<glyph name="quotesingle" format="2">
  <advance width="295.95"/>
  <unicode hex="0027"/>
  <outline>
    <contour>
      <point x="200.86363636363637" y="462.59090909090907" type="line"/>
      <point x="254.54545454545453" y="706.0" type="line"/>
      <point x="162.3181818181818" y="706.0" type="line"/>
      <point x="159.54545454545453" y="651.0"/>
      <point x="151.1818181818182" y="572.0454545454545"/>
      <point x="149.1818181818182" y="560.0" type="curve" smooth="yes"/>
      <point x="132.8181818181818" y="466.40909090909093" type="line"/>
    </contour>
  </outline>
</glyph>
<glyph name="parenleft" format="2">
  <advance width="393.8181818181818"/>
  <unicode hex="0028"/>
  <outline>
    <contour>
      <point x="250.54545454545453" y="-102.18181818181819" type="curve"/>
      <point x="278.45454545454544" y="-84.5" type="line"/>
      <point x="223.6818181818182" y="22.409090909090907"/>
      <point x="196.9090909090909" y="139.54545454545453"/>
      <point x="196.9090909090909" y="256.95454545454544" type="curve" smooth="yes"/>
      <point x="196.9090909090909" y="446.40909090909093"/>
      <point x="269.22727272727275" y="640.9090909090909"/>
      <point x="387.6363636363636" y="795.6818181818181" type="curve"/>
      <point x="360.72727272727275" y="821.0" type="line"/>
      <point x="195.9090909090909" y="677.8636363636364"/>
      <point x="98.18181818181819" y="496.27272727272725"/>
      <point x="98.18181818181819" y="281.54545454545456" type="curve" smooth="yes"/>
      <point x="98.18181818181819" y="135.77272727272728"/>
      <point x="149.13636363636363" y="8.409090909090908"/>
    </contour>
  </outline>
</glyph>
<glyph name="parenright" format="2">
  <advance width="393.9409090909091"/>
  <unicode hex="0029"/>
  <outline>
    <contour>
      <point x="169.86363636363637" y="817.1818181818181" type="curve"/>
      <point x="141.95454545454547" y="799.5" type="line"/>
      <point x="196.72727272727272" y="692.5909090909091"/>
      <point x="223.5" y="575.4545454545455"/>
      <point x="223.5" y="458.04545454545456" type="curve" smooth="yes"/>
      <point x="223.5" y="268.59090909090907"/>
      <point x="151.1818181818182" y="74.0909090909091"/>
      <point x="32.77272727272727" y="-80.68181818181819" type="curve"/>
      <point x="59.68181818181818" y="-106.0" type="line"/>
      <point x="224.5" y="37.13636363636363"/>
      <point x="322.22727272727275" y="218.72727272727272"/>
      <point x="322.22727272727275" y="433.45454545454544" type="curve" smooth="yes"/>
      <point x="322.22727272727275" y="579.2272727272727"/>
      <point x="271.27272727272725" y="706.5909090909091"/>
    </contour>
  </outline>
</glyph>
<glyph name="asterisk" format="2">
  <advance width="462.95"/>
  <unicode hex="002A"/>
  <outline>
    <contour>
      <point x="175.5" y="427.77272727272725" type="line"/>
      <point x="294.72727272727275" y="573.8181818181819" type="line"/>
      <point x="255.4090909090909" y="607.3181818181819" type="line"/>
      <point x="120.5909090909091" y="474.27272727272725" type="line"/>
    </contour>
    <contour>
      <point x="272.04545454545456" y="555.9090909090909" type="line"/>
      <point x="294.5" y="607.8636363636364" type="line"/>
      <point x="140.63636363636363" y="677.0454545454545" type="line"/>
      <point x="109.18181818181819" y="602.0909090909091" type="line"/>
    </contour>
    <contour>
      <point x="329.90909090909093" y="424.77272727272725" type="line"/>
      <point x="393.6363636363636" y="474.6818181818182" type="line"/>
      <point x="297.0" y="606.3181818181819" type="line"/>
      <point x="249.27272727272728" y="569.8181818181819" type="line"/>
    </contour>
    <contour>
      <point x="241.9090909090909" y="577.9090909090909" type="line"/>
      <point x="297.6818181818182" y="580.3181818181819" type="line"/>
      <point x="328.6818181818182" y="758.1818181818181" type="line"/>
      <point x="252.5" y="753.7727272727273" type="line"/>
    </contour>
    <contour>
      <point x="267.3181818181818" y="556.9090909090909" type="line"/>
      <point x="442.77272727272725" y="604.0909090909091" type="line"/>
      <point x="427.3181818181818" y="677.0454545454545" type="line"/>
      <point x="256.6818181818182" y="608.8636363636364" type="line"/>
    </contour>
  </outline>
</glyph>
<glyph name="plus" format="2">
  <advance width="691.65"/>
  <unicode hex="002B"/>
  <outline>
    <contour>
      <point x="272.8636363636364" y="0.0" type="line"/>
      <point x="358.3636363636364" y="0.0" type="line"/>
      <point x="416.3181818181818" y="511.0" type="line"/>
      <point x="335.8181818181818" y="511.0" type="line"/>
    </contour>
    <contour>
      <point x="89.18181818181819" y="213.04545454545453" type="line"/>
      <point x="594.7727272727273" y="218.04545454545453" type="line"/>
      <point x="604.4090909090909" y="298.54545454545456" type="line"/>
      <point x="99.81818181818181" y="298.54545454545456" type="line"/>
    </contour>
  </outline>
</glyph>
<glyph name="comma" format="2">
  <advance width="305.77272727272725"/>
  <unicode hex="002C"/>
  <outline>
    <contour>
      <point x="31.227272727272727" y="-150.0" type="line"/>
      <point x="122.18181818181819" y="-131.4090909090909"/>
      <point x="201.22727272727272" y="-29.59090909090909"/>
      <point x="201.22727272727272" y="73.13636363636364" type="curve" smooth="yes"/>
      <point x="201.22727272727272" y="108.81818181818181"/>
      <point x="188.5909090909091" y="138.04545454545456"/>
      <point x="151.27272727272728" y="138.04545454545456" type="curve" smooth="yes"/>
      <point x="108.18181818181819" y="138.04545454545456"/>
      <point x="75.54545454545455" y="99.81818181818181"/>
      <point x="75.54545454545455" y="49.5" type="curve" smooth="yes"/>
      <point x="75.54545454545455" y="14.863636363636363"/>
      <point x="94.36363636363636" y="-10.590909090909092"/>
      <point x="132.86363636363637" y="-10.590909090909092" type="curve" smooth="yes"/>
      <point x="142.95454545454547" y="-10.590909090909092"/>
      <point x="154.45454545454547" y="-8.772727272727273"/>
      <point x="168.1818181818182" y="-4.318181818181818" type="curve"/>
      <point x="124.31818181818181" y="22.40909090909091" type="line"/>
      <point x="125.72727272727273" y="-42.77272727272727"/>
      <point x="84.77272727272728" y="-96.18181818181819"/>
      <point x="26.59090909090909" y="-118.0" type="curve"/>
    </contour>
  </outline>
</glyph>
<glyph name="hyphen" format="2">
  <advance width="353.84999999999997"/>
  <unicode hex="002D"/>
  <outline>
    <contour>
      <point x="66.18181818181819" y="217.22727272727272" type="line"/>
      <point x="277.09090909090907" y="217.22727272727272" type="line"/>
      <point x="292.3181818181818" y="292.1363636363636" type="line"/>
      <point x="74.4090909090909" y="292.1363636363636" type="line"/>
    </contour>
  </outline>
</glyph>
<glyph name="period" format="2">
  <advance width="313.65000000000003"/>
  <unicode hex="002E"/>
  <outline>
    <contour>
      <point x="121.31818181818181" y="-12.045454545454545" type="curve" smooth="yes"/>
      <point x="168.0" y="-12.045454545454545"/>
      <point x="200.86363636363637" y="26.40909090909091"/>
      <point x="200.86363636363637" y="79.31818181818181" type="curve" smooth="yes"/>
      <point x="200.86363636363637" y="116.0"/>
      <point x="181.0" y="138.04545454545456"/>
      <point x="147.0909090909091" y="138.04545454545456" type="curve" smooth="yes"/>
      <point x="101.4090909090909" y="138.04545454545456"/>
      <point x="67.54545454545455" y="99.18181818181819"/>
      <point x="67.54545454545455" y="46.68181818181818" type="curve" smooth="yes"/>
      <point x="67.54545454545455" y="11.409090909090908"/>
      <point x="86.4090909090909" y="-12.045454545454545"/>
    </contour>
  </outline>
</glyph>
<glyph name="slash" format="2">
  <advance width="402.90000000000003"/>
  <unicode hex="002F"/>
  <outline>
    <contour>
      <point x="47.09090909090909" y="-66.18181818181819" type="line"/>
      <point x="454.1363636363636" y="749.5" type="line"/>
      <point x="383.04545454545456" y="773.0" type="line"/>
      <point x="-25.0" y="-42.68181818181818" type="line"/>
    </contour>
  </outline>
</glyph>
<glyph name="four" format="2">
  <advance width="545.1"/>
  <unicode hex="0034"/>
  <outline>
    <contour>
      <point x="71.86363636363636" y="194.4090909090909" type="line"/>
      <point x="317.59090909090907" y="194.4090909090909" type="line"/>
      <point x="327.22727272727275" y="262.3636363636364" type="line"/>
      <point x="97.54545454545455" y="260.0" type="line"/>
      <point x="112.22727272727273" y="223.1818181818182" type="line"/>
      <point x="362.5909090909091" y="532.3636363636364" type="line" smooth="yes"/>
      <point x="381.0" y="555.5454545454545"/>
      <point x="508.54545454545456" y="676.2727272727273"/>
      <point x="508.54545454545456" y="676.2727272727273" type="curve"/>
      <point x="436.27272727272725" y="739.0" type="line"/>
      <point x="26.0" y="261.0" type="line"/>
    </contour>
    <contour>
      <point x="171.77272727272728" y="-5.0" type="line"/>
      <point x="215.72727272727272" y="-3.0"/>
      <point x="274.4090909090909" y="0.0"/>
      <point x="301.8636363636364" y="0.0" type="curve" smooth="yes"/>
      <point x="463.90909090909093" y="0.0" type="line"/>
      <point x="477.5" y="59.77272727272727" type="line"/>
      <point x="349.3636363636364" y="69.77272727272728" type="line"/>
      <point x="394.22727272727275" y="21.09090909090909" type="line"/>
      <point x="395.22727272727275" y="72.72727272727272"/>
      <point x="396.40909090909093" y="122.31818181818181"/>
      <point x="401.40909090909093" y="164.72727272727272" type="curve" smooth="yes"/>
      <point x="435.1818181818182" y="423.3181818181818" type="line"/>
      <point x="329.1363636363636" y="388.90909090909093" type="line"/>
      <point x="297.22727272727275" y="145.63636363636363" type="line" smooth="yes"/>
      <point x="293.22727272727275" y="114.0"/>
      <point x="277.6363636363636" y="61.5"/>
      <point x="266.22727272727275" y="21.09090909090909" type="curve"/>
      <point x="326.3181818181818" y="72.77272727272728" type="line"/>
      <point x="174.5909090909091" y="52.0" type="line"/>
    </contour>
    <contour>
      <point x="390.1818181818182" y="194.4090909090909" type="line"/>
      <point x="495.40909090909093" y="194.4090909090909" type="line"/>
      <point x="506.6363636363636" y="274.59090909090907" type="line"/>
      <point x="400.40909090909093" y="268.0" type="line"/>
    </contour>
  </outline>
</glyph>
<glyph name="seven" format="2">
  <advance width="508.90000000000003"/>
  <unicode hex="0037"/>
  <outline>
    <contour>
      <point x="137.9090909090909" y="-105.0" type="line"/>
      <point x="521.9090909090909" y="602.5" type="line"/>
      <point x="513.7272727272727" y="652.0" type="line"/>
      <point x="233.4090909090909" y="652.0" type="line" smooth="yes"/>
      <point x="211.8181818181818" y="652.0"/>
      <point x="118.22727272727273" y="661.0"/>
      <point x="118.22727272727273" y="661.0" type="curve"/>
      <point x="97.63636363636364" y="641.0" type="line"/>
      <point x="64.36363636363636" y="471.1818181818182" type="line"/>
      <point x="128.0" y="467.59090909090907" type="line"/>
      <point x="140.8181818181818" y="516.1363636363636" type="line" smooth="yes"/>
      <point x="143.63636363636363" y="525.7727272727273"/>
      <point x="166.9090909090909" y="565.3636363636364"/>
      <point x="184.36363636363637" y="595.6818181818181" type="curve"/>
      <point x="111.77272727272727" y="549.0" type="line"/>
      <point x="150.36363636363637" y="553.0"/>
      <point x="209.13636363636363" y="558.4090909090909"/>
      <point x="229.54545454545453" y="558.4090909090909" type="curve" smooth="yes"/>
      <point x="431.09090909090907" y="558.4090909090909" type="line"/>
      <point x="403.72727272727275" y="601.8636363636364" type="line"/>
      <point x="377.5" y="536.8181818181819"/>
      <point x="337.04545454545456" y="433.72727272727275"/>
      <point x="322.04545454545456" y="406.77272727272725" type="curve" smooth="yes"/>
      <point x="45.86363636363636" y="-73.81818181818181" type="line"/>
    </contour>
  </outline>
</glyph>
<glyph name="eight" format="2">
  <advance width="537.9499999999999"/>
  <unicode hex="0038"/>
  <outline>
    <contour>
      <point x="234.0" y="-10.0" type="curve" smooth="yes"/>
      <point x="365.3636363636364" y="-10.0"/>
      <point x="481.0" y="62.54545454545455"/>
      <point x="481.0" y="187.63636363636363" type="curve" smooth="yes"/>
      <point x="481.0" y="284.6818181818182"/>
      <point x="402.0" y="329.6818181818182"/>
      <point x="331.5909090909091" y="371.72727272727275" type="curve" smooth="yes"/>
      <point x="270.04545454545456" y="408.72727272727275"/>
      <point x="211.72727272727272" y="443.09090909090907"/>
      <point x="211.72727272727272" y="507.40909090909093" type="curve" smooth="yes"/>
      <point x="211.72727272727272" y="570.8181818181819"/>
      <point x="265.04545454545456" y="623.0454545454545"/>
      <point x="318.3181818181818" y="623.0454545454545" type="curve" smooth="yes"/>
      <point x="366.77272727272725" y="623.0454545454545"/>
      <point x="397.59090909090907" y="586.5909090909091"/>
      <point x="397.59090909090907" y="536.1818181818181" type="curve" smooth="yes"/>
      <point x="397.59090909090907" y="461.54545454545456"/>
      <point x="332.3181818181818" y="390.8636363636364"/>
      <point x="255.6818181818182" y="344.3181818181818" type="curve"/>
      <point x="302.8636363636364" y="312.3181818181818" type="line"/>
      <point x="406.22727272727275" y="358.59090909090907"/>
      <point x="506.3636363636364" y="438.22727272727275"/>
      <point x="506.3636363636364" y="539.1818181818181" type="curve" smooth="yes"/>
      <point x="506.3636363636364" y="631.8181818181819"/>
      <point x="420.0" y="682.0"/>
      <point x="326.54545454545456" y="682.0" type="curve" smooth="yes"/>
      <point x="224.9090909090909" y="682.0"/>
      <point x="102.54545454545455" y="622.8636363636364"/>
      <point x="102.54545454545455" y="494.3636363636364" type="curve" smooth="yes"/>
      <point x="102.54545454545455" y="396.22727272727275"/>
      <point x="176.63636363636363" y="352.40909090909093"/>
      <point x="250.1818181818182" y="309.22727272727275" type="curve" smooth="yes"/>
      <point x="310.90909090909093" y="273.8636363636364"/>
      <point x="367.22727272727275" y="240.0909090909091"/>
      <point x="367.22727272727275" y="175.5909090909091" type="curve" smooth="yes"/>
      <point x="367.22727272727275" y="105.72727272727273"/>
      <point x="312.27272727272725" y="49.54545454545455"/>
      <point x="243.04545454545456" y="49.54545454545455" type="curve" smooth="yes"/>
      <point x="184.0" y="49.54545454545455"/>
      <point x="146.54545454545456" y="86.81818181818181"/>
      <point x="146.54545454545456" y="145.63636363636363" type="curve" smooth="yes"/>
      <point x="146.54545454545456" y="236.36363636363637"/>
      <point x="232.0909090909091" y="305.5"/>
      <point x="323.04545454545456" y="346.1363636363636" type="curve"/>
      <point x="273.3636363636364" y="385.6818181818182" type="line"/>
      <point x="144.1818181818182" y="329.72727272727275"/>
      <point x="33.59090909090909" y="250.4090909090909"/>
      <point x="33.59090909090909" y="141.22727272727272" type="curve" smooth="yes"/>
      <point x="33.59090909090909" y="38.0"/>
      <point x="129.13636363636363" y="-10.0"/>
    </contour>
  </outline>
</glyph>
<glyph name="colon" format="2">
  <advance width="277.40000000000003"/>
  <unicode hex="003A"/>
  <outline>
    <contour>
      <point x="153.86363636363637" y="338.04545454545456" type="curve" smooth="yes"/>
      <point x="198.13636363636363" y="338.04545454545456"/>
      <point x="228.5909090909091" y="373.3181818181818"/>
      <point x="228.5909090909091" y="423.40909090909093" type="curve" smooth="yes"/>
      <point x="228.5909090909091" y="457.09090909090907"/>
      <point x="210.72727272727272" y="477.54545454545456"/>
      <point x="178.8181818181818" y="477.54545454545456" type="curve" smooth="yes"/>
      <point x="135.13636363636363" y="477.54545454545456"/>
      <point x="103.68181818181819" y="441.09090909090907"/>
      <point x="103.68181818181819" y="391.1818181818182" type="curve" smooth="yes"/>
      <point x="103.68181818181819" y="359.5"/>
      <point x="121.13636363636364" y="338.04545454545456"/>
    </contour>
    <contour>
      <point x="94.81818181818181" y="-12.045454545454545" type="curve" smooth="yes"/>
      <point x="138.9090909090909" y="-12.045454545454545"/>
      <point x="169.36363636363637" y="23.818181818181817"/>
      <point x="169.36363636363637" y="73.9090909090909" type="curve" smooth="yes"/>
      <point x="169.36363636363637" y="108.0"/>
      <point x="150.5" y="128.04545454545456"/>
      <point x="119.5909090909091" y="128.04545454545456" type="curve" smooth="yes"/>
      <point x="75.9090909090909" y="128.04545454545456"/>
      <point x="45.04545454545455" y="91.5909090909091"/>
      <point x="45.04545454545455" y="41.68181818181818" type="curve" smooth="yes"/>
      <point x="45.04545454545455" y="10.0"/>
      <point x="61.90909090909091" y="-12.045454545454545"/>
    </contour>
  </outline>
</glyph>
<glyph name="less" format="2">
  <advance width="523.6"/>
  <unicode hex="003C"/>
  <outline>
    <contour>
      <point x="341.5" y="-15.0" type="line"/>
      <point x="405.6363636363636" y="45.81818181818182" type="line"/>
      <point x="169.8181818181818" y="278.0" type="line"/>
      <point x="162.5909090909091" y="218.8181818181818" type="line"/>
      <point x="453.90909090909093" y="452.1818181818182" type="line"/>
      <point x="405.0" y="513.0" type="line"/>
      <point x="83.36363636363636" y="247.8181818181818" type="line"/>
    </contour>
  </outline>
</glyph>
<glyph name="equal" format="2">
  <advance width="694.75"/>
  <unicode hex="003D"/>
  <outline>
    <contour>
      <point x="131.9090909090909" y="300.40909090909093" type="line"/>
      <point x="575.6818181818181" y="305.40909090909093" type="line"/>
      <point x="585.9090909090909" y="383.3636363636364" type="line"/>
      <point x="142.54545454545453" y="383.3636363636364" type="line"/>
    </contour>
    <contour>
      <point x="109.13636363636364" y="111.5909090909091" type="line"/>
      <point x="552.9090909090909" y="113.63636363636364" type="line"/>
      <point x="563.1363636363636" y="195.13636363636363" type="line"/>
      <point x="118.5909090909091" y="191.5909090909091" type="line"/>
    </contour>
  </outline>
</glyph>
<glyph name="greater" format="2">
  <advance width="525.25"/>
  <unicode hex="003E"/>
  <outline>
    <contour>
      <point x="120.13636363636364" y="-15.409090909090908" type="line"/>
      <point x="441.59090909090907" y="247.4090909090909" type="line"/>
      <point x="184.04545454545453" y="512.5909090909091" type="line"/>
      <point x="119.9090909090909" y="451.77272727272725" type="line"/>
      <point x="355.3181818181818" y="218.4090909090909" type="line"/>
      <point x="362.3636363636364" y="277.59090909090907" type="line"/>
      <point x="71.04545454545455" y="45.40909090909091" type="line"/>
    </contour>
  </outline>
</glyph>
<glyph name="question" format="2">
  <advance width="467.65000000000003"/>
  <unicode hex="003F"/>
  <outline>
    <contour>
      <point x="184.22727272727272" y="219.6818181818182" type="line"/>
      <point x="195.13636363636363" y="229.1818181818182" type="line"/>
      <point x="208.77272727272728" y="399.77272727272725" type="line"/>
      <point x="173.54545454545453" y="355.90909090909093" type="line"/>
      <point x="185.1818181818182" y="354.5"/>
      <point x="195.8181818181818" y="354.5"/>
      <point x="207.45454545454547" y="354.5" type="curve" smooth="yes"/>
      <point x="353.6363636363636" y="354.5"/>
      <point x="449.8181818181818" y="450.59090909090907"/>
      <point x="449.8181818181818" y="594.0" type="curve" smooth="yes"/>
      <point x="449.8181818181818" y="704.2727272727273"/>
      <point x="378.77272727272725" y="767.0"/>
      <point x="269.1363636363636" y="767.0" type="curve" smooth="yes"/>
      <point x="231.3181818181818" y="767.0"/>
      <point x="186.0909090909091" y="760.0"/>
      <point x="136.86363636363637" y="744.5909090909091" type="curve"/>
      <point x="129.04545454545453" y="593.5" type="line"/>
      <point x="187.36363636363637" y="595.5454545454545" type="line"/>
      <point x="190.54545454545453" y="629.1363636363636" type="line" smooth="yes"/>
      <point x="192.13636363636363" y="647.3181818181819"/>
      <point x="206.5909090909091" y="695.2272727272727"/>
      <point x="215.4090909090909" y="729.3181818181819" type="curve"/>
      <point x="145.36363636363637" y="682.2272727272727" type="line"/>
      <point x="183.13636363636363" y="697.6363636363636"/>
      <point x="217.54545454545453" y="706.6363636363636"/>
      <point x="248.54545454545453" y="706.6363636363636" type="curve" smooth="yes"/>
      <point x="314.0" y="706.6363636363636"/>
      <point x="348.6363636363636" y="665.5909090909091"/>
      <point x="348.6363636363636" y="597.6363636363636" type="curve" smooth="yes"/>
      <point x="348.6363636363636" y="499.90909090909093"/>
      <point x="296.8181818181818" y="419.40909090909093"/>
      <point x="202.86363636363637" y="419.40909090909093" type="curve" smooth="yes"/>
      <point x="192.86363636363637" y="419.40909090909093"/>
      <point x="168.8181818181818" y="421.0"/>
      <point x="154.0" y="423.0" type="curve"/>
      <point x="125.54545454545455" y="395.5" type="line"/>
      <point x="105.72727272727273" y="223.0909090909091" type="line"/>
    </contour>
    <contour>
      <point x="117.72727272727273" y="-12.045454545454545" type="curve" smooth="yes"/>
      <point x="159.22727272727272" y="-12.045454545454545"/>
      <point x="183.6818181818182" y="21.0"/>
      <point x="183.6818181818182" y="66.68181818181819" type="curve" smooth="yes"/>
      <point x="183.6818181818182" y="104.0"/>
      <point x="163.4090909090909" y="128.04545454545456"/>
      <point x="127.72727272727273" y="128.04545454545456" type="curve" smooth="yes"/>
      <point x="85.63636363636364" y="128.04545454545456"/>
      <point x="61.0" y="95.18181818181819"/>
      <point x="61.0" y="49.09090909090909" type="curve" smooth="yes"/>
      <point x="61.0" y="11.818181818181818"/>
      <point x="81.22727272727273" y="-12.045454545454545"/>
    </contour>
  </outline>
</glyph>
<glyph name="at" format="2">
  <advance width="1003.1999999999999"/>
  <unicode hex="0040"/>
  <outline>
    <contour>
      <point x="430.3636363636364" y="-211.54545454545453" type="curve" smooth="yes"/>
      <point x="498.59090909090907" y="-211.54545454545453"/>
      <point x="638.2727272727273" y="-163.63636363636363"/>
      <point x="673.0454545454545" y="-153.36363636363637" type="curve"/>
      <point x="667.2272727272727" y="-114.54545454545455" type="line"/>
      <point x="667.2272727272727" y="-114.54545454545455"/>
      <point x="502.77272727272725" y="-142.54545454545453"/>
      <point x="452.77272727272725" y="-142.54545454545453" type="curve" smooth="yes"/>
      <point x="266.8181818181818" y="-142.54545454545453"/>
      <point x="179.0909090909091" y="-33.59090909090909"/>
      <point x="179.0909090909091" y="144.0" type="curve" smooth="yes"/>
      <point x="179.0909090909091" y="390.5"/>
      <point x="309.22727272727275" y="613.0454545454545"/>
      <point x="555.7272727272727" y="613.0454545454545" type="curve" smooth="yes"/>
      <point x="729.2727272727273" y="613.0454545454545"/>
      <point x="845.6818181818181" y="514.9090909090909"/>
      <point x="845.6818181818181" y="342.0" type="curve" smooth="yes"/>
      <point x="845.6818181818181" y="180.0"/>
      <point x="770.6363636363636" y="74.77272727272728"/>
      <point x="659.0454545454545" y="51.77272727272727" type="curve"/>
      <point x="671.2727272727273" y="25.363636363636363" type="line"/>
      <point x="670.5454545454545" y="200.22727272727272"/>
      <point x="698.0454545454545" y="339.09090909090907"/>
      <point x="734.8181818181819" y="487.1363636363636" type="curve"/>
      <point x="706.8636363636364" y="504.8636363636364" type="line"/>
      <point x="619.2727272727273" y="485.54545454545456" type="line"/>
      <point x="617.2727272727273" y="436.1818181818182" type="line" smooth="yes"/>
      <point x="610.8636363636364" y="278.09090909090907"/>
      <point x="494.6363636363636" y="67.36363636363637"/>
      <point x="435.3636363636364" y="67.36363636363637" type="curve" smooth="yes"/>
      <point x="410.0" y="67.36363636363637"/>
      <point x="395.72727272727275" y="103.22727272727273"/>
      <point x="395.72727272727275" y="154.8181818181818" type="curve" smooth="yes"/>
      <point x="395.72727272727275" y="274.77272727272725"/>
      <point x="455.8636363636364" y="436.1818181818182"/>
      <point x="502.3181818181818" y="436.1818181818182" type="curve" smooth="yes"/>
      <point x="555.1363636363636" y="436.1818181818182"/>
      <point x="630.6818181818181" y="396.04545454545456"/>
      <point x="643.0454545454545" y="391.09090909090907" type="curve"/>
      <point x="652.2272727272727" y="489.0" type="line"/>
      <point x="632.2272727272727" y="490.0"/>
      <point x="552.1818181818181" y="504.8636363636364"/>
      <point x="517.5454545454545" y="504.8636363636364" type="curve" smooth="yes"/>
      <point x="416.54545454545456" y="504.8636363636364"/>
      <point x="293.6363636363636" y="296.54545454545456"/>
      <point x="293.6363636363636" y="138.1818181818182" type="curve" smooth="yes"/>
      <point x="293.6363636363636" y="46.18181818181818"/>
      <point x="324.72727272727275" y="-12.272727272727273"/>
      <point x="388.04545454545456" y="-12.272727272727273" type="curve" smooth="yes"/>
      <point x="473.77272727272725" y="-12.272727272727273"/>
      <point x="555.7727272727273" y="88.54545454545455"/>
      <point x="612.1818181818181" y="219.36363636363637" type="curve"/>
      <point x="603.7272727272727" y="237.13636363636363" type="line"/>
      <point x="593.6363636363636" y="140.5"/>
      <point x="577.9090909090909" y="68.18181818181819"/>
      <point x="560.5454545454545" y="0.0" type="curve"/>
      <point x="588.6363636363636" y="-16.227272727272727" type="line"/>
      <point x="796.0" y="-0.2272727272727273"/>
      <point x="937.1818181818181" y="163.3181818181818"/>
      <point x="937.1818181818181" y="349.0" type="curve" smooth="yes"/>
      <point x="937.1818181818181" y="566.0454545454545"/>
      <point x="786.5909090909091" y="667.0"/>
      <point x="570.1363636363636" y="667.0" type="curve" smooth="yes"/>
      <point x="261.95454545454544" y="667.0"/>
      <point x="74.77272727272727" y="451.22727272727275"/>
      <point x="74.77272727272727" y="143.04545454545453" type="curve" smooth="yes"/>
      <point x="74.77272727272727" y="-95.68181818181819"/>
      <point x="213.6818181818182" y="-211.54545454545453"/>
    </contour>
  </outline>
</glyph>
<glyph name="A" format="2">
  <advance width="693.5"/>
  <unicode hex="0041"/>
  <anchor x="316.04545454545456" y="0.0" name="bottom"/>
  <anchor x="578.5" y="10.0" name="ogonek"/>
  <anchor x="410.54545454545456" y="705.0" name="top"/>
  <outline>
    <contour>
      <point x="1.0" y="-5.0" type="line"/>
      <point x="44.18181818181818" y="-3.0"/>
      <point x="106.77272727272727" y="0.0"/>
      <point x="130.54545454545453" y="0.0" type="curve" smooth="yes"/>
      <point x="223.1818181818182" y="0.0" type="line"/>
      <point x="236.0" y="58.72727272727273" type="line"/>
      <point x="129.6818181818182" y="72.9090909090909" type="line"/>
      <point x="169.0909090909091" y="39.72727272727273" type="line"/>
      <point x="171.6818181818182" y="65.54545454545455"/>
      <point x="182.77272727272728" y="110.0"/>
      <point x="192.1818181818182" y="131.22727272727272" type="curve" smooth="yes"/>
      <point x="398.5" y="586.2272727272727" type="line"/>
      <point x="372.54545454545456" y="580.5" type="line"/>
      <point x="444.59090909090907" y="157.3181818181818" type="line" smooth="yes"/>
      <point x="450.3636363636364" y="124.22727272727272"/>
      <point x="449.6818181818182" y="61.59090909090909"/>
      <point x="450.04545454545456" y="37.5" type="curve"/>
      <point x="492.5" y="77.9090909090909" type="line"/>
      <point x="381.40909090909093" y="49.77272727272727" type="line"/>
      <point x="376.59090909090907" y="-5.0" type="line"/>
      <point x="424.40909090909093" y="-3.0"/>
      <point x="492.40909090909093" y="0.0"/>
      <point x="520.6363636363636" y="0.0" type="curve" smooth="yes"/>
      <point x="628.3181818181819" y="0.0" type="line"/>
      <point x="641.1363636363636" y="58.72727272727273" type="line"/>
      <point x="540.7727272727273" y="73.0909090909091" type="line"/>
      <point x="593.0" y="42.63636363636363" type="line"/>
      <point x="587.1818181818181" y="56.04545454545455"/>
      <point x="569.0454545454545" y="111.86363636363636"/>
      <point x="564.6363636363636" y="134.72727272727272" type="curve" smooth="yes"/>
      <point x="445.1363636363636" y="715.4090909090909" type="line"/>
      <point x="370.72727272727275" y="705.0" type="line"/>
      <point x="120.22727272727272" y="165.54545454545453" type="line" smooth="yes"/>
      <point x="102.0" y="125.9090909090909"/>
      <point x="60.63636363636363" y="60.68181818181818"/>
      <point x="51.22727272727273" y="47.04545454545455" type="curve"/>
      <point x="104.27272727272727" y="73.9090909090909" type="line"/>
      <point x="4.409090909090909" y="49.36363636363637" type="line"/>
    </contour>
    <contour>
      <point x="214.4090909090909" y="218.0" type="line"/>
      <point x="449.3636363636364" y="218.0" type="line"/>
      <point x="443.5" y="280.22727272727275" type="line"/>
      <point x="239.9090909090909" y="276.6363636363636" type="line"/>
    </contour>
  </outline>
</glyph>
<glyph name="B" format="2">
  <advance width="613.3000000000001"/>
  <unicode hex="0042"/>
  <anchor x="275.3636363636364" y="0.0" name="bottom"/>
  <anchor x="373.1818181818182" y="705.0" name="top"/>
  <outline>
    <contour>
      <point x="9.409090909090908" y="-5.0" type="line"/>
      <point x="56.04545454545455" y="-3.0"/>
      <point x="121.68181818181819" y="0.0"/>
      <point x="148.3181818181818" y="0.0" type="curve" smooth="yes"/>
      <point x="196.04545454545453" y="0.0"/>
      <point x="269.77272727272725" y="-5.0"/>
      <point x="317.09090909090907" y="-5.0" type="curve" smooth="yes"/>
      <point x="446.40909090909093" y="-5.0"/>
      <point x="555.8181818181819" y="75.5"/>
      <point x="555.8181818181819" y="210.04545454545453" type="curve" smooth="yes"/>
      <point x="555.8181818181819" y="307.6818181818182"/>
      <point x="481.1363636363636" y="363.04545454545456"/>
      <point x="377.04545454545456" y="366.40909090909093" type="curve"/>
      <point x="404.1818181818182" y="320.40909090909093" type="line"/>
      <point x="417.6363636363636" y="413.0" type="line"/>
      <point x="380.8636363636364" y="365.0" type="line"/>
      <point x="488.72727272727275" y="377.1363636363636"/>
      <point x="577.8181818181819" y="456.77272727272725"/>
      <point x="577.8181818181819" y="564.3636363636364" type="curve" smooth="yes"/>
      <point x="577.8181818181819" y="656.4090909090909"/>
      <point x="492.54545454545456" y="710.0"/>
      <point x="394.22727272727275" y="710.0" type="curve" smooth="yes"/>
      <point x="353.0" y="710.0"/>
      <point x="271.8636363636364" y="705.0"/>
      <point x="231.63636363636363" y="705.0" type="curve" smooth="yes"/>
      <point x="213.22727272727272" y="705.0"/>
      <point x="153.8181818181818" y="708.0"/>
      <point x="115.0" y="710.0" type="curve"/>
      <point x="101.18181818181819" y="650.6363636363636" type="line"/>
      <point x="214.0909090909091" y="631.0" type="line"/>
      <point x="171.6818181818182" y="670.6363636363636" type="line"/>
      <point x="171.0909090909091" y="648.1363636363636"/>
      <point x="171.5" y="586.5454545454545"/>
      <point x="167.04545454545453" y="553.1818181818181" type="curve" smooth="yes"/>
      <point x="107.13636363636364" y="143.5909090909091" type="line" smooth="yes"/>
      <point x="103.31818181818181" y="119.27272727272727"/>
      <point x="85.72727272727273" y="59.5"/>
      <point x="78.31818181818181" y="35.09090909090909" type="curve"/>
      <point x="130.3181818181818" y="73.54545454545455" type="line"/>
      <point x="12.227272727272727" y="50.54545454545455" type="line"/>
    </contour>
    <contour>
      <point x="208.5909090909091" y="43.0" type="line"/>
      <point x="207.4090909090909" y="57.90909090909091"/>
      <point x="214.0" y="134.27272727272728"/>
      <point x="219.8181818181818" y="174.0" type="curve" smooth="yes"/>
      <point x="272.5909090909091" y="539.2272727272727" type="line" smooth="yes"/>
      <point x="278.1818181818182" y="575.7727272727273"/>
      <point x="295.1818181818182" y="642.5"/>
      <point x="300.0" y="663.7272727272727" type="curve"/>
      <point x="269.3636363636364" y="643.4090909090909" type="line"/>
      <point x="300.09090909090907" y="645.5909090909091"/>
      <point x="341.72727272727275" y="648.5909090909091"/>
      <point x="372.09090909090907" y="648.5909090909091" type="curve" smooth="yes"/>
      <point x="431.6363636363636" y="648.5909090909091"/>
      <point x="469.40909090909093" y="607.8181818181819"/>
      <point x="469.40909090909093" y="550.7272727272727" type="curve" smooth="yes"/>
      <point x="469.40909090909093" y="453.04545454545456"/>
      <point x="399.1818181818182" y="397.5"/>
      <point x="315.72727272727275" y="397.5" type="curve" smooth="yes"/>
      <point x="309.1363636363636" y="397.5" type="line"/>
      <point x="292.90909090909093" y="332.27272727272725" type="line"/>
      <point x="303.5" y="332.27272727272725" type="line" smooth="yes"/>
      <point x="378.72727272727275" y="332.27272727272725"/>
      <point x="441.22727272727275" y="297.1818181818182"/>
      <point x="441.22727272727275" y="214.6818181818182" type="curve" smooth="yes"/>
      <point x="441.22727272727275" y="116.77272727272728"/>
      <point x="375.6818181818182" y="59.18181818181818"/>
      <point x="289.1363636363636" y="59.18181818181818" type="curve" smooth="yes"/>
      <point x="251.5" y="59.18181818181818"/>
      <point x="209.8181818181818" y="63.36363636363637"/>
      <point x="189.54545454545456" y="66.54545454545455" type="curve"/>
    </contour>
  </outline>
</glyph>
<glyph name="C" format="2">
  <advance width="641.8000000000001"/>
  <unicode hex="0043"/>
  <anchor x="313.1363636363636" y="0.0" name="bottom"/>
  <anchor x="451.27272727272725" y="720.0" name="top"/>
  <outline>
    <contour>
      <point x="341.3636363636364" y="-15.0" type="curve" smooth="yes"/>
      <point x="421.59090909090907" y="-15.0"/>
      <point x="485.8636363636364" y="3.0"/>
      <point x="550.6818181818181" y="19.0" type="curve"/>
      <point x="566.6818181818181" y="175.36363636363637" type="line"/>
      <point x="504.3636363636364" y="173.36363636363637" type="line"/>
      <point x="502.3636363636364" y="161.1818181818182"/>
      <point x="499.3636363636364" y="143.1818181818182"/>
      <point x="495.54545454545456" y="126.13636363636364" type="curve" smooth="yes"/>
      <point x="490.3636363636364" y="108.77272727272728"/>
      <point x="469.8636363636364" y="62.63636363636363"/>
      <point x="456.6363636363636" y="32.63636363636363" type="curve"/>
      <point x="516.5454545454545" y="79.22727272727273" type="line"/>
      <point x="460.09090909090907" y="65.63636363636364"/>
      <point x="403.3636363636364" y="51.86363636363637"/>
      <point x="348.77272727272725" y="51.86363636363637" type="curve" smooth="yes"/>
      <point x="241.13636363636363" y="51.86363636363637"/>
      <point x="185.72727272727272" y="151.72727272727272"/>
      <point x="185.72727272727272" y="281.3636363636364" type="curve" smooth="yes"/>
      <point x="185.72727272727272" y="469.90909090909093"/>
      <point x="267.27272727272725" y="653.1363636363636"/>
      <point x="430.3636363636364" y="653.1363636363636" type="curve" smooth="yes"/>
      <point x="482.77272727272725" y="653.1363636363636"/>
      <point x="536.2272727272727" y="637.7727272727273"/>
      <point x="588.2727272727273" y="625.0" type="curve"/>
      <point x="541.2272727272727" y="675.0" type="line"/>
      <point x="545.0454545454545" y="644.3636363636364"/>
      <point x="551.6818181818181" y="595.5"/>
      <point x="550.0909090909091" y="584.2727272727273" type="curve" smooth="yes"/>
      <point x="543.5" y="533.7727272727273" type="line"/>
      <point x="605.8181818181819" y="529.7727272727273" type="line"/>
      <point x="638.6818181818181" y="686.0" type="line"/>
      <point x="578.8636363636364" y="702.0"/>
      <point x="520.8181818181819" y="720.0"/>
      <point x="439.59090909090907" y="720.0" type="curve" smooth="yes"/>
      <point x="195.22727272727272" y="720.0"/>
      <point x="62.36363636363637" y="530.2272727272727"/>
      <point x="62.36363636363637" y="283.04545454545456" type="curve" smooth="yes"/>
      <point x="62.36363636363637" y="105.81818181818181"/>
      <point x="159.5909090909091" y="-15.0"/>
    </contour>
  </outline>
</glyph>
<glyph name="D" format="2">
  <advance width="724.35"/>
  <unicode hex="0044"/>
  <anchor x="296.22727272727275" y="0.0" name="bottom"/>
  <anchor x="204.04545454545456" y="353.0" name="center"/>
  <anchor x="393.0" y="720.0" name="top"/>
  <outline>
    <contour>
      <point x="9.409090909090908" y="-5.0" type="line"/>
      <point x="47.86363636363637" y="-3.0"/>
      <point x="122.0909090909091" y="0.0"/>
      <point x="148.3181818181818" y="0.0" type="curve" smooth="yes"/>
      <point x="200.8181818181818" y="0.0"/>
      <point x="248.86363636363637" y="-5.0"/>
      <point x="302.1363636363636" y="-5.0" type="curve" smooth="yes"/>
      <point x="545.0909090909091" y="-5.0"/>
      <point x="688.6363636363636" y="172.63636363636363"/>
      <point x="688.6363636363636" y="417.1818181818182" type="curve" smooth="yes"/>
      <point x="688.6363636363636" y="593.5454545454545"/>
      <point x="582.0909090909091" y="710.0"/>
      <point x="390.6363636363636" y="710.0" type="curve" smooth="yes"/>
      <point x="349.40909090909093" y="710.0"/>
      <point x="273.09090909090907" y="705.0"/>
      <point x="231.63636363636363" y="705.0" type="curve" smooth="yes"/>
      <point x="205.5" y="705.0"/>
      <point x="148.27272727272728" y="708.0"/>
      <point x="115.0" y="710.0" type="curve"/>
      <point x="101.18181818181819" y="650.6363636363636" type="line"/>
      <point x="214.0909090909091" y="631.0" type="line"/>
      <point x="172.72727272727272" y="678.6818181818181" type="line"/>
      <point x="171.5" y="653.1818181818181"/>
      <point x="170.27272727272728" y="577.9090909090909"/>
      <point x="167.04545454545453" y="553.1818181818181" type="curve" smooth="yes"/>
      <point x="107.13636363636364" y="143.5909090909091" type="line" smooth="yes"/>
      <point x="103.13636363636364" y="116.5909090909091"/>
      <point x="86.72727272727273" y="63.27272727272727"/>
      <point x="78.5" y="34.81818181818182" type="curve"/>
      <point x="130.3181818181818" y="73.54545454545455" type="line"/>
      <point x="12.227272727272727" y="50.54545454545455" type="line"/>
    </contour>
    <contour>
      <point x="208.0" y="39.63636363636364" type="line"/>
      <point x="207.4090909090909" y="58.36363636363636"/>
      <point x="214.0" y="131.86363636363637"/>
      <point x="219.8181818181818" y="173.5909090909091" type="curve" smooth="yes"/>
      <point x="272.5909090909091" y="539.2272727272727" type="line" smooth="yes"/>
      <point x="277.1818181818182" y="571.7272727272727"/>
      <point x="294.77272727272725" y="641.5"/>
      <point x="301.6363636363636" y="669.7727272727273" type="curve"/>
      <point x="257.5" y="640.2272727272727" type="line"/>
      <point x="301.0" y="643.4090909090909"/>
      <point x="354.90909090909093" y="644.2272727272727"/>
      <point x="385.8636363636364" y="644.2272727272727" type="curve" smooth="yes"/>
      <point x="516.6818181818181" y="644.2272727272727"/>
      <point x="572.1363636363636" y="540.7272727272727"/>
      <point x="572.1363636363636" y="414.6818181818182" type="curve" smooth="yes"/>
      <point x="572.1363636363636" y="236.0909090909091"/>
      <point x="495.8181818181818" y="60.18181818181818"/>
      <point x="306.8181818181818" y="60.18181818181818" type="curve" smooth="yes"/>
      <point x="272.90909090909093" y="60.18181818181818"/>
      <point x="192.27272727272728" y="63.59090909090909"/>
      <point x="172.8181818181818" y="65.0" type="curve"/>
    </contour>
  </outline>
</glyph>
<glyph name="E" format="2">
  <advance width="593.35"/>
  <unicode hex="0045"/>
  <anchor x="263.09090909090907" y="0.0" name="bottom"/>
  <anchor x="477.22727272727275" y="0.0" name="ogonek"/>
  <anchor x="364.09090909090907" y="720.0" name="top"/>
  <anchor x="95.22727272727273" y="705.0" name="topleft"/>
  <outline>
    <contour>
      <point x="9.409090909090908" y="-5.0" type="line"/>
      <point x="57.90909090909091" y="-2.590909090909091"/>
      <point x="117.54545454545455" y="0.0"/>
      <point x="148.3181818181818" y="0.0" type="curve" smooth="yes"/>
      <point x="362.40909090909093" y="0.0" type="line" smooth="yes"/>
      <point x="389.40909090909093" y="0.0"/>
      <point x="438.59090909090907" y="0.0"/>
      <point x="477.22727272727275" y="0.0" type="curve"/>
      <point x="493.40909090909093" y="14.0" type="line"/>
      <point x="531.6363636363636" y="171.5909090909091" type="line"/>
      <point x="474.3181818181818" y="176.5909090909091" type="line"/>
      <point x="469.72727272727275" y="160.5909090909091"/>
      <point x="457.54545454545456" y="126.22727272727273"/>
      <point x="450.77272727272725" y="112.27272727272728" type="curve" smooth="yes"/>
      <point x="444.77272727272725" y="98.27272727272728"/>
      <point x="423.54545454545456" y="68.36363636363636"/>
      <point x="402.0" y="44.0" type="curve"/>
      <point x="444.04545454545456" y="77.63636363636364" type="line"/>
      <point x="425.8636363636364" y="73.63636363636364"/>
      <point x="382.5" y="65.22727272727273"/>
      <point x="343.04545454545456" y="65.22727272727273" type="curve" smooth="yes"/>
      <point x="167.0" y="65.22727272727273" type="line"/>
      <point x="208.0" y="31.863636363636367" type="line"/>
      <point x="208.0" y="55.72727272727273"/>
      <point x="214.0" y="135.04545454545453"/>
      <point x="219.8181818181818" y="173.5909090909091" type="curve" smooth="yes"/>
      <point x="249.0" y="375.22727272727275" type="line"/>
      <point x="199.77272727272728" y="332.6363636363636" type="line"/>
      <point x="325.3181818181818" y="332.6363636363636" type="line" smooth="yes"/>
      <point x="343.1363636363636" y="332.6363636363636"/>
      <point x="401.77272727272725" y="326.8181818181818"/>
      <point x="440.0" y="322.40909090909093" type="curve"/>
      <point x="398.1818181818182" y="369.6363636363636" type="line"/>
      <point x="394.8181818181818" y="261.09090909090907" type="line"/>
      <point x="447.1363636363636" y="267.09090909090907" type="line"/>
      <point x="453.54545454545456" y="328.22727272727275"/>
      <point x="463.72727272727275" y="389.3636363636364"/>
      <point x="476.72727272727275" y="464.8181818181818" type="curve"/>
      <point x="427.40909090909093" y="469.8181818181818" type="line"/>
      <point x="394.1818181818182" y="359.6363636363636" type="line"/>
      <point x="449.8181818181818" y="406.27272727272725" type="line"/>
      <point x="412.8636363636364" y="401.22727272727275"/>
      <point x="364.54545454545456" y="395.22727272727275"/>
      <point x="353.54545454545456" y="395.22727272727275" type="curve" smooth="yes"/>
      <point x="208.5909090909091" y="395.22727272727275" type="line"/>
      <point x="245.36363636363637" y="352.6363636363636" type="line"/>
      <point x="273.0" y="539.2272727272727" type="line" smooth="yes"/>
      <point x="277.5909090909091" y="571.3636363636364"/>
      <point x="296.77272727272725" y="650.8636363636364"/>
      <point x="301.1818181818182" y="670.5" type="curve"/>
      <point x="251.54545454545453" y="642.4090909090909" type="line"/>
      <point x="414.1818181818182" y="642.4090909090909" type="line" smooth="yes"/>
      <point x="435.1363636363636" y="642.4090909090909"/>
      <point x="502.8636363636364" y="637.4090909090909"/>
      <point x="528.2272727272727" y="635.4090909090909" type="curve"/>
      <point x="474.1818181818182" y="677.2272727272727" type="line"/>
      <point x="487.1363636363636" y="653.1818181818181"/>
      <point x="502.90909090909093" y="614.5909090909091"/>
      <point x="503.5" y="603.4090909090909" type="curve" smooth="yes"/>
      <point x="504.09090909090907" y="592.5454545454545"/>
      <point x="505.09090909090907" y="567.0454545454545"/>
      <point x="505.6818181818182" y="551.0454545454545" type="curve"/>
      <point x="566.1818181818181" y="556.0454545454545" type="line"/>
      <point x="580.4090909090909" y="692.0" type="line"/>
      <point x="564.4090909090909" y="710.0" type="line"/>
      <point x="527.0" y="708.0"/>
      <point x="472.90909090909093" y="705.0"/>
      <point x="452.40909090909093" y="705.0" type="curve" smooth="yes"/>
      <point x="231.63636363636363" y="705.0" type="line" smooth="yes"/>
      <point x="208.9090909090909" y="705.0"/>
      <point x="153.8181818181818" y="708.0"/>
      <point x="115.0" y="710.0" type="curve"/>
      <point x="101.18181818181819" y="650.6363636363636" type="line"/>
      <point x="214.0909090909091" y="631.0" type="line"/>
      <point x="171.9090909090909" y="662.3181818181819" type="line"/>
      <point x="171.9090909090909" y="649.7272727272727"/>
      <point x="170.27272727272728" y="578.3181818181819"/>
      <point x="167.04545454545453" y="553.1818181818181" type="curve" smooth="yes"/>
      <point x="107.13636363636364" y="143.5909090909091" type="line" smooth="yes"/>
      <point x="103.72727272727273" y="121.31818181818181"/>
      <point x="84.13636363636364" y="52.54545454545455"/>
      <point x="76.9090909090909" y="29.545454545454547" type="curve"/>
      <point x="130.3181818181818" y="73.54545454545455" type="line"/>
      <point x="12.227272727272727" y="50.54545454545455" type="line"/>
    </contour>
  </outline>
</glyph>
<glyph name="F" format="2">
  <advance width="566.65"/>
  <unicode hex="0046"/>
  <anchor x="245.0909090909091" y="0.0" name="bottom"/>
  <anchor x="346.09090909090907" y="720.0" name="top"/>
  <outline>
    <contour>
      <point x="9.409090909090908" y="-5.0" type="line"/>
      <point x="56.04545454545455" y="-3.0"/>
      <point x="121.68181818181819" y="0.0"/>
      <point x="148.3181818181818" y="0.0" type="curve" smooth="yes"/>
      <point x="282.3636363636364" y="0.0" type="line"/>
      <point x="296.77272727272725" y="58.31818181818182" type="line"/>
      <point x="167.8181818181818" y="69.54545454545455" type="line"/>
      <point x="210.22727272727272" y="31.0" type="line"/>
      <point x="210.22727272727272" y="57.68181818181818"/>
      <point x="213.1818181818182" y="130.72727272727272"/>
      <point x="219.8181818181818" y="173.5909090909091" type="curve" smooth="yes"/>
      <point x="249.0" y="375.22727272727275" type="line"/>
      <point x="197.1818181818182" y="322.6363636363636" type="line"/>
      <point x="322.72727272727275" y="322.6363636363636" type="line" smooth="yes"/>
      <point x="340.3636363636364" y="322.6363636363636"/>
      <point x="399.1818181818182" y="316.8181818181818"/>
      <point x="437.40909090909093" y="312.40909090909093" type="curve"/>
      <point x="396.0" y="359.6363636363636" type="line"/>
      <point x="392.22727272727275" y="251.0909090909091" type="line"/>
      <point x="444.54545454545456" y="257.09090909090907" type="line"/>
      <point x="450.3636363636364" y="317.0"/>
      <point x="461.54545454545456" y="381.8181818181818"/>
      <point x="474.54545454545456" y="454.8181818181818" type="curve"/>
      <point x="425.22727272727275" y="459.8181818181818" type="line"/>
      <point x="392.0" y="349.6363636363636" type="line"/>
      <point x="447.6363636363636" y="396.27272727272725" type="line"/>
      <point x="414.59090909090907" y="392.04545454545456"/>
      <point x="362.1818181818182" y="385.22727272727275"/>
      <point x="350.3636363636364" y="385.22727272727275" type="curve" smooth="yes"/>
      <point x="206.4090909090909" y="385.22727272727275" type="line"/>
      <point x="245.36363636363637" y="352.6363636363636" type="line"/>
      <point x="272.5909090909091" y="539.2272727272727" type="line" smooth="yes"/>
      <point x="277.1818181818182" y="571.7727272727273"/>
      <point x="296.77272727272725" y="650.8636363636364"/>
      <point x="301.1818181818182" y="670.5" type="curve"/>
      <point x="251.54545454545453" y="642.4090909090909" type="line"/>
      <point x="414.1818181818182" y="642.4090909090909" type="line" smooth="yes"/>
      <point x="435.1363636363636" y="642.4090909090909"/>
      <point x="502.8636363636364" y="637.4090909090909"/>
      <point x="528.2272727272727" y="635.4090909090909" type="curve"/>
      <point x="474.1818181818182" y="677.2272727272727" type="line"/>
      <point x="487.1363636363636" y="653.1818181818181"/>
      <point x="502.90909090909093" y="614.5909090909091"/>
      <point x="503.5" y="603.4090909090909" type="curve" smooth="yes"/>
      <point x="504.09090909090907" y="592.5454545454545"/>
      <point x="505.09090909090907" y="567.0454545454545"/>
      <point x="505.6818181818182" y="551.0454545454545" type="curve"/>
      <point x="566.1818181818181" y="556.0454545454545" type="line"/>
      <point x="580.4090909090909" y="692.0" type="line"/>
      <point x="564.4090909090909" y="710.0" type="line"/>
      <point x="527.0" y="708.0"/>
      <point x="472.90909090909093" y="705.0"/>
      <point x="452.40909090909093" y="705.0" type="curve" smooth="yes"/>
      <point x="231.63636363636363" y="705.0" type="line" smooth="yes"/>
      <point x="208.9090909090909" y="705.0"/>
      <point x="153.8181818181818" y="708.0"/>
      <point x="115.0" y="710.0" type="curve"/>
      <point x="101.18181818181819" y="650.6363636363636" type="line"/>
      <point x="214.0909090909091" y="631.0" type="line"/>
      <point x="171.9090909090909" y="662.3181818181819" type="line"/>
      <point x="171.9090909090909" y="649.7272727272727"/>
      <point x="170.27272727272728" y="578.3181818181819"/>
      <point x="167.04545454545453" y="553.1818181818181" type="curve" smooth="yes"/>
      <point x="107.13636363636364" y="143.5909090909091" type="line" smooth="yes"/>
      <point x="103.72727272727273" y="121.72727272727273"/>
      <point x="86.36363636363636" y="62.0"/>
      <point x="77.9090909090909" y="36.09090909090909" type="curve"/>
      <point x="130.3181818181818" y="73.54545454545455" type="line"/>
      <point x="12.227272727272727" y="50.54545454545455" type="line"/>
    </contour>
  </outline>
</glyph>
<glyph name="G" format="2">
  <advance width="687.8000000000001"/>
  <unicode hex="0047"/>
  <anchor x="364.09090909090907" y="0.0" name="bottom"/>
  <anchor x="520.0" y="181.0" name="center"/>
  <anchor x="450.1363636363636" y="720.0" name="top"/>
  <outline>
    <contour>
      <point x="356.3636363636364" y="-15.0" type="curve" smooth="yes"/>
      <point x="442.0" y="-15.0"/>
      <point x="511.09090909090907" y="2.590909090909091"/>
      <point x="578.6818181818181" y="19.0" type="curve"/>
      <point x="601.3181818181819" y="174.22727272727272" type="line" smooth="yes"/>
      <point x="604.7272727272727" y="197.5"/>
      <point x="621.0909090909091" y="272.72727272727275"/>
      <point x="631.5" y="324.77272727272725" type="curve"/>
      <point x="614.2272727272727" y="344.22727272727275" type="line"/>
      <point x="585.0909090909091" y="342.8181818181818"/>
      <point x="545.9090909090909" y="341.22727272727275"/>
      <point x="531.5" y="341.22727272727275" type="curve" smooth="yes"/>
      <point x="423.5" y="341.22727272727275" type="line"/>
      <point x="408.8636363636364" y="272.72727272727275" type="line"/>
      <point x="553.2727272727273" y="260.90909090909093" type="line"/>
      <point x="509.8636363636364" y="307.72727272727275" type="line"/>
      <point x="511.6818181818182" y="263.8181818181818"/>
      <point x="511.8636363636364" y="207.8181818181818"/>
      <point x="510.27272727272725" y="196.0" type="curve" smooth="yes"/>
      <point x="484.09090909090907" y="27.772727272727273" type="line"/>
      <point x="516.6363636363636" y="76.77272727272728" type="line"/>
      <point x="472.6818181818182" y="64.81818181818181"/>
      <point x="411.0" y="51.86363636363637"/>
      <point x="363.59090909090907" y="51.86363636363637" type="curve" smooth="yes"/>
      <point x="243.36363636363637" y="51.86363636363637"/>
      <point x="184.54545454545456" y="154.13636363636363"/>
      <point x="184.54545454545456" y="285.77272727272725" type="curve" smooth="yes"/>
      <point x="184.54545454545456" y="475.3636363636364"/>
      <point x="270.90909090909093" y="653.1363636363636"/>
      <point x="444.0" y="653.1363636363636" type="curve" smooth="yes"/>
      <point x="493.0" y="653.1363636363636"/>
      <point x="553.1363636363636" y="639.5909090909091"/>
      <point x="599.8181818181819" y="623.1818181818181" type="curve"/>
      <point x="567.8636363636364" y="659.2272727272727" type="line"/>
      <point x="573.0454545454545" y="637.6818181818181"/>
      <point x="578.6818181818181" y="595.6818181818181"/>
      <point x="577.6818181818181" y="584.2727272727273" type="curve" smooth="yes"/>
      <point x="571.6818181818181" y="535.5454545454545" type="line"/>
      <point x="633.2272727272727" y="529.7727272727273" type="line"/>
      <point x="666.2727272727273" y="686.0" type="line"/>
      <point x="604.6818181818181" y="702.0"/>
      <point x="538.7727272727273" y="720.0"/>
      <point x="454.59090909090907" y="720.0" type="curve" smooth="yes"/>
      <point x="200.22727272727272" y="720.0"/>
      <point x="61.77272727272727" y="532.2272727272727"/>
      <point x="61.77272727272727" y="286.04545454545456" type="curve" smooth="yes"/>
      <point x="61.77272727272727" y="106.81818181818181"/>
      <point x="164.0" y="-15.0"/>
    </contour>
  </outline>
</glyph>
<glyph name="H" format="2">
  <advance width="770.65"/>
  <unicode hex="0048"/>
  <anchor x="348.59090909090907" y="0.0" name="bottom"/>
  <anchor x="421.1818181818182" y="520.0" name="center"/>
  <anchor x="449.59090909090907" y="720.0" name="top"/>
  <anchor x="95.22727272727273" y="705.0" name="topleft"/>
  <outline>
    <contour>
      <point x="421.09090909090907" y="-5.0" type="line"/>
      <point x="467.72727272727275" y="-3.0"/>
      <point x="533.7727272727273" y="0.0"/>
      <point x="560.4090909090909" y="0.0" type="curve" smooth="yes"/>
      <point x="687.3181818181819" y="0.0" type="line"/>
      <point x="701.7272727272727" y="58.31818181818182" type="line"/>
      <point x="579.5" y="69.54545454545455" type="line"/>
      <point x="622.9090909090909" y="31.90909090909091" type="line"/>
      <point x="621.3181818181819" y="60.22727272727273"/>
      <point x="625.2727272727273" y="130.8181818181818"/>
      <point x="631.5" y="173.5909090909091" type="curve" smooth="yes"/>
      <point x="684.2727272727273" y="539.2272727272727" type="line" smooth="yes"/>
      <point x="689.8636363636364" y="577.3636363636364"/>
      <point x="709.0909090909091" y="651.5"/>
      <point x="715.6818181818181" y="674.8636363636364" type="curve"/>
      <point x="663.2727272727273" y="634.8181818181819" type="line"/>
      <point x="779.1818181818181" y="645.6363636363636" type="line"/>
      <point x="784.5909090909091" y="710.0" type="line"/>
      <point x="737.5" y="708.0"/>
      <point x="680.8181818181819" y="705.0"/>
      <point x="643.3181818181819" y="705.0" type="curve" smooth="yes"/>
      <point x="624.9090909090909" y="705.0"/>
      <point x="565.5" y="708.0"/>
      <point x="527.0909090909091" y="710.0" type="curve"/>
      <point x="512.8636363636364" y="650.6363636363636" type="line"/>
      <point x="625.7727272727273" y="631.0" type="line"/>
      <point x="582.7727272727273" y="674.8636363636364" type="line"/>
      <point x="583.3636363636364" y="650.6363636363636"/>
      <point x="583.1818181818181" y="583.2727272727273"/>
      <point x="579.1363636363636" y="553.1818181818181" type="curve" smooth="yes"/>
      <point x="518.8181818181819" y="143.5909090909091" type="line" smooth="yes"/>
      <point x="515.8181818181819" y="122.77272727272728"/>
      <point x="497.22727272727275" y="58.0"/>
      <point x="490.22727272727275" y="32.22727272727273" type="curve"/>
      <point x="542.4090909090909" y="73.54545454545455" type="line"/>
      <point x="424.3181818181818" y="50.54545454545455" type="line"/>
    </contour>
    <contour>
      <point x="9.409090909090908" y="-5.0" type="line"/>
      <point x="56.04545454545455" y="-3.0"/>
      <point x="121.68181818181819" y="0.0"/>
      <point x="148.3181818181818" y="0.0" type="curve" smooth="yes"/>
      <point x="275.6363636363636" y="0.0" type="line"/>
      <point x="289.6363636363636" y="58.31818181818182" type="line"/>
      <point x="167.8181818181818" y="69.54545454545455" type="line"/>
      <point x="210.8181818181818" y="31.90909090909091" type="line"/>
      <point x="209.63636363636363" y="59.0"/>
      <point x="213.5909090909091" y="130.0"/>
      <point x="219.8181818181818" y="173.5909090909091" type="curve" smooth="yes"/>
      <point x="272.5909090909091" y="539.2272727272727" type="line" smooth="yes"/>
      <point x="278.1818181818182" y="577.5454545454545"/>
      <point x="296.5909090909091" y="649.6363636363636"/>
      <point x="303.5909090909091" y="674.8636363636364" type="curve"/>
      <point x="251.1818181818182" y="634.8181818181819" type="line"/>
      <point x="367.5" y="645.6363636363636" type="line"/>
      <point x="372.90909090909093" y="710.0" type="line"/>
      <point x="325.8181818181818" y="708.0"/>
      <point x="268.72727272727275" y="705.0"/>
      <point x="231.63636363636363" y="705.0" type="curve" smooth="yes"/>
      <point x="213.22727272727272" y="705.0"/>
      <point x="153.8181818181818" y="708.0"/>
      <point x="115.0" y="710.0" type="curve"/>
      <point x="101.18181818181819" y="650.6363636363636" type="line"/>
      <point x="214.0909090909091" y="631.0" type="line"/>
      <point x="171.0909090909091" y="674.8636363636364" type="line"/>
      <point x="171.6818181818182" y="651.0454545454545"/>
      <point x="171.0909090909091" y="583.0454545454545"/>
      <point x="167.04545454545453" y="553.1818181818181" type="curve" smooth="yes"/>
      <point x="107.13636363636364" y="143.5909090909091" type="line" smooth="yes"/>
      <point x="103.72727272727273" y="121.72727272727273"/>
      <point x="85.54545454545455" y="58.81818181818182"/>
      <point x="78.54545454545455" y="32.22727272727273" type="curve"/>
      <point x="130.3181818181818" y="73.54545454545455" type="line"/>
      <point x="12.227272727272727" y="50.54545454545455" type="line"/>
    </contour>
    <contour>
      <point x="215.1818181818182" y="320.40909090909093" type="line"/>
      <point x="569.7727272727273" y="320.40909090909093" type="line"/>
      <point x="579.4090909090909" y="385.6818181818182" type="line"/>
      <point x="224.4090909090909" y="380.6818181818182" type="line"/>
    </contour>
  </outline>
</glyph>
<glyph name="I" format="2">
  <advance width="358.5"/>
  <unicode hex="0049"/>
  <anchor x="143.54545454545453" y="0.0" name="bottom"/>
  <anchor x="278.6363636363636" y="10.0" name="ogonek"/>
  <anchor x="244.54545454545453" y="720.0" name="top"/>
  <anchor x="95.22727272727273" y="705.0" name="topleft"/>
  <outline>
    <contour>
      <point x="9.409090909090908" y="-5.0" type="line"/>
      <point x="56.04545454545455" y="-3.0"/>
      <point x="121.68181818181819" y="0.0"/>
      <point x="148.3181818181818" y="0.0" type="curve" smooth="yes"/>
      <point x="275.6363636363636" y="0.0" type="line"/>
      <point x="289.6363636363636" y="58.31818181818182" type="line"/>
      <point x="167.8181818181818" y="69.54545454545455" type="line"/>
      <point x="210.8181818181818" y="31.90909090909091" type="line"/>
      <point x="209.63636363636363" y="59.0"/>
      <point x="213.5909090909091" y="130.0"/>
      <point x="219.8181818181818" y="173.5909090909091" type="curve" smooth="yes"/>
      <point x="272.5909090909091" y="539.2272727272727" type="line" smooth="yes"/>
      <point x="278.1818181818182" y="577.5454545454545"/>
      <point x="296.5909090909091" y="649.6363636363636"/>
      <point x="303.5909090909091" y="674.8636363636364" type="curve"/>
      <point x="251.1818181818182" y="634.8181818181819" type="line"/>
      <point x="367.5" y="645.6363636363636" type="line"/>
      <point x="372.90909090909093" y="710.0" type="line"/>
      <point x="325.8181818181818" y="708.0"/>
      <point x="268.72727272727275" y="705.0"/>
      <point x="231.63636363636363" y="705.0" type="curve" smooth="yes"/>
      <point x="213.22727272727272" y="705.0"/>
      <point x="153.8181818181818" y="708.0"/>
      <point x="115.0" y="710.0" type="curve"/>
      <point x="101.18181818181819" y="650.6363636363636" type="line"/>
      <point x="214.0909090909091" y="631.0" type="line"/>
      <point x="171.0909090909091" y="674.8636363636364" type="line"/>
      <point x="171.6818181818182" y="651.0454545454545"/>
      <point x="171.0909090909091" y="583.0454545454545"/>
      <point x="167.04545454545453" y="553.1818181818181" type="curve" smooth="yes"/>
      <point x="107.13636363636364" y="143.5909090909091" type="line" smooth="yes"/>
      <point x="103.72727272727273" y="121.72727272727273"/>
      <point x="85.54545454545455" y="58.81818181818182"/>
      <point x="78.54545454545455" y="32.22727272727273" type="curve"/>
      <point x="130.3181818181818" y="73.54545454545455" type="line"/>
      <point x="12.227272727272727" y="50.54545454545455" type="line"/>
    </contour>
  </outline>
</glyph>
<glyph name="J" format="2">
  <advance width="330.25"/>
  <unicode hex="004A"/>
  <anchor x="129.5909090909091" y="0.0" name="bottom"/>
  <anchor x="215.5909090909091" y="705.0" name="top"/>
  <outline>
    <contour>
      <point x="1.7272727272727275" y="-200.0" type="line"/>
      <point x="71.13636363636364" y="-135.54545454545453"/>
      <point x="170.63636363636363" y="-33.09090909090909"/>
      <point x="175.04545454545456" y="-5.045454545454545" type="curve" smooth="yes"/>
      <point x="254.22727272727272" y="539.2272727272727" type="line" smooth="yes"/>
      <point x="259.8181818181818" y="577.5454545454545"/>
      <point x="278.22727272727275" y="649.6363636363636"/>
      <point x="285.22727272727275" y="674.8636363636364" type="curve"/>
      <point x="232.8181818181818" y="634.8181818181819" type="line"/>
      <point x="349.1363636363636" y="645.6363636363636" type="line"/>
      <point x="354.54545454545456" y="710.0" type="line"/>
      <point x="306.8636363636364" y="708.0"/>
      <point x="249.77272727272728" y="705.0"/>
      <point x="212.6818181818182" y="705.0" type="curve" smooth="yes"/>
      <point x="194.27272727272728" y="705.0"/>
      <point x="134.86363636363637" y="708.0"/>
      <point x="96.63636363636364" y="710.0" type="curve"/>
      <point x="82.81818181818181" y="650.6363636363636" type="line"/>
      <point x="195.72727272727272" y="631.0" type="line"/>
      <point x="152.72727272727272" y="674.8636363636364" type="line"/>
      <point x="153.3181818181818" y="652.5"/>
      <point x="153.13636363636363" y="583.6818181818181"/>
      <point x="148.0909090909091" y="553.1818181818181" type="curve" smooth="yes"/>
      <point x="69.54545454545455" y="11.0" type="line" smooth="yes"/>
      <point x="66.54545454545455" y="-9.0"/>
      <point x="-34.40909090909091" y="-175.72727272727272"/>
      <point x="-34.40909090909091" y="-175.72727272727272" type="curve"/>
    </contour>
  </outline>
</glyph>
<glyph name="K" format="2">
  <advance width="716.85"/>
  <unicode hex="004B"/>
  <anchor x="321.27272727272725" y="0.0" name="bottom"/>
  <anchor x="422.27272727272725" y="720.0" name="top"/>
  <outline>
    <contour>
      <point x="374.90909090909093" y="-5.0" type="line"/>
      <point x="421.54545454545456" y="-3.0"/>
      <point x="487.1818181818182" y="0.0"/>
      <point x="513.8181818181819" y="0.0" type="curve" smooth="yes"/>
      <point x="644.9090909090909" y="0.0" type="line"/>
      <point x="659.3181818181819" y="58.72727272727273" type="line"/>
      <point x="556.0909090909091" y="70.36363636363636" type="line"/>
      <point x="614.5454545454545" y="49.86363636363637" type="line"/>
      <point x="600.5909090909091" y="62.59090909090909"/>
      <point x="555.0454545454545" y="108.5909090909091"/>
      <point x="540.6363636363636" y="129.0" type="curve" smooth="yes"/>
      <point x="353.3181818181818" y="398.6363636363636" type="line"/>
      <point x="343.3636363636364" y="337.6363636363636" type="line"/>
      <point x="530.4090909090909" y="546.0" type="line" smooth="yes"/>
      <point x="548.2272727272727" y="565.6363636363636"/>
      <point x="617.7272727272727" y="629.7272727272727"/>
      <point x="647.5454545454545" y="652.5454545454545" type="curve"/>
      <point x="587.6363636363636" y="634.4090909090909" type="line"/>
      <point x="699.5" y="645.6363636363636" type="line"/>
      <point x="704.3181818181819" y="710.0" type="line"/>
      <point x="661.0909090909091" y="708.0"/>
      <point x="608.8636363636364" y="705.0"/>
      <point x="576.2272727272727" y="705.0" type="curve" smooth="yes"/>
      <point x="556.2272727272727" y="705.0"/>
      <point x="505.1363636363636" y="708.0"/>
      <point x="469.5" y="710.0" type="curve"/>
      <point x="455.27272727272725" y="650.6363636363636" type="line"/>
      <point x="542.5" y="631.6363636363636" type="line"/>
      <point x="520.9090909090909" y="670.6818181818181" type="line"/>
      <point x="497.04545454545456" y="633.7727272727273"/>
      <point x="469.22727272727275" y="591.8636363636364"/>
      <point x="456.0" y="577.0" type="curve" smooth="yes"/>
      <point x="253.36363636363637" y="353.0" type="line"/>
      <point x="380.6363636363636" y="164.0" type="line" smooth="yes"/>
      <point x="398.22727272727275" y="137.5909090909091"/>
      <point x="431.8181818181818" y="60.81818181818182"/>
      <point x="436.59090909090907" y="49.68181818181818" type="curve"/>
      <point x="473.1818181818182" y="72.13636363636364" type="line"/>
      <point x="377.72727272727275" y="50.54545454545455" type="line"/>
    </contour>
    <contour>
      <point x="9.409090909090908" y="-5.0" type="line"/>
      <point x="56.04545454545455" y="-3.0"/>
      <point x="121.68181818181819" y="0.0"/>
      <point x="148.3181818181818" y="0.0" type="curve" smooth="yes"/>
      <point x="275.6363636363636" y="0.0" type="line"/>
      <point x="289.6363636363636" y="58.31818181818182" type="line"/>
      <point x="167.8181818181818" y="69.54545454545455" type="line"/>
      <point x="210.8181818181818" y="31.90909090909091" type="line"/>
      <point x="209.63636363636363" y="59.0"/>
      <point x="213.5909090909091" y="130.0"/>
      <point x="219.8181818181818" y="173.5909090909091" type="curve" smooth="yes"/>
      <point x="272.5909090909091" y="539.2272727272727" type="line" smooth="yes"/>
      <point x="278.1818181818182" y="577.5454545454545"/>
      <point x="296.5909090909091" y="649.6363636363636"/>
      <point x="303.5909090909091" y="674.8636363636364" type="curve"/>
      <point x="251.1818181818182" y="634.8181818181819" type="line"/>
      <point x="367.5" y="645.6363636363636" type="line"/>
      <point x="372.90909090909093" y="710.0" type="line"/>
      <point x="325.8181818181818" y="708.0"/>
      <point x="268.72727272727275" y="705.0"/>
      <point x="231.63636363636363" y="705.0" type="curve" smooth="yes"/>
      <point x="213.22727272727272" y="705.0"/>
      <point x="153.8181818181818" y="708.0"/>
      <point x="115.0" y="710.0" type="curve"/>
      <point x="101.18181818181819" y="650.6363636363636" type="line"/>
      <point x="214.0909090909091" y="631.0" type="line"/>
      <point x="171.0909090909091" y="674.8636363636364" type="line"/>
      <point x="171.6818181818182" y="651.0454545454545"/>
      <point x="171.0909090909091" y="583.0454545454545"/>
      <point x="167.04545454545453" y="553.1818181818181" type="curve" smooth="yes"/>
      <point x="107.13636363636364" y="143.5909090909091" type="line" smooth="yes"/>
      <point x="103.72727272727273" y="121.72727272727273"/>
      <point x="85.54545454545455" y="58.81818181818182"/>
      <point x="78.54545454545455" y="32.22727272727273" type="curve"/>
      <point x="130.3181818181818" y="73.54545454545455" type="line"/>
      <point x="12.227272727272727" y="50.54545454545455" type="line"/>
    </contour>
  </outline>
</glyph>
<glyph name="L" format="2">
  <advance width="552.6999999999999"/>
  <unicode hex="004C"/>
  <anchor x="257.8636363636364" y="0.0" name="bottom"/>
  <anchor x="195.77272727272728" y="355.0" name="center"/>
  <anchor x="552.1363636363636" y="423.0" name="centerright"/>
  <anchor x="292.22727272727275" y="720.0" name="top"/>
  <anchor x="476.8636363636364" y="494.0" name="topright"/>
  <outline>
    <contour>
      <point x="9.409090909090908" y="-5.0" type="line"/>
      <point x="56.04545454545455" y="-3.0"/>
      <point x="96.5" y="0.0"/>
      <point x="123.13636363636364" y="0.0" type="curve" smooth="yes"/>
      <point x="337.22727272727275" y="0.0" type="line" smooth="yes"/>
      <point x="363.40909090909093" y="0.0"/>
      <point x="410.22727272727275" y="-2.0"/>
      <point x="447.22727272727275" y="-4.0" type="curve"/>
      <point x="468.22727272727275" y="14.0" type="line"/>
      <point x="506.04545454545456" y="171.5909090909091" type="line"/>
      <point x="449.1363636363636" y="176.5909090909091" type="line"/>
      <point x="442.90909090909093" y="156.6818181818182"/>
      <point x="432.59090909090907" y="128.9090909090909"/>
      <point x="425.1818181818182" y="111.86363636363636" type="curve" smooth="yes"/>
      <point x="418.3636363636364" y="96.4090909090909"/>
      <point x="397.77272727272725" y="68.36363636363636"/>
      <point x="376.8181818181818" y="44.0" type="curve"/>
      <point x="418.27272727272725" y="77.63636363636364" type="line"/>
      <point x="400.6818181818182" y="73.63636363636364"/>
      <point x="356.90909090909093" y="65.22727272727273"/>
      <point x="317.27272727272725" y="65.22727272727273" type="curve" smooth="yes"/>
      <point x="160.8181818181818" y="65.22727272727273" type="line"/>
      <point x="210.8181818181818" y="31.90909090909091" type="line"/>
      <point x="209.63636363636363" y="59.0"/>
      <point x="213.5909090909091" y="130.0"/>
      <point x="219.8181818181818" y="173.5909090909091" type="curve" smooth="yes"/>
      <point x="272.5909090909091" y="539.2272727272727" type="line" smooth="yes"/>
      <point x="278.1818181818182" y="577.5454545454545"/>
      <point x="296.5909090909091" y="649.6363636363636"/>
      <point x="303.5909090909091" y="674.8636363636364" type="curve"/>
      <point x="251.1818181818182" y="634.8181818181819" type="line"/>
      <point x="367.5" y="645.6363636363636" type="line"/>
      <point x="372.90909090909093" y="710.0" type="line"/>
      <point x="325.8181818181818" y="708.0"/>
      <point x="268.72727272727275" y="705.0"/>
      <point x="231.63636363636363" y="705.0" type="curve" smooth="yes"/>
      <point x="213.22727272727272" y="705.0"/>
      <point x="153.8181818181818" y="708.0"/>
      <point x="115.0" y="710.0" type="curve"/>
      <point x="101.18181818181819" y="650.6363636363636" type="line"/>
      <point x="214.0909090909091" y="631.0" type="line"/>
      <point x="171.0909090909091" y="674.8636363636364" type="line"/>
      <point x="171.6818181818182" y="651.0454545454545"/>
      <point x="171.6818181818182" y="583.0454545454545"/>
      <point x="167.04545454545453" y="553.1818181818181" type="curve" smooth="yes"/>
      <point x="107.13636363636364" y="143.5909090909091" type="line" smooth="yes"/>
      <point x="103.72727272727273" y="121.72727272727273"/>
      <point x="85.54545454545455" y="58.81818181818182"/>
      <point x="78.54545454545455" y="32.22727272727273" type="curve"/>
      <point x="130.3181818181818" y="73.54545454545455" type="line"/>
      <point x="12.227272727272727" y="50.54545454545455" type="line"/>
    </contour>
  </outline>
</glyph>
<glyph name="M" format="2">
  <advance width="925.25"/>
  <unicode hex="004D"/>
  <anchor x="434.13854545454546" y="0.0" name="bottom"/>
  <anchor x="520.3688636363636" y="705.0" name="top"/>
  <outline>
    <contour>
      <point x="4.409090909090909" y="-5.0" type="line"/>
      <point x="47.77272727272727" y="-3.0"/>
      <point x="110.9090909090909" y="0.0"/>
      <point x="137.13636363636363" y="0.0" type="curve" smooth="yes"/>
      <point x="238.3181818181818" y="0.0" type="line"/>
      <point x="252.3181818181818" y="58.31818181818182" type="line"/>
      <point x="133.27272727272728" y="69.54545454545455" type="line"/>
      <point x="179.63636363636363" y="31.90909090909091" type="line"/>
      <point x="179.04545454545456" y="60.22727272727273"/>
      <point x="184.5909090909091" y="138.72727272727272"/>
      <point x="190.8181818181818" y="174.0" type="curve" smooth="yes"/>
      <point x="277.3181818181818" y="609.5" type="line"/>
      <point x="259.8636363636364" y="609.5" type="line"/>
      <point x="387.04545454545456" y="0.0" type="line"/>
      <point x="438.27272727272725" y="0.0" type="line"/>
      <point x="742.2272727272727" y="606.0909090909091" type="line"/>
      <point x="726.7727272727273" y="609.9090909090909" type="line"/>
      <point x="685.1363636363636" y="144.0" type="line" smooth="yes"/>
      <point x="683.1363636363636" y="121.5909090909091"/>
      <point x="666.1363636363636" y="58.40909090909091"/>
      <point x="659.1363636363636" y="32.22727272727273" type="curve"/>
      <point x="708.6363636363636" y="73.54545454545455" type="line"/>
      <point x="592.8181818181819" y="50.54545454545455" type="line"/>
      <point x="590.0" y="-5.0" type="line"/>
      <point x="636.2272727272727" y="-3.0"/>
      <point x="700.4090909090909" y="0.0"/>
      <point x="726.6363636363636" y="0.0" type="curve" smooth="yes"/>
      <point x="853.5454545454545" y="0.0" type="line"/>
      <point x="867.3636363636364" y="58.31818181818182" type="line"/>
      <point x="746.1363636363636" y="69.54545454545455" type="line"/>
      <point x="796.6818181818181" y="31.90909090909091" type="line"/>
      <point x="794.6818181818181" y="60.22727272727273"/>
      <point x="789.0909090909091" y="133.3181818181818"/>
      <point x="792.0909090909091" y="173.0" type="curve" smooth="yes"/>
      <point x="818.6818181818181" y="539.2272727272727" type="line" smooth="yes"/>
      <point x="821.6818181818181" y="579.1363636363636"/>
      <point x="838.2727272727273" y="654.8181818181819"/>
      <point x="844.3181818181819" y="677.9090909090909" type="curve"/>
      <point x="791.6818181818181" y="634.8181818181819" type="line"/>
      <point x="907.5909090909091" y="645.6363636363636" type="line"/>
      <point x="913.4090909090909" y="710.0" type="line"/>
      <point x="861.7727272727273" y="708.0"/>
      <point x="792.1363636363636" y="705.0"/>
      <point x="760.5" y="705.0" type="curve" smooth="yes"/>
      <point x="722.0" y="705.0" type="line"/>
      <point x="700.0" y="685.0" type="line"/>
      <point x="630.9090909090909" y="540.0909090909091" type="line"/>
      <point x="436.22727272727275" y="147.77272727272728" type="line"/>
      <point x="463.72727272727275" y="144.54545454545453" type="line"/>
      <point x="385.5" y="530.6363636363636" type="line"/>
      <point x="359.3636363636364" y="685.0" type="line"/>
      <point x="344.3636363636364" y="705.0" type="line"/>
      <point x="260.3181818181818" y="705.0" type="line" smooth="yes"/>
      <point x="240.9090909090909" y="705.0"/>
      <point x="182.5" y="708.0"/>
      <point x="143.0909090909091" y="710.0" type="curve"/>
      <point x="129.27272727272728" y="650.6363636363636" type="line"/>
      <point x="241.77272727272728" y="631.0" type="line"/>
      <point x="200.54545454545453" y="670.8181818181819" type="line"/>
      <point x="200.54545454545453" y="655.1818181818181"/>
      <point x="199.04545454545453" y="585.7272727272727"/>
      <point x="191.77272727272728" y="553.1818181818181" type="curve" smooth="yes"/>
      <point x="107.0909090909091" y="144.0" type="line" smooth="yes"/>
      <point x="103.0909090909091" y="123.54545454545455"/>
      <point x="78.77272727272727" y="58.81818181818182"/>
      <point x="69.0" y="32.22727272727273" type="curve"/>
      <point x="125.31818181818181" y="73.54545454545455" type="line"/>
      <point x="7.2272727272727275" y="50.54545454545455" type="line"/>
    </contour>
  </outline>
</glyph>
<glyph name="N" format="2">
  <advance width="773.75"/>
  <unicode hex="004E"/>
  <anchor x="347.54545454545456" y="0.0" name="bottom"/>
  <anchor x="448.54545454545456" y="720.0" name="top"/>
  <outline>
    <contour>
      <point x="9.409090909090908" y="-5.0" type="line"/>
      <point x="52.77272727272727" y="-3.0"/>
      <point x="113.72727272727273" y="0.0"/>
      <point x="139.77272727272728" y="0.0" type="curve" smooth="yes"/>
      <point x="245.04545454545456" y="0.0" type="line"/>
      <point x="258.8636363636364" y="58.31818181818182" type="line"/>
      <point x="140.4090909090909" y="69.54545454545455" type="line"/>
      <point x="184.5909090909091" y="31.90909090909091" type="line"/>
      <point x="185.1818181818182" y="67.13636363636364"/>
      <point x="190.36363636363637" y="139.6818181818182"/>
      <point x="195.1818181818182" y="173.5909090909091" type="curve" smooth="yes"/>
      <point x="252.27272727272728" y="571.0" type="line"/>
      <point x="226.54545454545453" y="566.1818181818181" type="line"/>
      <point x="526.6818181818181" y="0.0" type="line"/>
      <point x="612.0" y="0.0" type="line"/>
      <point x="691.5909090909091" y="539.2272727272727" type="line" smooth="yes"/>
      <point x="696.5909090909091" y="573.4090909090909"/>
      <point x="719.9090909090909" y="641.7727272727273"/>
      <point x="729.5454545454545" y="664.7272727272727" type="curve"/>
      <point x="676.3181818181819" y="634.8181818181819" type="line"/>
      <point x="792.6363636363636" y="645.6363636363636" type="line"/>
      <point x="798.0454545454545" y="710.0" type="line"/>
      <point x="762.1818181818181" y="708.0"/>
      <point x="696.8181818181819" y="705.0"/>
      <point x="665.4090909090909" y="705.0" type="curve" smooth="yes"/>
      <point x="650.2272727272727" y="705.0"/>
      <point x="593.8181818181819" y="708.0"/>
      <point x="558.2272727272727" y="710.0" type="curve"/>
      <point x="544.4090909090909" y="650.6363636363636" type="line"/>
      <point x="657.3181818181819" y="631.0" type="line"/>
      <point x="614.3181818181819" y="674.1818181818181" type="line"/>
      <point x="614.9090909090909" y="649.5"/>
      <point x="615.7272727272727" y="586.1363636363636"/>
      <point x="610.6818181818181" y="553.1818181818181" type="curve" smooth="yes"/>
      <point x="549.5909090909091" y="137.9090909090909" type="line"/>
      <point x="576.3181818181819" y="142.72727272727272" type="line"/>
      <point x="365.27272727272725" y="532.0454545454545" type="line"/>
      <point x="296.72727272727275" y="685.0" type="line"/>
      <point x="280.72727272727275" y="705.0" type="line"/>
      <point x="232.22727272727272" y="705.0" type="line" smooth="yes"/>
      <point x="213.22727272727272" y="705.0"/>
      <point x="154.0" y="708.0"/>
      <point x="115.0" y="710.0" type="curve"/>
      <point x="100.77272727272727" y="650.6363636363636" type="line"/>
      <point x="213.6818181818182" y="631.0" type="line"/>
      <point x="170.6818181818182" y="675.5" type="line"/>
      <point x="170.6818181818182" y="659.2727272727273"/>
      <point x="172.0909090909091" y="586.5454545454545"/>
      <point x="167.63636363636363" y="553.1818181818181" type="curve" smooth="yes"/>
      <point x="107.72727272727273" y="144.0" type="line" smooth="yes"/>
      <point x="104.72727272727273" y="124.5909090909091"/>
      <point x="83.18181818181819" y="52.90909090909091"/>
      <point x="78.54545454545455" y="34.40909090909091" type="curve"/>
      <point x="128.54545454545453" y="73.54545454545455" type="line"/>
      <point x="12.227272727272727" y="50.54545454545455" type="line"/>
    </contour>
  </outline>
</glyph>
<glyph name="O" format="2">
  <advance width="764.9"/>
  <unicode hex="004F"/>
  <anchor x="344.77272727272725" y="0.0" name="bottom"/>
  <anchor x="394.77272727272725" y="353.0" name="center"/>
  <anchor x="478.90909090909093" y="0.0" name="ogonek"/>
  <anchor x="445.77272727272725" y="720.0" name="top"/>
  <anchor x="86.27272727272727" y="705.0" name="topleft"/>
  <anchor x="624.2727272727273" y="620.0" name="topright"/>
  <outline>
    <contour>
      <point x="343.77272727272725" y="-15.0" type="curve" smooth="yes"/>
      <point x="586.3181818181819" y="-15.0"/>
      <point x="728.1818181818181" y="170.5"/>
      <point x="728.1818181818181" y="418.1363636363636" type="curve" smooth="yes"/>
      <point x="728.1818181818181" y="598.0"/>
      <point x="629.4090909090909" y="720.0"/>
      <point x="445.77272727272725" y="720.0" type="curve" smooth="yes"/>
      <point x="203.8181818181818" y="720.0"/>
      <point x="61.36363636363637" y="534.5"/>
      <point x="61.36363636363637" y="285.8636363636364" type="curve" smooth="yes"/>
      <point x="61.36363636363637" y="107.0"/>
      <point x="160.72727272727272" y="-15.0"/>
    </contour>
    <contour>
      <point x="350.8181818181818" y="49.72727272727273" type="curve" smooth="yes"/>
      <point x="238.8181818181818" y="49.72727272727273"/>
      <point x="187.0909090909091" y="145.4090909090909"/>
      <point x="187.0909090909091" y="279.90909090909093" type="curve" smooth="yes"/>
      <point x="187.0909090909091" y="480.1818181818182"/>
      <point x="272.04545454545456" y="655.2727272727273"/>
      <point x="439.72727272727275" y="655.2727272727273" type="curve" smooth="yes"/>
      <point x="551.3181818181819" y="655.2727272727273"/>
      <point x="603.0454545454545" y="559.5909090909091"/>
      <point x="603.0454545454545" y="424.09090909090907" type="curve" smooth="yes"/>
      <point x="603.0454545454545" y="223.8181818181818"/>
      <point x="517.0909090909091" y="49.72727272727273"/>
    </contour>
  </outline>
</glyph>
<glyph name="P" format="2">
  <advance width="600.85"/>
  <unicode hex="0050"/>
  <anchor x="268.22945454545453" y="0.0" name="bottom"/>
  <anchor x="355.05068181818183" y="705.0" name="top"/>
  <outline>
    <contour>
      <point x="9.409090909090908" y="-5.0" type="line"/>
      <point x="56.04545454545455" y="-3.0"/>
      <point x="121.68181818181819" y="0.0"/>
      <point x="148.3181818181818" y="0.0" type="curve" smooth="yes"/>
      <point x="285.6363636363636" y="0.0" type="line"/>
      <point x="299.6363636363636" y="58.31818181818182" type="line"/>
      <point x="167.8181818181818" y="69.54545454545455" type="line"/>
      <point x="210.8181818181818" y="31.90909090909091" type="line"/>
      <point x="209.63636363636363" y="59.0"/>
      <point x="213.5909090909091" y="130.0"/>
      <point x="219.8181818181818" y="173.5909090909091" type="curve" smooth="yes"/>
      <point x="272.5909090909091" y="539.2272727272727" type="line" smooth="yes"/>
      <point x="278.1818181818182" y="577.1363636363636"/>
      <point x="295.3636363636364" y="649.6363636363636"/>
      <point x="302.3636363636364" y="674.8636363636364" type="curve"/>
      <point x="242.36363636363637" y="645.1818181818181" type="line" smooth="yes"/>
      <point x="281.77272727272725" y="648.1818181818181"/>
      <point x="328.3181818181818" y="651.3636363636364"/>
      <point x="345.6818181818182" y="651.3636363636364" type="curve" smooth="yes"/>
      <point x="431.1818181818182" y="651.3636363636364"/>
      <point x="480.22727272727275" y="609.0454545454545"/>
      <point x="480.22727272727275" y="528.3636363636364" type="curve" smooth="yes"/>
      <point x="480.22727272727275" y="407.04545454545456"/>
      <point x="404.90909090909093" y="343.04545454545456"/>
      <point x="295.22727272727275" y="343.04545454545456" type="curve" smooth="yes"/>
      <point x="255.86363636363637" y="343.04545454545456"/>
      <point x="202.27272727272728" y="347.77272727272725"/>
      <point x="165.54545454545453" y="351.3181818181818" type="curve"/>
      <point x="156.3181818181818" y="288.1818181818182" type="line"/>
      <point x="210.5" y="286.0"/>
      <point x="264.27272727272725" y="284.40909090909093"/>
      <point x="319.04545454545456" y="284.40909090909093" type="curve" smooth="yes"/>
      <point x="463.5" y="284.40909090909093"/>
      <point x="592.7272727272727" y="373.27272727272725"/>
      <point x="592.7272727272727" y="535.0909090909091" type="curve" smooth="yes"/>
      <point x="592.7272727272727" y="649.1363636363636"/>
      <point x="512.1363636363636" y="710.0"/>
      <point x="392.90909090909093" y="710.0" type="curve" smooth="yes"/>
      <point x="350.6363636363636" y="710.0"/>
      <point x="274.3181818181818" y="705.0"/>
      <point x="231.63636363636363" y="705.0" type="curve" smooth="yes"/>
      <point x="213.22727272727272" y="705.0"/>
      <point x="153.8181818181818" y="708.0"/>
      <point x="115.0" y="710.0" type="curve"/>
      <point x="101.18181818181819" y="650.6363636363636" type="line"/>
      <point x="214.0909090909091" y="631.0" type="line"/>
      <point x="171.0909090909091" y="674.8636363636364" type="line"/>
      <point x="171.6818181818182" y="651.0454545454545"/>
      <point x="171.0909090909091" y="583.0454545454545"/>
      <point x="167.04545454545453" y="553.1818181818181" type="curve" smooth="yes"/>
      <point x="107.13636363636364" y="143.5909090909091" type="line" smooth="yes"/>
      <point x="103.72727272727273" y="121.72727272727273"/>
      <point x="85.54545454545455" y="58.81818181818182"/>
      <point x="78.54545454545455" y="32.22727272727273" type="curve"/>
      <point x="130.3181818181818" y="73.54545454545455" type="line"/>
      <point x="12.227272727272727" y="50.54545454545455" type="line"/>
    </contour>
  </outline>
</glyph>
<glyph name="Q" format="2">
  <advance width="765.5500000000001"/>
  <unicode hex="0051"/>
  <anchor x="350.3636363636364" y="0.0" name="bottom"/>
  <anchor x="436.3636363636364" y="705.0" name="top"/>
  <outline>
    <contour>
      <point x="343.77272727272725" y="-15.0" type="curve" smooth="yes"/>
      <point x="586.3181818181819" y="-15.0"/>
      <point x="728.1818181818181" y="170.5"/>
      <point x="728.1818181818181" y="418.1363636363636" type="curve" smooth="yes"/>
      <point x="728.1818181818181" y="598.0"/>
      <point x="629.4090909090909" y="720.0"/>
      <point x="445.77272727272725" y="720.0" type="curve" smooth="yes"/>
      <point x="203.8181818181818" y="720.0"/>
      <point x="61.36363636363637" y="534.5"/>
      <point x="61.36363636363637" y="285.8636363636364" type="curve" smooth="yes"/>
      <point x="61.36363636363637" y="107.0"/>
      <point x="160.72727272727272" y="-15.0"/>
    </contour>
    <contour>
      <point x="603.1818181818181" y="-224.0" type="line"/>
      <point x="684.6363636363636" y="-123.36363636363636" type="line"/>
      <point x="636.6363636363636" y="-100.77272727272727"/>
      <point x="555.2272727272727" y="-63.77272727272727"/>
      <point x="541.6363636363636" y="-52.59090909090909" type="curve" smooth="yes"/>
      <point x="468.0909090909091" y="6.363636363636364" type="line"/>
      <point x="370.3181818181818" y="-11.136363636363637" type="line"/>
    </contour>
    <contour>
      <point x="350.8181818181818" y="49.72727272727273" type="curve" smooth="yes"/>
      <point x="238.8181818181818" y="49.72727272727273"/>
      <point x="187.0909090909091" y="145.4090909090909"/>
      <point x="187.0909090909091" y="279.90909090909093" type="curve" smooth="yes"/>
      <point x="187.0909090909091" y="480.1818181818182"/>
      <point x="272.04545454545456" y="655.2727272727273"/>
      <point x="439.72727272727275" y="655.2727272727273" type="curve" smooth="yes"/>
      <point x="551.3181818181819" y="655.2727272727273"/>
      <point x="603.0454545454545" y="559.5909090909091"/>
      <point x="603.0454545454545" y="424.09090909090907" type="curve" smooth="yes"/>
      <point x="603.0454545454545" y="223.8181818181818"/>
      <point x="517.0909090909091" y="49.72727272727273"/>
    </contour>
  </outline>
</glyph>
<glyph name="R" format="2">
  <advance width="654.8000000000001"/>
  <unicode hex="0052"/>
  <anchor x="311.54545454545456" y="0.0" name="bottom"/>
  <anchor x="351.3181818181818" y="720.0" name="top"/>
  <outline>
    <contour>
      <point x="9.409090909090908" y="-5.0" type="line"/>
      <point x="56.04545454545455" y="-3.0"/>
      <point x="121.68181818181819" y="0.0"/>
      <point x="148.3181818181818" y="0.0" type="curve" smooth="yes"/>
      <point x="275.6363636363636" y="0.0" type="line"/>
      <point x="289.6363636363636" y="58.31818181818182" type="line"/>
      <point x="167.8181818181818" y="69.54545454545455" type="line"/>
      <point x="210.8181818181818" y="31.90909090909091" type="line"/>
      <point x="209.63636363636363" y="59.0"/>
      <point x="213.5909090909091" y="130.0"/>
      <point x="219.8181818181818" y="173.5909090909091" type="curve" smooth="yes"/>
      <point x="272.5909090909091" y="539.2272727272727" type="line" smooth="yes"/>
      <point x="278.1818181818182" y="577.5454545454545"/>
      <point x="296.5909090909091" y="649.6363636363636"/>
      <point x="303.5909090909091" y="674.8636363636364" type="curve"/>
      <point x="235.04545454545453" y="645.1363636363636" type="line"/>
      <point x="267.3181818181818" y="647.1363636363636"/>
      <point x="327.04545454545456" y="651.3636363636364"/>
      <point x="346.09090909090907" y="651.3636363636364" type="curve" smooth="yes"/>
      <point x="431.59090909090907" y="651.3636363636364"/>
      <point x="482.27272727272725" y="609.8636363636364"/>
      <point x="482.27272727272725" y="532.3636363636364" type="curve" smooth="yes"/>
      <point x="482.27272727272725" y="418.1363636363636"/>
      <point x="422.27272727272725" y="353.6818181818182"/>
      <point x="307.6363636363636" y="353.6818181818182" type="curve" smooth="yes"/>
      <point x="261.3181818181818" y="353.6818181818182"/>
      <point x="214.36363636363637" y="358.8181818181818"/>
      <point x="163.5" y="363.1818181818182" type="curve"/>
      <point x="157.54545454545453" y="300.8636363636364" type="line"/>
      <point x="210.9090909090909" y="299.04545454545456"/>
      <point x="270.40909090909093" y="294.8181818181818"/>
      <point x="318.8181818181818" y="294.8181818181818" type="curve" smooth="yes"/>
      <point x="463.90909090909093" y="294.8181818181818"/>
      <point x="594.3636363636364" y="384.72727272727275"/>
      <point x="594.3636363636364" y="541.3181818181819" type="curve" smooth="yes"/>
      <point x="594.3636363636364" y="650.1363636363636"/>
      <point x="513.3636363636364" y="710.0"/>
      <point x="393.72727272727275" y="710.0" type="curve" smooth="yes"/>
      <point x="351.04545454545456" y="710.0"/>
      <point x="274.3181818181818" y="705.0"/>
      <point x="231.63636363636363" y="705.0" type="curve" smooth="yes"/>
      <point x="213.22727272727272" y="705.0"/>
      <point x="153.8181818181818" y="708.0"/>
      <point x="115.0" y="710.0" type="curve"/>
      <point x="101.18181818181819" y="650.6363636363636" type="line"/>
      <point x="214.0909090909091" y="631.0" type="line"/>
      <point x="171.0909090909091" y="674.8636363636364" type="line"/>
      <point x="171.6818181818182" y="651.0454545454545"/>
      <point x="171.0909090909091" y="583.0454545454545"/>
      <point x="167.04545454545453" y="553.1818181818181" type="curve" smooth="yes"/>
      <point x="107.13636363636364" y="143.5909090909091" type="line" smooth="yes"/>
      <point x="103.72727272727273" y="121.72727272727273"/>
      <point x="85.54545454545455" y="58.81818181818182"/>
      <point x="78.54545454545455" y="32.22727272727273" type="curve"/>
      <point x="130.3181818181818" y="73.54545454545455" type="line"/>
      <point x="12.227272727272727" y="50.54545454545455" type="line"/>
    </contour>
    <contour>
      <point x="421.22727272727275" y="0.0" type="curve"/>
      <point x="586.5" y="0.0" type="line"/>
      <point x="600.5" y="58.72727272727273" type="line"/>
      <point x="493.8636363636364" y="68.9090909090909" type="line"/>
      <point x="549.1363636363636" y="43.36363636363637" type="line"/>
      <point x="539.3181818181819" y="60.59090909090909"/>
      <point x="511.72727272727275" y="112.22727272727273"/>
      <point x="503.54545454545456" y="130.1818181818182" type="curve" smooth="yes"/>
      <point x="498.72727272727275" y="141.8181818181818"/>
      <point x="454.04545454545456" y="244.1818181818182"/>
      <point x="415.3181818181818" y="349.0" type="curve"/>
      <point x="301.6818181818182" y="345.0" type="line"/>
      <point x="385.8636363636364" y="116.0" type="line" smooth="yes"/>
      <point x="398.6363636363636" y="82.63636363636364"/>
      <point x="409.8636363636364" y="39.90909090909091"/>
    </contour>
  </outline>
</glyph>
<glyph name="S" format="2">
  <advance width="563.4499999999999"/>
  <unicode hex="0053"/>
  <anchor x="241.63636363636363" y="0.0" name="bottom"/>
  <anchor x="353.6818181818182" y="720.0" name="top"/>
  <outline>
    <contour>
      <point x="241.13636363636363" y="-15.0" type="curve" smooth="yes"/>
      <point x="385.22727272727275" y="-15.0"/>
      <point x="507.09090909090907" y="64.54545454545455"/>
      <point x="507.09090909090907" y="213.5909090909091" type="curve" smooth="yes"/>
      <point x="507.09090909090907" y="407.59090909090907"/>
      <point x="219.27272727272728" y="407.90909090909093"/>
      <point x="219.27272727272728" y="540.3636363636364" type="curve" smooth="yes"/>
      <point x="219.27272727272728" y="613.1818181818181"/>
      <point x="275.54545454545456" y="655.3181818181819"/>
      <point x="341.72727272727275" y="655.3181818181819" type="curve" smooth="yes"/>
      <point x="395.1363636363636" y="655.3181818181819"/>
      <point x="430.3181818181818" y="641.3181818181819"/>
      <point x="472.09090909090907" y="616.2272727272727" type="curve"/>
      <point x="436.72727272727275" y="668.6818181818181" type="line"/>
      <point x="440.1818181818182" y="645.5454545454545"/>
      <point x="448.04545454545456" y="600.8181818181819"/>
      <point x="448.04545454545456" y="586.0454545454545" type="curve" smooth="yes"/>
      <point x="448.04545454545456" y="577.8636363636364"/>
      <point x="442.6363636363636" y="549.7272727272727"/>
      <point x="439.8181818181818" y="531.0454545454545" type="curve"/>
      <point x="503.40909090909093" y="524.8636363636364" type="line"/>
      <point x="541.0454545454545" y="686.7727272727273" type="line"/>
      <point x="479.40909090909093" y="704.4090909090909"/>
      <point x="405.1363636363636" y="720.0"/>
      <point x="341.3181818181818" y="720.0" type="curve" smooth="yes"/>
      <point x="204.8181818181818" y="720.0"/>
      <point x="98.36363636363636" y="640.9090909090909"/>
      <point x="98.36363636363636" y="507.04545454545456" type="curve" smooth="yes"/>
      <point x="98.36363636363636" y="318.1363636363636"/>
      <point x="382.8181818181818" y="320.6363636363636"/>
      <point x="382.8181818181818" y="182.36363636363637" type="curve" smooth="yes"/>
      <point x="382.8181818181818" y="102.31818181818181"/>
      <point x="324.8636363636364" y="54.68181818181819"/>
      <point x="245.6818181818182" y="54.68181818181819" type="curve" smooth="yes"/>
      <point x="187.0" y="54.68181818181819"/>
      <point x="139.0909090909091" y="76.77272727272728"/>
      <point x="114.04545454545455" y="90.0909090909091" type="curve"/>
      <point x="133.0909090909091" y="68.81818181818181" type="line"/>
      <point x="130.86363636363637" y="78.63636363636364"/>
      <point x="126.5909090909091" y="112.86363636363636"/>
      <point x="126.5909090909091" y="130.0" type="curve" smooth="yes"/>
      <point x="126.5909090909091" y="140.3181818181818"/>
      <point x="135.0" y="194.86363636363637"/>
      <point x="135.0" y="194.86363636363637" type="curve"/>
      <point x="66.68181818181819" y="200.86363636363637" type="line"/>
      <point x="28.227272727272727" y="36.36363636363637" type="line"/>
      <point x="90.81818181818181" y="1.8181818181818183"/>
      <point x="166.27272727272728" y="-15.0"/>
    </contour>
  </outline>
</glyph>
<glyph name="T" format="2">
  <advance width="647.35"/>
  <unicode hex="0054"/>
  <anchor x="283.90909090909093" y="0.0" name="bottom"/>
  <anchor x="333.90909090909093" y="353.0" name="center"/>
  <anchor x="391.40909090909093" y="720.0" name="top"/>
  <outline>
    <contour>
      <point x="140.36363636363637" y="-5.0" type="line"/>
      <point x="186.5909090909091" y="-3.0"/>
      <point x="263.6363636363636" y="0.0"/>
      <point x="289.27272727272725" y="0.0" type="curve" smooth="yes"/>
      <point x="426.1818181818182" y="0.0" type="line"/>
      <point x="440.59090909090907" y="58.31818181818182" type="line"/>
      <point x="308.77272727272725" y="69.54545454545455" type="line"/>
      <point x="351.77272727272725" y="31.90909090909091" type="line"/>
      <point x="350.1818181818182" y="60.22727272727273"/>
      <point x="355.54545454545456" y="131.63636363636363"/>
      <point x="360.77272727272725" y="173.5909090909091" type="curve" smooth="yes"/>
      <point x="414.1363636363636" y="539.2272727272727" type="line"/>
      <point x="420.1363636363636" y="580.2272727272727"/>
      <point x="438.3636363636364" y="651.5"/>
      <point x="445.1363636363636" y="674.8636363636364" type="curve"/>
      <point x="312.6363636363636" y="674.8636363636364" type="line"/>
      <point x="313.22727272727275" y="650.6363636363636"/>
      <point x="312.6363636363636" y="582.8636363636364"/>
      <point x="308.0" y="553.1818181818181" type="curve" smooth="yes"/>
      <point x="248.0909090909091" y="143.5909090909091" type="line" smooth="yes"/>
      <point x="244.6818181818182" y="122.13636363636364"/>
      <point x="226.0909090909091" y="58.0"/>
      <point x="219.5" y="32.22727272727273" type="curve"/>
      <point x="271.27272727272725" y="73.54545454545455" type="line"/>
      <point x="143.1818181818182" y="50.54545454545455" type="line"/>
    </contour>
    <contour>
      <point x="132.6818181818182" y="518.6818181818181" type="line"/>
      <point x="137.86363636363637" y="542.4090909090909"/>
      <point x="150.6818181818182" y="588.2727272727273"/>
      <point x="157.04545454545453" y="601.2272727272727" type="curve" smooth="yes"/>
      <point x="161.22727272727272" y="610.1818181818181"/>
      <point x="189.77272727272728" y="655.5"/>
      <point x="203.36363636363637" y="677.5909090909091" type="curve"/>
      <point x="137.27272727272728" y="636.0" type="line"/>
      <point x="163.13636363636363" y="638.0"/>
      <point x="223.0" y="642.4090909090909"/>
      <point x="257.59090909090907" y="642.4090909090909" type="curve" smooth="yes"/>
      <point x="491.0" y="642.4090909090909" type="line" smooth="yes"/>
      <point x="518.0454545454545" y="642.4090909090909"/>
      <point x="566.5909090909091" y="638.4090909090909"/>
      <point x="588.6818181818181" y="636.0" type="curve"/>
      <point x="552.5909090909091" y="673.8636363636364" type="line"/>
      <point x="566.3181818181819" y="652.1818181818181"/>
      <point x="580.3181818181819" y="609.0454545454545"/>
      <point x="580.7272727272727" y="600.8181818181819" type="curve" smooth="yes"/>
      <point x="581.1363636363636" y="587.0454545454545"/>
      <point x="580.9090909090909" y="542.4090909090909"/>
      <point x="580.3181818181819" y="518.6818181818181" type="curve"/>
      <point x="640.8181818181819" y="523.6818181818181" type="line"/>
      <point x="657.2272727272727" y="692.0" type="line"/>
      <point x="641.2272727272727" y="710.0" type="line"/>
      <point x="603.4090909090909" y="708.0"/>
      <point x="545.4090909090909" y="705.0"/>
      <point x="528.0" y="705.0" type="curve" smooth="yes"/>
      <point x="237.4090909090909" y="705.0" type="line" smooth="yes"/>
      <point x="220.4090909090909" y="705.0"/>
      <point x="163.5909090909091" y="708.0"/>
      <point x="126.5909090909091" y="710.0" type="curve"/>
      <point x="104.77272727272727" y="692.0" type="line"/>
      <point x="72.77272727272727" y="523.6818181818181" type="line"/>
    </contour>
  </outline>
</glyph>
<glyph name="U" format="2">
  <advance width="737.9"/>
  <unicode hex="0055"/>
  <anchor x="325.59090909090907" y="0.0" name="bottom"/>
  <anchor x="615.0" y="460.0" name="horn"/>
  <anchor x="439.40909090909093" y="0.0" name="ogonek"/>
  <anchor x="437.22727272727275" y="720.0" name="top"/>
  <anchor x="760.7272727272727" y="705.0" name="topright"/>
  <outline>
    <contour>
      <point x="322.1818181818182" y="-15.0" type="curve" smooth="yes"/>
      <point x="492.5" y="-15.0"/>
      <point x="595.6363636363636" y="94.18181818181819"/>
      <point x="621.0454545454545" y="266.8181818181818" type="curve" smooth="yes"/>
      <point x="661.0454545454545" y="539.2272727272727" type="line" smooth="yes"/>
      <point x="666.0454545454545" y="574.5909090909091"/>
      <point x="685.4090909090909" y="648.7727272727273"/>
      <point x="690.8636363636364" y="670.5" type="curve"/>
      <point x="640.2272727272727" y="634.8181818181819" type="line"/>
      <point x="756.7272727272727" y="645.6363636363636" type="line"/>
      <point x="761.3636363636364" y="710.0" type="line"/>
      <point x="717.2727272727273" y="708.0"/>
      <point x="657.8181818181819" y="705.0"/>
      <point x="629.5" y="705.0" type="curve" smooth="yes"/>
      <point x="611.0909090909091" y="705.0"/>
      <point x="557.0909090909091" y="708.0"/>
      <point x="521.0909090909091" y="710.0" type="curve"/>
      <point x="507.27272727272725" y="650.6363636363636" type="line"/>
      <point x="620.7727272727273" y="631.0" type="line"/>
      <point x="577.7727272727273" y="669.7727272727273" type="line"/>
      <point x="577.7727272727273" y="652.1818181818181"/>
      <point x="579.7727272727273" y="586.5454545454545"/>
      <point x="575.3181818181819" y="553.1818181818181" type="curve" smooth="yes"/>
      <point x="532.1818181818181" y="264.54545454545456" type="line" smooth="yes"/>
      <point x="514.4090909090909" y="145.54545454545453"/>
      <point x="453.40909090909093" y="62.18181818181819"/>
      <point x="341.72727272727275" y="62.18181818181819" type="curve" smooth="yes"/>
      <point x="252.63636363636363" y="62.18181818181819"/>
      <point x="207.86363636363637" y="124.0909090909091"/>
      <point x="207.86363636363637" y="214.72727272727272" type="curve" smooth="yes"/>
      <point x="208.45454545454547" y="244.63636363636363"/>
      <point x="213.04545454545456" y="272.54545454545456"/>
      <point x="252.27272727272728" y="539.2272727272727" type="curve" smooth="yes"/>
      <point x="257.27272727272725" y="575.0"/>
      <point x="276.8636363636364" y="649.4090909090909"/>
      <point x="282.0909090909091" y="671.5" type="curve"/>
      <point x="230.86363636363637" y="634.8181818181819" type="line"/>
      <point x="346.77272727272725" y="645.6363636363636" type="line"/>
      <point x="352.5909090909091" y="710.0" type="line"/>
      <point x="305.09090909090907" y="708.0"/>
      <point x="238.4090909090909" y="705.0"/>
      <point x="210.0909090909091" y="705.0" type="curve" smooth="yes"/>
      <point x="192.0909090909091" y="705.0"/>
      <point x="132.04545454545453" y="708.0"/>
      <point x="93.22727272727273" y="710.0" type="curve"/>
      <point x="79.4090909090909" y="650.6363636363636" type="line"/>
      <point x="192.3181818181818" y="631.0" type="line"/>
      <point x="149.3181818181818" y="670.5" type="line"/>
      <point x="149.3181818181818" y="658.2727272727273"/>
      <point x="149.72727272727272" y="586.5454545454545"/>
      <point x="144.6818181818182" y="553.1818181818181" type="curve" smooth="yes"/>
      <point x="103.54545454545455" y="273.54545454545456"/>
      <point x="97.36363636363636" y="243.0"/>
      <point x="97.77272727272727" y="205.04545454545453" type="curve" smooth="yes"/>
      <point x="97.77272727272727" y="71.81818181818181"/>
      <point x="171.4090909090909" y="-15.0"/>
    </contour>
  </outline>
</glyph>
<glyph name="V" format="2">
  <advance width="670.15"/>
  <unicode hex="0056"/>
  <anchor x="291.09090909090907" y="0.0" name="bottom"/>
  <anchor x="392.09090909090907" y="720.0" name="top"/>
  <outline>
    <contour>
      <point x="263.8636363636364" y="0.0" type="line"/>
      <point x="339.8636363636364" y="0.0" type="line"/>
      <point x="601.7727272727273" y="539.2272727272727" type="line" smooth="yes"/>
      <point x="620.0" y="576.2727272727273"/>
      <point x="666.7727272727273" y="647.3181818181819"/>
      <point x="679.7272727272727" y="662.5" type="curve"/>
      <point x="619.5" y="632.4090909090909" type="line"/>
      <point x="687.6818181818181" y="645.6363636363636" type="line"/>
      <point x="693.5" y="710.0" type="line"/>
      <point x="652.4090909090909" y="708.0"/>
      <point x="607.6363636363636" y="705.0"/>
      <point x="586.3636363636364" y="705.0" type="curve" smooth="yes"/>
      <point x="570.1818181818181" y="705.0"/>
      <point x="497.09090909090907" y="708.0"/>
      <point x="460.90909090909093" y="710.0" type="curve"/>
      <point x="446.09090909090907" y="650.0454545454545" type="line"/>
      <point x="592.6818181818181" y="630.5909090909091" type="line"/>
      <point x="558.1363636363636" y="662.3636363636364" type="line"/>
      <point x="553.3181818181819" y="644.9090909090909"/>
      <point x="530.3636363636364" y="576.6363636363636"/>
      <point x="520.1363636363636" y="553.5909090909091" type="curve" smooth="yes"/>
      <point x="315.90909090909093" y="123.86363636363636" type="line"/>
      <point x="343.0" y="121.04545454545455" type="line"/>
      <point x="257.6363636363636" y="539.8181818181819" type="line" smooth="yes"/>
      <point x="250.27272727272728" y="572.5454545454545"/>
      <point x="246.0909090909091" y="651.0909090909091"/>
      <point x="245.5" y="675.9090909090909" type="curve"/>
      <point x="204.0909090909091" y="634.8181818181819" type="line"/>
      <point x="346.0" y="645.6363636363636" type="line"/>
      <point x="350.8181818181818" y="710.0" type="line"/>
      <point x="302.1363636363636" y="708.0"/>
      <point x="215.77272727272728" y="705.0"/>
      <point x="186.6818181818182" y="705.0" type="curve" smooth="yes"/>
      <point x="168.86363636363637" y="705.0"/>
      <point x="130.8181818181818" y="708.0"/>
      <point x="92.5909090909091" y="710.0" type="curve"/>
      <point x="78.77272727272727" y="650.6363636363636" type="line"/>
      <point x="155.04545454545456" y="631.5909090909091" type="line"/>
      <point x="103.0909090909091" y="666.1818181818181" type="line"/>
      <point x="109.27272727272727" y="647.5909090909091"/>
      <point x="133.8181818181818" y="577.7272727272727"/>
      <point x="139.04545454545453" y="553.1818181818181" type="curve" smooth="yes"/>
    </contour>
  </outline>
</glyph>
<glyph name="W" format="2">
  <advance width="990.65"/>
  <unicode hex="0057"/>
  <anchor x="458.0" y="0.0" name="bottom"/>
  <anchor x="544.0" y="705.0" name="top"/>
  <outline>
    <contour>
      <point x="238.5909090909091" y="0.0" type="line"/>
      <point x="315.0" y="0.0" type="line"/>
      <point x="542.0454545454545" y="523.7727272727273" type="line"/>
      <point x="518.1363636363636" y="526.7727272727273" type="line"/>
      <point x="606.7727272727273" y="0.0" type="line"/>
      <point x="682.7727272727273" y="0.0" type="line"/>
      <point x="920.6363636363636" y="539.2272727272727" type="line" smooth="yes"/>
      <point x="936.2272727272727" y="574.4090909090909"/>
      <point x="980.5909090909091" y="642.1363636363636"/>
      <point x="995.7727272727273" y="662.5" type="curve"/>
      <point x="937.1818181818181" y="632.4090909090909" type="line"/>
      <point x="1008.3636363636364" y="645.6363636363636" type="line"/>
      <point x="1014.1818181818181" y="710.0" type="line"/>
      <point x="973.0909090909091" y="708.0"/>
      <point x="925.3181818181819" y="705.0"/>
      <point x="904.6363636363636" y="705.0" type="curve" smooth="yes"/>
      <point x="887.8636363636364" y="705.0"/>
      <point x="821.2727272727273" y="708.0"/>
      <point x="785.0909090909091" y="710.0" type="curve"/>
      <point x="770.2727272727273" y="650.0454545454545" type="line"/>
      <point x="910.3636363636364" y="630.5909090909091" type="line"/>
      <point x="875.8181818181819" y="662.3636363636364" type="line"/>
      <point x="871.0" y="644.5"/>
      <point x="847.8636363636364" y="575.0"/>
      <point x="838.8636363636364" y="553.1818181818181" type="curve" smooth="yes"/>
      <point x="660.4090909090909" y="122.86363636363636" type="line"/>
      <point x="682.6818181818181" y="120.63636363636364" type="line"/>
      <point x="600.0909090909091" y="682.7272727272727" type="line"/>
      <point x="530.6363636363636" y="682.7272727272727" type="line"/>
      <point x="292.22727272727275" y="123.86363636363636" type="line"/>
      <point x="313.90909090909093" y="120.63636363636364" type="line"/>
      <point x="260.5" y="539.8181818181819" type="line" smooth="yes"/>
      <point x="256.3181818181818" y="572.1818181818181"/>
      <point x="252.0" y="650.8636363636364"/>
      <point x="251.4090909090909" y="675.9090909090909" type="curve"/>
      <point x="210.0" y="634.8181818181819" type="line"/>
      <point x="345.40909090909093" y="645.6363636363636" type="line"/>
      <point x="350.22727272727275" y="710.0" type="line"/>
      <point x="301.54545454545456" y="708.0"/>
      <point x="221.6818181818182" y="705.0"/>
      <point x="192.5909090909091" y="705.0" type="curve" smooth="yes"/>
      <point x="174.77272727272728" y="705.0"/>
      <point x="130.22727272727272" y="708.0"/>
      <point x="92.0" y="710.0" type="curve"/>
      <point x="78.18181818181819" y="650.6363636363636" type="line"/>
      <point x="160.36363636363637" y="631.5909090909091" type="line"/>
      <point x="109.0" y="666.1818181818181" type="line"/>
      <point x="115.5909090909091" y="646.3636363636364"/>
      <point x="137.6818181818182" y="577.3181818181819"/>
      <point x="141.9090909090909" y="553.1818181818181" type="curve" smooth="yes"/>
    </contour>
  </outline>
</glyph>
<glyph name="X" format="2">
  <advance width="738.85"/>
  <unicode hex="0058"/>
  <anchor x="340.9112727272727" y="0.0" name="bottom"/>
  <anchor x="426.55068181818183" y="705.0" name="top"/>
  <outline>
    <contour>
      <point x="8.818181818181818" y="-5.0" type="line"/>
      <point x="54.77272727272727" y="-3.0"/>
      <point x="121.9090909090909" y="0.0"/>
      <point x="147.86363636363637" y="0.0" type="curve" smooth="yes"/>
      <point x="249.4090909090909" y="0.0" type="line"/>
      <point x="262.6363636363636" y="58.72727272727273" type="line"/>
      <point x="152.27272727272728" y="72.9090909090909" type="line"/>
      <point x="182.36363636363637" y="46.13636363636363" type="line"/>
      <point x="193.8181818181818" y="66.4090909090909"/>
      <point x="225.1818181818182" y="116.54545454545455"/>
      <point x="240.5909090909091" y="135.77272727272728" type="curve" smooth="yes"/>
      <point x="389.04545454545456" y="323.0" type="line"/>
      <point x="341.6363636363636" y="326.8181818181818" type="line"/>
      <point x="429.8181818181818" y="160.4090909090909" type="line" smooth="yes"/>
      <point x="446.77272727272725" y="127.5"/>
      <point x="471.5" y="68.54545454545455"/>
      <point x="473.77272727272725" y="45.90909090909091" type="curve"/>
      <point x="511.09090909090907" y="76.5" type="line"/>
      <point x="403.1363636363636" y="49.77272727272727" type="line"/>
      <point x="399.90909090909093" y="-5.0" type="line"/>
      <point x="452.27272727272725" y="-3.0"/>
      <point x="525.6363636363636" y="0.0"/>
      <point x="558.0" y="0.0" type="curve" smooth="yes"/>
      <point x="663.9090909090909" y="0.0" type="line"/>
      <point x="676.7272727272727" y="58.72727272727273" type="line"/>
      <point x="576.6363636363636" y="73.5" type="line"/>
      <point x="630.2272727272727" y="52.27272727272727" type="line"/>
      <point x="609.0" y="80.22727272727273"/>
      <point x="579.5" y="119.86363636363636"/>
      <point x="569.5" y="138.63636363636363" type="curve" smooth="yes"/>
      <point x="422.59090909090907" y="409.04545454545456" type="line"/>
      <point x="416.3636363636364" y="336.3181818181818" type="line"/>
      <point x="577.0" y="545.0" type="line" smooth="yes"/>
      <point x="601.7272727272727" y="576.9090909090909"/>
      <point x="671.1818181818181" y="637.1363636363636"/>
      <point x="687.4090909090909" y="649.7727272727273" type="curve"/>
      <point x="629.6363636363636" y="633.4090909090909" type="line"/>
      <point x="741.8636363636364" y="645.6363636363636" type="line"/>
      <point x="747.2727272727273" y="710.0" type="line"/>
      <point x="705.0454545454545" y="708.0"/>
      <point x="649.5454545454545" y="705.0"/>
      <point x="619.4090909090909" y="705.0" type="curve" smooth="yes"/>
      <point x="592.9090909090909" y="705.0"/>
      <point x="542.2727272727273" y="708.0"/>
      <point x="503.5" y="710.0" type="curve"/>
      <point x="489.09090909090907" y="649.6363636363636" type="line"/>
      <point x="595.0" y="631.2272727272727" type="line"/>
      <point x="565.3181818181819" y="659.2727272727273" type="line"/>
      <point x="554.0909090909091" y="641.7727272727273"/>
      <point x="519.6363636363636" y="586.7727272727273"/>
      <point x="504.6363636363636" y="566.3636363636364" type="curve" smooth="yes"/>
      <point x="381.22727272727275" y="399.59090909090907" type="line"/>
      <point x="426.8181818181818" y="395.77272727272725" type="line"/>
      <point x="352.54545454545456" y="539.2272727272727" type="line" smooth="yes"/>
      <point x="333.3636363636364" y="575.6363636363636"/>
      <point x="314.3636363636364" y="639.9090909090909"/>
      <point x="312.1363636363636" y="655.0" type="curve"/>
      <point x="272.59090909090907" y="634.8181818181819" type="line"/>
      <point x="383.5" y="645.2272727272727" type="line"/>
      <point x="388.3181818181818" y="710.0" type="line"/>
      <point x="338.6818181818182" y="708.0"/>
      <point x="277.54545454545456" y="705.0"/>
      <point x="240.5909090909091" y="705.0" type="curve" smooth="yes"/>
      <point x="211.27272727272728" y="705.0"/>
      <point x="158.0" y="708.0"/>
      <point x="116.4090909090909" y="710.0" type="curve"/>
      <point x="102.18181818181819" y="650.6363636363636" type="line"/>
      <point x="212.4090909090909" y="633.5909090909091" type="line"/>
      <point x="158.13636363636363" y="658.3636363636364" type="line"/>
      <point x="172.27272727272728" y="637.5454545454545"/>
      <point x="199.8181818181818" y="587.0454545454545"/>
      <point x="214.04545454545453" y="561.4090909090909" type="curve" smooth="yes"/>
      <point x="346.6818181818182" y="313.72727272727275" type="line"/>
      <point x="353.90909090909093" y="385.27272727272725" type="line"/>
      <point x="175.22727272727272" y="166.1818181818182" type="line" smooth="yes"/>
      <point x="146.86363636363637" y="131.8181818181818"/>
      <point x="79.68181818181819" y="72.22727272727273"/>
      <point x="57.27272727272727" y="51.40909090909091" type="curve"/>
      <point x="113.36363636363636" y="74.9090909090909" type="line"/>
      <point x="12.227272727272727" y="49.36363636363637" type="line"/>
    </contour>
  </outline>
</glyph>
<glyph name="Y" format="2">
  <advance width="651.15"/>
  <unicode hex="0059"/>
  <anchor x="284.04545454545456" y="0.0" name="bottom"/>
  <anchor x="385.04545454545456" y="720.0" name="top"/>
  <anchor x="87.0" y="705.0" name="topleft"/>
  <outline>
    <contour>
      <point x="283.1818181818182" y="229.8181818181818" type="line"/>
      <point x="358.5909090909091" y="229.8181818181818" type="line"/>
      <point x="558.9090909090909" y="539.2272727272727" type="line" smooth="yes"/>
      <point x="582.0909090909091" y="575.0"/>
      <point x="642.0454545454545" y="645.9090909090909"/>
      <point x="654.6363636363636" y="662.5" type="curve"/>
      <point x="595.0" y="632.4090909090909" type="line"/>
      <point x="669.6818181818181" y="645.6363636363636" type="line"/>
      <point x="675.5" y="710.0" type="line"/>
      <point x="634.8181818181819" y="708.0"/>
      <point x="582.7272727272727" y="705.0"/>
      <point x="561.8636363636364" y="705.0" type="curve" smooth="yes"/>
      <point x="545.6818181818181" y="705.0"/>
      <point x="489.09090909090907" y="708.0"/>
      <point x="452.90909090909093" y="710.0" type="curve"/>
      <point x="438.5" y="650.0454545454545" type="line"/>
      <point x="568.5909090909091" y="630.5909090909091" type="line"/>
      <point x="531.8636363636364" y="662.3636363636364" type="line"/>
      <point x="527.6363636363636" y="644.5"/>
      <point x="489.5" y="574.0"/>
      <point x="477.09090909090907" y="553.5909090909091" type="curve" smooth="yes"/>
      <point x="327.72727272727275" y="313.8181818181818" type="line"/>
      <point x="365.5" y="310.0" type="line"/>
      <point x="277.6818181818182" y="544.7727272727273" type="line" smooth="yes"/>
      <point x="268.90909090909093" y="568.5"/>
      <point x="254.77272727272728" y="651.1363636363636"/>
      <point x="254.77272727272728" y="675.9090909090909" type="curve"/>
      <point x="213.0909090909091" y="634.8181818181819" type="line"/>
      <point x="338.5" y="645.6363636363636" type="line"/>
      <point x="343.3181818181818" y="710.0" type="line"/>
      <point x="294.6363636363636" y="708.0"/>
      <point x="224.54545454545453" y="705.0"/>
      <point x="195.6818181818182" y="705.0" type="curve" smooth="yes"/>
      <point x="178.04545454545453" y="705.0"/>
      <point x="130.22727272727272" y="708.0"/>
      <point x="92.0" y="710.0" type="curve"/>
      <point x="78.18181818181819" y="650.6363636363636" type="line"/>
      <point x="163.63636363636363" y="631.5909090909091" type="line"/>
      <point x="108.86363636363636" y="666.1818181818181" type="line"/>
      <point x="118.04545454545455" y="648.0"/>
      <point x="154.72727272727272" y="576.0909090909091"/>
      <point x="162.77272727272728" y="554.0" type="curve" smooth="yes"/>
    </contour>
    <contour>
      <point x="147.8181818181818" y="-5.0" type="line"/>
      <point x="193.86363636363637" y="-3.0"/>
      <point x="270.5" y="0.0"/>
      <point x="296.72727272727275" y="0.0" type="curve" smooth="yes"/>
      <point x="434.04545454545456" y="0.0" type="line"/>
      <point x="448.04545454545456" y="58.31818181818182" type="line"/>
      <point x="316.22727272727275" y="69.54545454545455" type="line"/>
      <point x="359.22727272727275" y="31.90909090909091" type="line"/>
      <point x="358.04545454545456" y="60.22727272727273"/>
      <point x="362.0" y="130.8181818181818"/>
      <point x="368.22727272727275" y="173.5909090909091" type="curve" smooth="yes"/>
      <point x="389.22727272727275" y="317.3636363636364" type="line"/>
      <point x="281.54545454545456" y="317.3636363636364" type="line"/>
      <point x="255.54545454545453" y="143.5909090909091" type="line" smooth="yes"/>
      <point x="252.13636363636363" y="121.72727272727273"/>
      <point x="233.36363636363637" y="58.81818181818182"/>
      <point x="226.36363636363637" y="32.22727272727273" type="curve"/>
      <point x="278.72727272727275" y="73.54545454545455" type="line"/>
      <point x="150.63636363636363" y="50.54545454545455" type="line"/>
    </contour>
  </outline>
</glyph>
<glyph name="Z" format="2">
  <advance width="598.9499999999999"/>
  <unicode hex="005A"/>
  <anchor x="257.6818181818182" y="0.0" name="bottom"/>
  <anchor x="314.1818181818182" y="353.0" name="center"/>
  <anchor x="355.1818181818182" y="720.0" name="top"/>
  <outline>
    <contour>
      <point x="483.54545454545456" y="-4.0" type="curve"/>
      <point x="504.77272727272725" y="14.0" type="line"/>
      <point x="541.5909090909091" y="180.77272727272728" type="line"/>
      <point x="485.09090909090907" y="185.77272727272728" type="line"/>
      <point x="480.5" y="169.1818181818182"/>
      <point x="468.90909090909093" y="128.5"/>
      <point x="462.3181818181818" y="113.9090909090909" type="curve" smooth="yes"/>
      <point x="456.72727272727275" y="100.31818181818181"/>
      <point x="433.27272727272725" y="68.36363636363636"/>
      <point x="415.40909090909093" y="45.63636363636363" type="curve"/>
      <point x="483.1818181818182" y="82.63636363636364" type="line"/>
      <point x="463.72727272727275" y="78.22727272727273"/>
      <point x="390.77272727272725" y="65.63636363636364"/>
      <point x="352.1363636363636" y="65.63636363636364" type="curve" smooth="yes"/>
      <point x="125.0909090909091" y="65.63636363636364" type="line"/>
      <point x="153.22727272727272" y="41.72727272727273" type="line"/>
      <point x="182.04545454545456" y="86.18181818181819"/>
      <point x="222.6818181818182" y="153.27272727272728"/>
      <point x="241.72727272727272" y="179.13636363636363" type="curve" smooth="yes"/>
      <point x="465.72727272727275" y="485.77272727272725" type="line" smooth="yes"/>
      <point x="495.77272727272725" y="527.8181818181819"/>
      <point x="549.8181818181819" y="592.0909090909091"/>
      <point x="590.9090909090909" y="642.8181818181819" type="curve"/>
      <point x="591.3181818181819" y="705.0" type="line"/>
      <point x="256.54545454545456" y="705.0" type="line" smooth="yes"/>
      <point x="239.36363636363637" y="705.0"/>
      <point x="183.77272727272728" y="708.8181818181819"/>
      <point x="146.54545454545453" y="711.6363636363636" type="curve"/>
      <point x="125.13636363636364" y="693.6363636363636" type="line"/>
      <point x="93.54545454545455" y="523.6818181818181" type="line"/>
      <point x="154.63636363636363" y="518.6818181818181" type="line"/>
      <point x="160.22727272727272" y="540.8636363636364"/>
      <point x="171.8181818181818" y="584.5909090909091"/>
      <point x="177.5909090909091" y="597.7272727272727" type="curve" smooth="yes"/>
      <point x="182.4090909090909" y="607.7727272727273"/>
      <point x="205.63636363636363" y="643.2727272727273"/>
      <point x="219.9090909090909" y="664.8181818181819" type="curve"/>
      <point x="180.0909090909091" y="634.5454545454545" type="line"/>
      <point x="191.0909090909091" y="635.1363636363636"/>
      <point x="241.9090909090909" y="640.5454545454545"/>
      <point x="279.0" y="640.5454545454545" type="curve" smooth="yes"/>
      <point x="494.54545454545456" y="640.5454545454545" type="line"/>
      <point x="466.40909090909093" y="665.2727272727273" type="line"/>
      <point x="440.8181818181818" y="621.8636363636364"/>
      <point x="406.22727272727275" y="564.2272727272727"/>
      <point x="382.6363636363636" y="532.6363636363636" type="curve" smooth="yes"/>
      <point x="153.86363636363637" y="223.72727272727272" type="line" smooth="yes"/>
      <point x="131.5909090909091" y="193.22727272727272"/>
      <point x="72.13636363636364" y="118.27272727272728"/>
      <point x="24.863636363636363" y="62.77272727272727" type="curve"/>
      <point x="23.863636363636363" y="0.0" type="line"/>
      <point x="373.54545454545456" y="0.0" type="line" smooth="yes"/>
      <point x="397.27272727272725" y="0.0"/>
      <point x="446.54545454545456" y="-2.0"/>
    </contour>
  </outline>
</glyph>
<glyph name="bracketleft" format="2">
  <advance width="414.0"/>
  <unicode hex="005B"/>
  <outline>
    <contour>
      <point x="292.40909090909093" y="-107.0" type="line"/>
      <point x="301.6363636363636" y="-55.77272727272727" type="line"/>
      <point x="151.6818181818182" y="-38.77272727272727" type="line"/>
      <point x="189.13636363636363" y="-90.68181818181819" type="line"/>
      <point x="187.36363636363637" y="-29.77272727272727"/>
      <point x="189.36363636363637" y="34.0"/>
      <point x="193.13636363636363" y="63.59090909090909" type="curve" smooth="yes"/>
      <point x="265.1363636363636" y="653.5909090909091" type="line" smooth="yes"/>
      <point x="268.3181818181818" y="679.5"/>
      <point x="285.1818181818182" y="755.0909090909091"/>
      <point x="299.54545454545456" y="808.8636363636364" type="curve"/>
      <point x="248.8181818181818" y="760.7727272727273" type="line"/>
      <point x="403.54545454545456" y="778.7727272727273" type="line"/>
      <point x="406.1818181818182" y="829.0" type="line"/>
      <point x="216.04545454545453" y="825.0" type="line"/>
      <point x="192.5909090909091" y="804.9090909090909" type="line"/>
      <point x="189.63636363636363" y="751.1363636363636"/>
      <point x="178.95454545454547" y="625.1818181818181"/>
      <point x="176.95454545454547" y="606.4090909090909" type="curve" smooth="yes"/>
      <point x="117.54545454545455" y="122.04545454545455" type="line" smooth="yes"/>
      <point x="115.54545454545455" y="102.04545454545455"/>
      <point x="89.95454545454545" y="-47.04545454545455"/>
      <point x="84.81818181818181" y="-78.0909090909091" type="curve"/>
      <point x="103.45454545454545" y="-103.0" type="line"/>
    </contour>
  </outline>
</glyph>
<glyph name="backslash" format="2">
  <advance width="393.0"/>
  <unicode hex="005C"/>
  <outline>
    <contour>
      <point x="268.3181818181818" y="-66.18181818181819" type="line"/>
      <point x="346.22727272727275" y="-42.68181818181818" type="line"/>
      <point x="149.6818181818182" y="773.0" type="line"/>
      <point x="72.77272727272727" y="749.5" type="line"/>
    </contour>
  </outline>
</glyph>
<glyph name="bracketright" format="2">
  <advance width="413.0"/>
  <unicode hex="005D"/>
  <outline>
    <contour>
      <point x="148.5909090909091" y="829.0" type="line"/>
      <point x="139.36363636363637" y="777.7727272727273" type="line"/>
      <point x="289.3181818181818" y="760.7727272727273" type="line"/>
      <point x="251.86363636363637" y="812.6818181818181" type="line"/>
      <point x="253.63636363636363" y="750.9545454545455"/>
      <point x="251.63636363636363" y="688.0"/>
      <point x="247.86363636363637" y="658.4090909090909" type="curve" smooth="yes"/>
      <point x="175.86363636363637" y="68.4090909090909" type="line" smooth="yes"/>
      <point x="172.27272727272728" y="42.5"/>
      <point x="156.04545454545453" y="-33.59090909090909"/>
      <point x="141.45454545454547" y="-86.86363636363636" type="curve"/>
      <point x="192.1818181818182" y="-38.77272727272727" type="line"/>
      <point x="37.45454545454545" y="-56.77272727272727" type="line"/>
      <point x="34.81818181818182" y="-107.0" type="line"/>
      <point x="224.95454545454547" y="-103.0" type="line"/>
      <point x="248.4090909090909" y="-82.9090909090909" type="line"/>
      <point x="251.36363636363637" y="-29.545454545454547"/>
      <point x="261.45454545454544" y="95.5909090909091"/>
      <point x="264.04545454545456" y="115.5909090909091" type="curve"/>
      <point x="323.45454545454544" y="599.9545454545455" type="line"/>
      <point x="326.04545454545456" y="619.9545454545455"/>
      <point x="351.04545454545456" y="769.0454545454545"/>
      <point x="356.1818181818182" y="800.0909090909091" type="curve"/>
      <point x="337.54545454545456" y="825.0" type="line"/>
    </contour>
  </outline>
</glyph>
<glyph name="asciicircum" format="2">
  <advance width="688.35"/>
  <unicode hex="005E"/>
  <outline>
    <contour>
      <point x="157.72727272727272" y="313.40909090909093" type="line"/>
      <point x="417.8181818181818" y="640.0454545454545" type="line"/>
      <point x="364.9090909090909" y="640.0454545454545" type="line"/>
      <point x="545.5" y="313.40909090909093" type="line"/>
      <point x="623.7727272727273" y="362.3636363636364" type="line"/>
      <point x="402.6818181818182" y="729.6363636363636" type="line"/>
      <point x="91.0909090909091" y="362.3636363636364" type="line"/>
    </contour>
  </outline>
</glyph>
<glyph name="underscore" format="2">
  <advance width="631.3000000000001"/>
  <unicode hex="005F"/>
  <outline>
    <contour>
      <point x="12.0" y="-232.0" type="line"/>
      <point x="499.0" y="-232.0" type="line"/>
      <point x="514.8181818181819" y="-150.0" type="line"/>
      <point x="20.818181818181817" y="-150.0" type="line"/>
    </contour>
  </outline>
</glyph>
<glyph name="a" format="2">
  <advance width="532.25"/>
  <unicode hex="0061"/>
  <anchor x="227.9090909090909" y="0.0" name="bottom"/>
  <anchor x="384.72727272727275" y="0.0" name="ogonek"/>
  <anchor x="297.3181818181818" y="494.0" name="top"/>
  <outline>
    <contour>
      <point x="123.0" y="-12.045454545454545" type="curve" smooth="yes"/>
      <point x="209.72727272727272" y="-12.045454545454545"/>
      <point x="295.3181818181818" y="93.5"/>
      <point x="350.1818181818182" y="224.63636363636363" type="curve"/>
      <point x="342.90909090909093" y="245.36363636363637" type="line"/>
      <point x="333.22727272727275" y="150.13636363636363"/>
      <point x="314.6818181818182" y="72.4090909090909"/>
      <point x="296.5" y="4.181818181818182" type="curve"/>
      <point x="325.0" y="-12.045454545454545" type="line"/>
      <point x="491.72727272727275" y="31.727272727272727" type="line"/>
      <point x="495.1363636363636" y="72.9090909090909" type="line"/>
      <point x="365.3636363636364" y="81.77272727272728" type="line"/>
      <point x="408.04545454545456" y="42.13636363636363" type="line"/>
      <point x="410.8636363636364" y="216.1818181818182"/>
      <point x="438.8636363636364" y="346.27272727272725"/>
      <point x="474.6363636363636" y="490.90909090909093" type="curve"/>
      <point x="445.27272727272725" y="510.04545454545456" type="line"/>
      <point x="355.6363636363636" y="488.72727272727275" type="line"/>
      <point x="353.6363636363636" y="439.77272727272725" type="line" smooth="yes"/>
      <point x="347.22727272727275" y="280.6818181818182"/>
      <point x="228.27272727272728" y="72.04545454545455"/>
      <point x="173.36363636363637" y="72.04545454545455" type="curve" smooth="yes"/>
      <point x="148.0" y="72.04545454545455"/>
      <point x="135.13636363636363" y="108.0909090909091"/>
      <point x="135.13636363636363" y="157.86363636363637" type="curve" smooth="yes"/>
      <point x="135.13636363636363" y="277.22727272727275"/>
      <point x="194.04545454545456" y="438.9090909090909"/>
      <point x="238.5" y="438.9090909090909" type="curve" smooth="yes"/>
      <point x="291.90909090909093" y="438.9090909090909"/>
      <point x="367.04545454545456" y="398.0"/>
      <point x="378.8181818181818" y="393.6363636363636" type="curve"/>
      <point x="388.8181818181818" y="493.1818181818182" type="line"/>
      <point x="368.8181818181818" y="494.1818181818182"/>
      <point x="289.3636363636364" y="510.04545454545456"/>
      <point x="253.72727272727272" y="510.04545454545456" type="curve" smooth="yes"/>
      <point x="151.9090909090909" y="510.04545454545456"/>
      <point x="29.40909090909091" y="299.59090909090907"/>
      <point x="29.40909090909091" y="140.0" type="curve" smooth="yes"/>
      <point x="29.40909090909091" y="48.40909090909091"/>
      <point x="60.09090909090909" y="-12.045454545454545"/>
    </contour>
  </outline>
</glyph>
<glyph name="b" format="2">
  <advance width="497.3"/>
  <unicode hex="0062"/>
  <anchor x="213.5" y="0.0" name="bottom"/>
  <anchor x="299.8181818181818" y="585.8181818181819" name="top"/>
  <outline>
    <contour>
      <point x="53.63636363636363" y="-12.045454545454545" type="line"/>
      <point x="169.86363636363637" y="15.363636363636363" type="line"/>
      <point x="110.0909090909091" y="7.181818181818182" type="line"/>
      <point x="121.68181818181819" y="7.590909090909091"/>
      <point x="207.5909090909091" y="-12.045454545454545"/>
      <point x="244.04545454545456" y="-12.045454545454545" type="curve" smooth="yes"/>
      <point x="344.6818181818182" y="-12.045454545454545"/>
      <point x="467.77272727272725" y="196.63636363636363"/>
      <point x="467.77272727272725" y="358.0" type="curve" smooth="yes"/>
      <point x="467.77272727272725" y="449.59090909090907"/>
      <point x="437.0909090909091" y="508.8636363636364"/>
      <point x="375.3636363636364" y="508.8636363636364" type="curve" smooth="yes"/>
      <point x="295.1818181818182" y="508.8636363636364"/>
      <point x="212.86363636363637" y="416.1363636363636"/>
      <point x="158.9090909090909" y="291.3181818181818" type="curve"/>
      <point x="169.9090909090909" y="298.72727272727275" type="line"/>
      <point x="188.9090909090909" y="426.8636363636364"/>
      <point x="219.5" y="580.3636363636364"/>
      <point x="251.1818181818182" y="747.9090909090909" type="curve"/>
      <point x="224.86363636363637" y="770.0" type="line"/>
      <point x="49.90909090909091" y="740.5454545454545" type="line"/>
      <point x="52.90909090909091" y="697.5909090909091" type="line"/>
      <point x="175.22727272727272" y="680.0" type="line"/>
      <point x="132.54545454545453" y="703.8181818181819" type="line"/>
      <point x="122.22727272727273" y="554.2727272727273"/>
      <point x="78.13636363636364" y="199.5"/>
      <point x="25.136363636363637" y="4.181818181818182" type="curve"/>
    </contour>
    <contour>
      <point x="144.13636363636363" y="57.63636363636363" type="line"/>
      <point x="150.54545454545456" y="216.72727272727272"/>
      <point x="266.72727272727275" y="427.1363636363636"/>
      <point x="324.40909090909093" y="427.1363636363636" type="curve" smooth="yes"/>
      <point x="349.1818181818182" y="427.1363636363636"/>
      <point x="362.22727272727275" y="390.5"/>
      <point x="362.22727272727275" y="340.1363636363636" type="curve" smooth="yes"/>
      <point x="362.22727272727275" y="219.0"/>
      <point x="303.72727272727275" y="59.27272727272727"/>
      <point x="258.6818181818182" y="59.27272727272727" type="curve" smooth="yes"/>
      <point x="213.04545454545456" y="59.27272727272727"/>
      <point x="141.63636363636363" y="93.63636363636364"/>
      <point x="111.0909090909091" y="108.68181818181819" type="curve"/>
    </contour>
  </outline>
</glyph>
<glyph name="c" format="2">
  <advance width="419.7"/>
  <unicode hex="0063"/>
  <anchor x="149.13636363636363" y="0.0" name="bottom"/>
  <anchor x="280.04545454545456" y="494.0" name="top"/>
  <outline>
    <contour>
      <point x="148.36363636363637" y="-12.045454545454545" type="curve" smooth="yes"/>
      <point x="233.36363636363637" y="-12.045454545454545"/>
      <point x="316.8181818181818" y="40.22727272727273"/>
      <point x="372.0" y="129.0909090909091" type="curve"/>
      <point x="335.6363636363636" y="157.27272727272728" type="line"/>
      <point x="286.6363636363636" y="95.86363636363636"/>
      <point x="235.5909090909091" y="62.36363636363636"/>
      <point x="190.77272727272728" y="62.36363636363636" type="curve" smooth="yes"/>
      <point x="154.22727272727272" y="62.36363636363636"/>
      <point x="133.6818181818182" y="93.63636363636364"/>
      <point x="133.6818181818182" y="150.8181818181818" type="curve" smooth="yes"/>
      <point x="133.6818181818182" y="267.6363636363636"/>
      <point x="193.27272727272728" y="433.90909090909093"/>
      <point x="237.0" y="433.90909090909093" type="curve" smooth="yes"/>
      <point x="262.1363636363636" y="433.90909090909093"/>
      <point x="290.0909090909091" y="426.04545454545456"/>
      <point x="366.40909090909093" y="396.09090909090907" type="curve"/>
      <point x="317.72727272727275" y="457.27272727272725" type="line"/>
      <point x="323.04545454545456" y="318.59090909090907" type="line"/>
      <point x="365.04545454545456" y="316.1818181818182" type="line"/>
      <point x="401.8181818181818" y="469.1363636363636" type="line"/>
      <point x="383.90909090909093" y="497.5" type="line"/>
      <point x="325.54545454545456" y="505.04545454545456"/>
      <point x="268.5909090909091" y="510.04545454545456"/>
      <point x="240.63636363636363" y="510.04545454545456" type="curve" smooth="yes"/>
      <point x="151.0909090909091" y="510.04545454545456"/>
      <point x="28.363636363636363" y="295.04545454545456"/>
      <point x="28.363636363636363" y="139.77272727272728" type="curve" smooth="yes"/>
      <point x="28.363636363636363" y="42.77272727272727"/>
      <point x="70.68181818181819" y="-12.045454545454545"/>
    </contour>
  </outline>
</glyph>
<glyph name="d" format="2">
  <advance width="531.9"/>
  <unicode hex="0064"/>
  <anchor x="245.5909090909091" y="0.0" name="bottom"/>
  <anchor x="393.09090909090907" y="599.7727272727273" name="center"/>
  <anchor x="313.8181818181818" y="585.8181818181819" name="top"/>
  <anchor x="562.8636363636364" y="497.54545454545456" name="topright"/>
  <outline>
    <contour>
      <point x="123.0" y="-12.045454545454545" type="curve" smooth="yes"/>
      <point x="210.3181818181818" y="-12.045454545454545"/>
      <point x="295.3181818181818" y="93.5"/>
      <point x="350.1818181818182" y="224.63636363636363" type="curve"/>
      <point x="342.90909090909093" y="241.1818181818182" type="line"/>
      <point x="332.6363636363636" y="144.77272727272728"/>
      <point x="314.6818181818182" y="73.54545454545455"/>
      <point x="297.09090909090907" y="3.5454545454545454" type="curve"/>
      <point x="325.59090909090907" y="-12.681818181818182" type="line"/>
      <point x="491.72727272727275" y="31.727272727272727" type="line"/>
      <point x="495.1363636363636" y="72.9090909090909" type="line"/>
      <point x="364.77272727272725" y="81.13636363636364" type="line"/>
      <point x="404.72727272727275" y="47.77272727272727" type="line"/>
      <point x="407.3181818181818" y="250.5909090909091"/>
      <point x="457.90909090909093" y="491.09090909090907"/>
      <point x="504.0909090909091" y="747.9090909090909" type="curve"/>
      <point x="477.77272727272725" y="770.0" type="line"/>
      <point x="298.90909090909093" y="740.5454545454545" type="line"/>
      <point x="301.3181818181818" y="697.5909090909091" type="line"/>
      <point x="427.3636363636364" y="680.4090909090909" type="line"/>
      <point x="385.09090909090907" y="711.2272727272727" type="line"/>
      <point x="382.3181818181818" y="647.6363636363636"/>
      <point x="370.90909090909093" y="552.6363636363636"/>
      <point x="360.6818181818182" y="477.8181818181818" type="curve"/>
      <point x="353.6363636363636" y="439.77272727272725" type="line"/>
      <point x="347.22727272727275" y="281.27272727272725"/>
      <point x="232.22727272727272" y="72.04545454545455"/>
      <point x="173.36363636363637" y="72.04545454545455" type="curve" smooth="yes"/>
      <point x="148.0" y="72.04545454545455"/>
      <point x="135.13636363636363" y="108.0909090909091"/>
      <point x="135.13636363636363" y="157.86363636363637" type="curve" smooth="yes"/>
      <point x="135.13636363636363" y="277.22727272727275"/>
      <point x="194.04545454545456" y="438.9090909090909"/>
      <point x="238.5" y="438.9090909090909" type="curve" smooth="yes"/>
      <point x="291.90909090909093" y="438.9090909090909"/>
      <point x="367.04545454545456" y="398.0"/>
      <point x="378.8181818181818" y="393.6363636363636" type="curve"/>
      <point x="388.8181818181818" y="493.1818181818182" type="line"/>
      <point x="368.8181818181818" y="494.1818181818182"/>
      <point x="289.3636363636364" y="510.04545454545456"/>
      <point x="253.72727272727272" y="510.04545454545456" type="curve" smooth="yes"/>
      <point x="152.5" y="510.04545454545456"/>
      <point x="28.227272727272727" y="301.3636363636364"/>
      <point x="29.40909090909091" y="140.0" type="curve" smooth="yes"/>
      <point x="30.0" y="48.40909090909091"/>
      <point x="59.5" y="-12.045454545454545"/>
    </contour>
  </outline>
</glyph>
<glyph name="e" format="2">
  <advance width="422.7"/>
  <unicode hex="0065"/>
  <anchor x="137.04545454545456" y="0.0" name="bottom"/>
  <anchor x="237.8181818181818" y="0.0" name="ogonek"/>
  <anchor x="261.6818181818182" y="494.0" name="top"/>
  <outline>
    <contour>
      <point x="148.54545454545453" y="-12.045454545454545" type="curve" smooth="yes"/>
      <point x="232.54545454545453" y="-12.045454545454545"/>
      <point x="320.54545454545456" y="41.04545454545455"/>
      <point x="376.77272727272725" y="129.3181818181818" type="curve"/>
      <point x="340.22727272727275" y="157.5" type="line"/>
      <point x="295.3636363636364" y="100.4090909090909"/>
      <point x="235.72727272727272" y="61.31818181818182"/>
      <point x="190.1818181818182" y="61.31818181818182" type="curve" smooth="yes"/>
      <point x="153.27272727272728" y="61.31818181818182"/>
      <point x="132.04545454545456" y="91.36363636363636"/>
      <point x="132.04545454545456" y="151.63636363636363" type="curve" smooth="yes"/>
      <point x="132.04545454545456" y="270.0"/>
      <point x="195.22727272727272" y="440.72727272727275"/>
      <point x="244.4090909090909" y="440.72727272727275" type="curve" smooth="yes"/>
      <point x="287.54545454545456" y="440.72727272727275"/>
      <point x="305.09090909090907" y="427.77272727272725"/>
      <point x="305.09090909090907" y="400.3181818181818" type="curve" smooth="yes"/>
      <point x="305.09090909090907" y="333.6818181818182"/>
      <point x="227.8181818181818" y="270.0"/>
      <point x="108.86363636363636" y="255.27272727272728" type="curve"/>
      <point x="107.86363636363636" y="205.0909090909091" type="line"/>
      <point x="293.22727272727275" y="233.8181818181818"/>
      <point x="405.3181818181818" y="318.8636363636364"/>
      <point x="405.3181818181818" y="427.54545454545456" type="curve" smooth="yes"/>
      <point x="405.3181818181818" y="481.8181818181818"/>
      <point x="351.6818181818182" y="510.04545454545456"/>
      <point x="253.77272727272728" y="510.04545454545456" type="curve" smooth="yes"/>
      <point x="160.5909090909091" y="510.04545454545456"/>
      <point x="27.136363636363637" y="296.6363636363636"/>
      <point x="27.136363636363637" y="139.77272727272728" type="curve" smooth="yes"/>
      <point x="27.136363636363637" y="36.86363636363636"/>
      <point x="75.13636363636364" y="-12.045454545454545"/>
    </contour>
  </outline>
</glyph>
<glyph name="f" format="2">
  <advance width="325.40000000000003"/>
  <unicode hex="0066"/>
  <anchor x="132.4090909090909" y="0.0" name="bottom"/>
  <anchor x="204.3181818181818" y="585.8181818181819" name="top"/>
  <outline>
    <contour>
      <point x="-110.0909090909091" y="-234.4090909090909" type="line"/>
      <point x="14.727272727272727" y="-224.86363636363637"/>
      <point x="115.5909090909091" y="-156.77272727272728"/>
      <point x="151.22727272727272" y="-40.72727272727273" type="curve" smooth="yes"/>
      <point x="180.36363636363637" y="59.09090909090909"/>
      <point x="190.86363636363637" y="255.0909090909091"/>
      <point x="229.5909090909091" y="464.1818181818182" type="curve"/>
      <point x="179.04545454545456" y="423.54545454545456" type="line"/>
      <point x="324.1818181818182" y="423.54545454545456" type="line"/>
      <point x="339.8636363636364" y="485.1818181818182" type="line"/>
      <point x="189.9090909090909" y="485.1818181818182" type="line"/>
      <point x="227.72727272727272" y="445.0" type="line"/>
      <point x="238.36363636363637" y="587.2727272727273"/>
      <point x="245.8181818181818" y="654.2272727272727"/>
      <point x="260.59090909090907" y="675.3636363636364" type="curve" smooth="yes"/>
      <point x="277.3636363636364" y="699.6818181818181"/>
      <point x="331.8181818181818" y="713.0454545454545"/>
      <point x="396.8636363636364" y="710.6363636363636" type="curve"/>
      <point x="417.1818181818182" y="788.9090909090909" type="line"/>
      <point x="290.90909090909093" y="783.7727272727273"/>
      <point x="172.4090909090909" y="711.1363636363636"/>
      <point x="146.0" y="564.1818181818181" type="curve" smooth="yes"/>
      <point x="138.5" y="520.3636363636364"/>
      <point x="137.22727272727272" y="505.6363636363636"/>
      <point x="126.36363636363636" y="498.59090909090907" type="curve" smooth="yes"/>
      <point x="110.36363636363636" y="487.59090909090907"/>
      <point x="61.40909090909091" y="474.40909090909093"/>
      <point x="41.81818181818182" y="469.72727272727275" type="curve"/>
      <point x="37.0" y="423.54545454545456" type="line"/>
      <point x="169.0909090909091" y="423.54545454545456" type="line"/>
      <point x="128.4090909090909" y="451.40909090909093" type="line"/>
      <point x="110.36363636363636" y="263.1363636363636"/>
      <point x="69.68181818181819" y="-72.5909090909091"/>
      <point x="27.545454545454547" y="-121.5" type="curve" smooth="yes"/>
      <point x="13.90909090909091" y="-136.6818181818182"/>
      <point x="-39.59090909090909" y="-155.13636363636363"/>
      <point x="-85.54545454545455" y="-156.13636363636363" type="curve"/>
    </contour>
  </outline>
</glyph>
<glyph name="g" format="2">
  <advance width="505.3"/>
  <unicode hex="0067"/>
  <anchor x="297.90909090909093" y="-60.22727272727273" name="center"/>
  <anchor x="317.6818181818182" y="494.0" name="top"/>
  <outline>
    <contour>
      <point x="-27.227272727272727" y="-213.3181818181818" type="line"/>
      <point x="199.13636363636363" y="-282.40909090909093"/>
      <point x="374.3181818181818" y="-183.27272727272728"/>
      <point x="397.1818181818182" y="10.272727272727273" type="curve" smooth="yes"/>
      <point x="419.1818181818182" y="193.36363636363637"/>
      <point x="441.6363636363636" y="354.54545454545456"/>
      <point x="475.6363636363636" y="490.90909090909093" type="curve"/>
      <point x="446.8636363636364" y="510.04545454545456" type="line"/>
      <point x="356.8181818181818" y="487.5" type="line"/>
      <point x="354.8181818181818" y="439.1363636363636" type="line" smooth="yes"/>
      <point x="348.40909090909093" y="280.6363636363636"/>
      <point x="230.63636363636363" y="72.04545454545455"/>
      <point x="174.54545454545456" y="72.04545454545455" type="curve" smooth="yes"/>
      <point x="148.0" y="72.04545454545455"/>
      <point x="135.13636363636363" y="109.27272727272728"/>
      <point x="135.13636363636363" y="157.86363636363637" type="curve" smooth="yes"/>
      <point x="135.13636363636363" y="277.8181818181818"/>
      <point x="192.27272727272728" y="438.9090909090909"/>
      <point x="239.0909090909091" y="438.9090909090909" type="curve" smooth="yes"/>
      <point x="290.72727272727275" y="438.9090909090909"/>
      <point x="368.22727272727275" y="398.0"/>
      <point x="379.40909090909093" y="393.6363636363636" type="curve"/>
      <point x="390.0" y="493.1818181818182" type="line"/>
      <point x="370.0" y="494.1818181818182"/>
      <point x="288.77272727272725" y="510.04545454545456"/>
      <point x="253.72727272727272" y="510.04545454545456" type="curve" smooth="yes"/>
      <point x="151.3181818181818" y="510.04545454545456"/>
      <point x="29.40909090909091" y="299.59090909090907"/>
      <point x="29.40909090909091" y="140.0" type="curve" smooth="yes"/>
      <point x="29.40909090909091" y="49.0"/>
      <point x="60.09090909090909" y="-12.045454545454545"/>
      <point x="123.0" y="-12.045454545454545" type="curve" smooth="yes"/>
      <point x="210.3181818181818" y="-12.045454545454545"/>
      <point x="295.3181818181818" y="92.31818181818181"/>
      <point x="350.77272727272725" y="224.63636363636363" type="curve"/>
      <point x="342.90909090909093" y="241.1818181818182" type="line"/>
      <point x="331.40909090909093" y="144.1818181818182"/>
      <point x="317.1818181818182" y="67.13636363636364"/>
      <point x="302.22727272727275" y="-7.590909090909091" type="curve"/>
      <point x="299.8636363636364" y="-51.68181818181818"/>
      <point x="291.40909090909093" y="-107.5"/>
      <point x="277.3636363636364" y="-119.72727272727272" type="curve" smooth="yes"/>
      <point x="228.5909090909091" y="-163.27272727272728"/>
      <point x="107.36363636363636" y="-161.4090909090909"/>
      <point x="6.90909090909091" y="-123.27272727272727" type="curve"/>
    </contour>
  </outline>
</glyph>
<glyph name="h" format="2">
  <advance width="549.75"/>
  <unicode hex="0068"/>
  <anchor x="238.54545454545456" y="0.0" name="bottom"/>
  <anchor x="192.5" y="599.7727272727273" name="center"/>
  <anchor x="183.04545454545456" y="733.5454545454545" name="top"/>
  <outline>
    <contour>
      <point x="53.86363636363637" y="-12.045454545454545" type="line"/>
      <point x="135.77272727272728" y="4.181818181818182" type="line"/>
      <point x="139.13636363636363" y="33.63636363636364"/>
      <point x="140.72727272727272" y="54.40909090909091"/>
      <point x="145.86363636363637" y="90.36363636363636" type="curve"/>
      <point x="187.4090909090909" y="276.22727272727275"/>
      <point x="285.1818181818182" y="418.09090909090907"/>
      <point x="338.8181818181818" y="418.09090909090907" type="curve" smooth="yes"/>
      <point x="362.54545454545456" y="418.09090909090907"/>
      <point x="367.5" y="392.5"/>
      <point x="367.5" y="367.59090909090907" type="curve" smooth="yes"/>
      <point x="367.5" y="286.72727272727275"/>
      <point x="330.22727272727275" y="128.54545454545453"/>
      <point x="299.3636363636364" y="4.181818181818182" type="curve"/>
      <point x="326.8636363636364" y="-12.045454545454545" type="line"/>
      <point x="507.1818181818182" y="31.727272727272727" type="line"/>
      <point x="510.0" y="72.9090909090909" type="line"/>
      <point x="379.77272727272725" y="81.13636363636364" type="line"/>
      <point x="422.6363636363636" y="43.54545454545455" type="line"/>
      <point x="426.6363636363636" y="179.5909090909091"/>
      <point x="477.6363636363636" y="330.22727272727275"/>
      <point x="477.6363636363636" y="426.8636363636364" type="curve" smooth="yes"/>
      <point x="477.6363636363636" y="473.27272727272725"/>
      <point x="453.1818181818182" y="510.04545454545456"/>
      <point x="402.3636363636364" y="510.04545454545456" type="curve" smooth="yes"/>
      <point x="299.72727272727275" y="510.04545454545456"/>
      <point x="210.0909090909091" y="389.04545454545456"/>
      <point x="162.04545454545456" y="279.0" type="curve"/>
      <point x="167.1818181818182" y="277.22727272727275" type="line"/>
      <point x="188.54545454545456" y="420.72727272727275"/>
      <point x="221.27272727272728" y="595.1363636363636"/>
      <point x="251.1818181818182" y="747.9090909090909" type="curve"/>
      <point x="224.86363636363637" y="770.0" type="line"/>
      <point x="49.90909090909091" y="740.5454545454545" type="line"/>
      <point x="52.90909090909091" y="697.5909090909091" type="line"/>
      <point x="175.22727272727272" y="680.0" type="line"/>
      <point x="132.54545454545453" y="703.8181818181819" type="line"/>
      <point x="122.22727272727273" y="554.2727272727273"/>
      <point x="78.13636363636364" y="199.5"/>
      <point x="25.136363636363637" y="4.181818181818182" type="curve"/>
    </contour>
  </outline>
</glyph>
<glyph name="k" format="2">
  <advance width="526.0"/>
  <unicode hex="006B"/>
  <anchor x="233.5909090909091" y="0.0" name="bottom"/>
  <anchor x="317.90909090909093" y="748.3636363636364" name="top"/>
  <outline>
    <contour>
      <point x="54.68181818181818" y="-12.045454545454545" type="line"/>
      <point x="137.0" y="4.181818181818182" type="line"/>
      <point x="137.8181818181818" y="12.363636363636363"/>
      <point x="145.3181818181818" y="73.86363636363636"/>
      <point x="150.0909090909091" y="106.04545454545455" type="curve"/>
      <point x="186.13636363636363" y="277.4090909090909"/>
      <point x="284.72727272727275" y="424.3181818181818"/>
      <point x="356.8636363636364" y="424.3181818181818" type="curve" smooth="yes"/>
      <point x="372.27272727272725" y="424.3181818181818"/>
      <point x="382.8636363636364" y="413.3181818181818"/>
      <point x="382.8636363636364" y="394.54545454545456" type="curve" smooth="yes"/>
      <point x="382.8636363636364" y="329.22727272727275"/>
      <point x="316.77272727272725" y="267.72727272727275"/>
      <point x="203.4090909090909" y="231.36363636363637" type="curve"/>
      <point x="203.4090909090909" y="190.04545454545453" type="line"/>
      <point x="327.27272727272725" y="-12.045454545454545" type="line"/>
      <point x="479.1363636363636" y="31.727272727272727" type="line"/>
      <point x="483.1363636363636" y="72.9090909090909" type="line"/>
      <point x="355.0909090909091" y="79.04545454545455" type="line"/>
      <point x="417.5" y="58.5" type="line"/>
      <point x="372.6363636363636" y="97.68181818181819"/>
      <point x="317.40909090909093" y="175.13636363636363"/>
      <point x="282.0" y="239.63636363636363" type="curve"/>
      <point x="258.6363636363636" y="203.27272727272728" type="line"/>
      <point x="399.8181818181818" y="247.6818181818182"/>
      <point x="480.5" y="331.3181818181818"/>
      <point x="480.5" y="428.40909090909093" type="curve" smooth="yes"/>
      <point x="480.5" y="480.09090909090907"/>
      <point x="455.6363636363636" y="510.04545454545456"/>
      <point x="406.6818181818182" y="510.04545454545456" type="curve" smooth="yes"/>
      <point x="311.0" y="510.04545454545456"/>
      <point x="216.27272727272728" y="410.22727272727275"/>
      <point x="156.6818181818182" y="261.4090909090909" type="curve"/>
      <point x="166.0909090909091" y="264.1818181818182" type="line"/>
      <point x="187.0909090909091" y="407.9090909090909"/>
      <point x="210.8181818181818" y="525.3181818181819"/>
      <point x="251.77272727272728" y="747.9090909090909" type="curve"/>
      <point x="226.04545454545456" y="770.0" type="line"/>
      <point x="50.5" y="740.5454545454545" type="line"/>
      <point x="52.31818181818182" y="697.5909090909091" type="line"/>
      <point x="175.22727272727272" y="680.0" type="line"/>
      <point x="133.54545454545453" y="712.4090909090909" type="line"/>
      <point x="117.81818181818181" y="491.1818181818182"/>
      <point x="66.5909090909091" y="158.77272727272728"/>
      <point x="25.545454545454547" y="4.181818181818182" type="curve"/>
    </contour>
  </outline>
</glyph>
<glyph name="l" format="2">
  <advance width="267.8"/>
  <unicode hex="006C"/>
  <anchor x="145.0909090909091" y="0.0" name="bottom"/>
  <anchor x="148.0909090909091" y="384.3636363636364" name="center"/>
  <anchor x="343.77272727272725" y="412.3636363636364" name="centerright"/>
  <anchor x="164.9090909090909" y="756.0" name="top"/>
  <anchor x="310.6818181818182" y="497.54545454545456" name="topright"/>
  <outline>
    <contour>
      <point x="53.63636363636363" y="-12.045454545454545" type="line"/>
      <point x="227.04545454545456" y="31.727272727272727" type="line"/>
      <point x="229.86363636363637" y="72.9090909090909" type="line"/>
      <point x="101.31818181818181" y="81.77272727272728" type="line"/>
      <point x="142.8181818181818" y="55.54545454545455" type="line"/>
      <point x="165.8181818181818" y="264.1363636363636"/>
      <point x="207.0" y="499.27272727272725"/>
      <point x="251.36363636363637" y="747.9090909090909" type="curve"/>
      <point x="225.63636363636363" y="770.0" type="line"/>
      <point x="50.09090909090909" y="740.5454545454545" type="line"/>
      <point x="53.09090909090909" y="697.5909090909091" type="line"/>
      <point x="175.4090909090909" y="680.0" type="line"/>
      <point x="132.72727272727272" y="703.8181818181819" type="line"/>
      <point x="122.4090909090909" y="554.2727272727273"/>
      <point x="78.13636363636364" y="199.5"/>
      <point x="25.136363636363637" y="4.181818181818182" type="curve"/>
    </contour>
  </outline>
</glyph>
<glyph name="m" format="2">
  <advance width="851.35"/>
  <unicode hex="006D"/>
  <anchor x="395.3181818181818" y="0.0" name="bottom"/>
  <anchor x="455.3181818181818" y="494.0" name="top"/>
  <outline>
    <contour>
      <point x="75.72727272727273" y="-12.045454545454545" type="line"/>
      <point x="158.04545454545456" y="4.181818181818182" type="line"/>
      <point x="161.22727272727272" y="32.59090909090909"/>
      <point x="165.4090909090909" y="61.0"/>
      <point x="169.77272727272728" y="89.4090909090909" type="curve"/>
      <point x="209.13636363636363" y="271.59090909090907"/>
      <point x="310.40909090909093" y="418.27272727272725"/>
      <point x="364.8181818181818" y="418.27272727272725" type="curve" smooth="yes"/>
      <point x="390.1363636363636" y="418.27272727272725"/>
      <point x="395.09090909090907" y="392.6818181818182"/>
      <point x="395.09090909090907" y="367.77272727272725" type="curve" smooth="yes"/>
      <point x="395.09090909090907" y="288.6818181818182"/>
      <point x="357.40909090909093" y="132.0909090909091"/>
      <point x="324.77272727272725" y="4.181818181818182" type="curve"/>
      <point x="353.27272727272725" y="-12.045454545454545" type="line"/>
      <point x="435.77272727272725" y="4.181818181818182" type="line"/>
      <point x="439.72727272727275" y="37.81818181818181"/>
      <point x="444.8636363636364" y="78.72727272727272"/>
      <point x="448.22727272727275" y="98.36363636363636" type="curve"/>
      <point x="490.09090909090907" y="279.4090909090909"/>
      <point x="589.0909090909091" y="418.27272727272725"/>
      <point x="640.1818181818181" y="418.27272727272725" type="curve" smooth="yes"/>
      <point x="664.5" y="418.27272727272725"/>
      <point x="670.6363636363636" y="393.27272727272725"/>
      <point x="670.6363636363636" y="367.77272727272725" type="curve" smooth="yes"/>
      <point x="670.6363636363636" y="287.5"/>
      <point x="632.1818181818181" y="130.9090909090909"/>
      <point x="600.1363636363636" y="4.181818181818182" type="curve"/>
      <point x="628.8181818181819" y="-12.045454545454545" type="line"/>
      <point x="809.1363636363636" y="31.727272727272727" type="line"/>
      <point x="812.5454545454545" y="72.9090909090909" type="line"/>
      <point x="683.5" y="81.13636363636364" type="line"/>
      <point x="725.1818181818182" y="47.09090909090909" type="line"/>
      <point x="729.1818181818182" y="183.72727272727272"/>
      <point x="779.0" y="330.40909090909093"/>
      <point x="779.0" y="427.6363636363636" type="curve" smooth="yes"/>
      <point x="779.0" y="472.8636363636364"/>
      <point x="756.3181818181819" y="510.04545454545456"/>
      <point x="704.9090909090909" y="510.04545454545456" type="curve" smooth="yes"/>
      <point x="585.7727272727273" y="510.04545454545456"/>
      <point x="500.40909090909093" y="359.59090909090907"/>
      <point x="455.1363636363636" y="272.0" type="curve"/>
      <point x="467.8181818181818" y="268.09090909090907" type="line"/>
      <point x="505.22727272727275" y="384.59090909090907"/>
      <point x="528.3181818181819" y="510.04545454545456"/>
      <point x="429.54545454545456" y="510.04545454545456" type="curve" smooth="yes"/>
      <point x="315.8181818181818" y="510.04545454545456"/>
      <point x="227.36363636363637" y="374.22727272727275"/>
      <point x="184.0909090909091" y="274.77272727272725" type="curve"/>
      <point x="189.0909090909091" y="269.8636363636364" type="line"/>
      <point x="206.5909090909091" y="365.04545454545456"/>
      <point x="224.8181818181818" y="432.54545454545456"/>
      <point x="242.72727272727272" y="487.3636363636364" type="curve"/>
      <point x="215.54545454545456" y="510.04545454545456" type="line"/>
      <point x="42.27272727272727" y="465.8636363636364" type="line"/>
      <point x="42.27272727272727" y="423.90909090909093" type="line"/>
      <point x="165.0" y="417.09090909090907" type="line"/>
      <point x="122.5" y="448.8181818181818" type="line"/>
      <point x="110.5909090909091" y="293.77272727272725"/>
      <point x="96.22727272727272" y="194.8181818181818"/>
      <point x="47.22727272727273" y="4.181818181818182" type="curve"/>
    </contour>
  </outline>
</glyph>
<glyph name="n" format="2">
  <advance width="576.15"/>
  <unicode hex="006E"/>
  <anchor x="254.77272727272728" y="0.0" name="bottom"/>
  <anchor x="321.8636363636364" y="494.0" name="top"/>
  <outline>
    <contour>
      <point x="75.31818181818181" y="-12.045454545454545" type="line"/>
      <point x="157.63636363636363" y="4.181818181818182" type="line"/>
      <point x="160.8181818181818" y="32.36363636363636"/>
      <point x="164.0" y="58.22727272727273"/>
      <point x="169.36363636363637" y="88.4090909090909" type="curve"/>
      <point x="210.5" y="277.09090909090907"/>
      <point x="313.0" y="418.27272727272725"/>
      <point x="365.04545454545456" y="418.27272727272725" type="curve" smooth="yes"/>
      <point x="389.77272727272725" y="418.27272727272725"/>
      <point x="394.72727272727275" y="392.09090909090907"/>
      <point x="394.72727272727275" y="367.77272727272725" type="curve" smooth="yes"/>
      <point x="394.72727272727275" y="286.3181818181818"/>
      <point x="356.8636363636364" y="131.5"/>
      <point x="325.59090909090907" y="4.181818181818182" type="curve"/>
      <point x="353.90909090909093" y="-12.045454545454545" type="line"/>
      <point x="534.2272727272727" y="31.727272727272727" type="line"/>
      <point x="537.6363636363636" y="72.9090909090909" type="line"/>
      <point x="407.5909090909091" y="81.77272727272728" type="line"/>
      <point x="449.8636363636364" y="47.31818181818182" type="line"/>
      <point x="454.04545454545456" y="183.72727272727272"/>
      <point x="503.6818181818182" y="330.40909090909093"/>
      <point x="503.6818181818182" y="427.6363636363636" type="curve" smooth="yes"/>
      <point x="503.6818181818182" y="472.8636363636364"/>
      <point x="480.5909090909091" y="510.04545454545456"/>
      <point x="429.1818181818182" y="510.04545454545456" type="curve" smooth="yes"/>
      <point x="315.1363636363636" y="510.04545454545456"/>
      <point x="226.6818181818182" y="374.1363636363636"/>
      <point x="184.5" y="275.1818181818182" type="curve"/>
      <point x="189.0909090909091" y="269.8636363636364" type="line"/>
      <point x="206.0" y="361.5"/>
      <point x="224.63636363636363" y="431.3636363636364"/>
      <point x="242.3181818181818" y="487.3636363636364" type="curve"/>
      <point x="215.13636363636363" y="510.04545454545456" type="line"/>
      <point x="41.86363636363637" y="465.8636363636364" type="line"/>
      <point x="41.86363636363637" y="423.90909090909093" type="line"/>
      <point x="164.5909090909091" y="417.09090909090907" type="line"/>
      <point x="122.5" y="448.8181818181818" type="line"/>
      <point x="109.81818181818181" y="289.6363636363636"/>
      <point x="97.5909090909091" y="202.5"/>
      <point x="47.22727272727273" y="4.181818181818182" type="curve"/>
    </contour>
  </outline>
</glyph>
<glyph name="o" format="2">
  <advance width="483.40000000000003"/>
  <unicode hex="006F"/>
  <anchor x="207.4090909090909" y="0.0" name="bottom"/>
  <anchor x="242.4090909090909" y="248.1818181818182" name="center"/>
  <anchor x="268.1363636363636" y="3.2272727272727275" name="ogonek"/>
  <anchor x="276.8181818181818" y="494.0" name="top"/>
  <anchor x="380.6818181818182" y="442.3636363636364" name="topright"/>
  <outline>
    <contour>
      <point x="181.77272727272728" y="-12.045454545454545" type="curve" smooth="yes"/>
      <point x="328.1818181818182" y="-12.045454545454545"/>
      <point x="452.27272727272725" y="146.86363636363637"/>
      <point x="452.27272727272725" y="333.3181818181818" type="curve" smooth="yes"/>
      <point x="452.27272727272725" y="446.6363636363636"/>
      <point x="399.40909090909093" y="510.04545454545456"/>
      <point x="301.8636363636364" y="510.04545454545456" type="curve" smooth="yes"/>
      <point x="155.86363636363637" y="510.04545454545456"/>
      <point x="31.363636363636363" y="351.1363636363636"/>
      <point x="31.363636363636363" y="165.86363636363637" type="curve" smooth="yes"/>
      <point x="31.363636363636363" y="53.72727272727273"/>
      <point x="85.22727272727273" y="-12.045454545454545"/>
    </contour>
    <contour>
      <point x="204.13636363636363" y="56.13636363636364" type="curve" smooth="yes"/>
      <point x="164.27272727272728" y="56.13636363636364"/>
      <point x="143.0909090909091" y="94.68181818181819"/>
      <point x="143.0909090909091" y="164.54545454545453" type="curve" smooth="yes"/>
      <point x="143.0909090909091" y="328.04545454545456"/>
      <point x="197.86363636363637" y="443.04545454545456"/>
      <point x="280.5" y="443.04545454545456" type="curve" smooth="yes"/>
      <point x="320.54545454545456" y="443.04545454545456"/>
      <point x="341.1363636363636" y="403.90909090909093"/>
      <point x="341.1363636363636" y="334.04545454545456" type="curve" smooth="yes"/>
      <point x="341.1363636363636" y="168.77272727272728"/>
      <point x="285.1818181818182" y="56.13636363636364"/>
    </contour>
  </outline>
</glyph>
<glyph name="p" format="2">
  <advance width="518.1"/>
  <unicode hex="0070"/>
  <anchor x="227.4090909090909" y="0.0" name="bottom"/>
  <anchor x="297.40909090909093" y="494.0" name="top"/>
  <outline>
    <contour>
      <point x="40.0" y="-275.77272727272725" type="line"/>
      <point x="121.72727272727273" y="-260.1363636363636" type="line"/>
      <point x="134.3181818181818" y="-145.8181818181818"/>
      <point x="146.9090909090909" y="-52.22727272727273"/>
      <point x="160.5" y="47.22727272727273" type="curve"/>
      <point x="173.63636363636363" y="220.04545454545453"/>
      <point x="284.22727272727275" y="426.54545454545456"/>
      <point x="344.3181818181818" y="426.54545454545456" type="curve" smooth="yes"/>
      <point x="369.8636363636364" y="426.54545454545456"/>
      <point x="383.90909090909093" y="388.72727272727275"/>
      <point x="383.90909090909093" y="340.1363636363636" type="curve" smooth="yes"/>
      <point x="383.90909090909093" y="220.1818181818182"/>
      <point x="324.40909090909093" y="59.68181818181819"/>
      <point x="279.1818181818182" y="59.68181818181819" type="curve" smooth="yes"/>
      <point x="236.8181818181818" y="59.68181818181819"/>
      <point x="168.0909090909091" y="91.5"/>
      <point x="153.13636363636363" y="97.77272727272728" type="curve"/>
      <point x="142.27272727272728" y="3.1818181818181817" type="line"/>
      <point x="168.77272727272728" y="-1.6363636363636365"/>
      <point x="233.0" y="-12.045454545454545"/>
      <point x="264.1363636363636" y="-12.045454545454545" type="curve" smooth="yes"/>
      <point x="364.77272727272725" y="-12.045454545454545"/>
      <point x="488.8636363636364" y="197.8181818181818"/>
      <point x="488.8636363636364" y="358.0" type="curve" smooth="yes"/>
      <point x="488.8636363636364" y="449.0"/>
      <point x="457.77272727272725" y="510.04545454545456"/>
      <point x="395.27272727272725" y="510.04545454545456" type="curve" smooth="yes"/>
      <point x="311.5" y="510.04545454545456"/>
      <point x="238.9090909090909" y="415.04545454545456"/>
      <point x="183.22727272727272" y="304.09090909090907" type="curve"/>
      <point x="192.4090909090909" y="304.9090909090909" type="line"/>
      <point x="207.27272727272728" y="385.27272727272725"/>
      <point x="224.77272727272728" y="433.3181818181818"/>
      <point x="240.86363636363637" y="487.3636363636364" type="curve"/>
      <point x="212.6818181818182" y="510.04545454545456" type="line"/>
      <point x="40.0" y="465.8636363636364" type="line"/>
      <point x="40.0" y="423.90909090909093" type="line"/>
      <point x="163.54545454545453" y="417.09090909090907" type="line"/>
      <point x="120.27272727272727" y="439.40909090909093" type="line"/>
      <point x="109.72727272727273" y="282.6818181818182"/>
      <point x="60.86363636363637" y="-55.13636363636363"/>
      <point x="11.90909090909091" y="-260.1363636363636" type="curve"/>
    </contour>
  </outline>
</glyph>
<glyph name="q" format="2">
  <advance width="497.55"/>
  <unicode hex="0071"/>
  <anchor x="215.1818181818182" y="0.0" name="bottom"/>
  <anchor x="275.1818181818182" y="494.0" name="top"/>
  <outline>
    <contour>
      <point x="272.6363636363636" y="-277.0" type="line"/>
      <point x="360.3181818181818" y="-255.36363636363637" type="line"/>
      <point x="371.5909090909091" y="-76.27272727272728"/>
      <point x="423.1363636363636" y="314.1818181818182"/>
      <point x="471.72727272727275" y="490.90909090909093" type="curve"/>
      <point x="442.3636363636364" y="510.04545454545456" type="line"/>
      <point x="355.6363636363636" y="488.72727272727275" type="line"/>
      <point x="353.6363636363636" y="439.77272727272725" type="line" smooth="yes"/>
      <point x="347.22727272727275" y="280.6818181818182"/>
      <point x="228.86363636363637" y="72.04545454545455"/>
      <point x="173.36363636363637" y="72.04545454545455" type="curve" smooth="yes"/>
      <point x="148.0" y="72.04545454545455"/>
      <point x="135.13636363636363" y="108.0909090909091"/>
      <point x="135.13636363636363" y="157.86363636363637" type="curve" smooth="yes"/>
      <point x="135.13636363636363" y="277.22727272727275"/>
      <point x="194.04545454545456" y="438.9090909090909"/>
      <point x="238.5" y="438.9090909090909" type="curve" smooth="yes"/>
      <point x="291.90909090909093" y="438.9090909090909"/>
      <point x="367.04545454545456" y="398.0"/>
      <point x="378.8181818181818" y="393.6363636363636" type="curve"/>
      <point x="386.54545454545456" y="493.1818181818182" type="line"/>
      <point x="366.54545454545456" y="494.1818181818182"/>
      <point x="289.77272727272725" y="510.04545454545456"/>
      <point x="254.13636363636363" y="510.04545454545456" type="curve" smooth="yes"/>
      <point x="152.9090909090909" y="510.04545454545456"/>
      <point x="28.227272727272727" y="301.3636363636364"/>
      <point x="29.40909090909091" y="140.0" type="curve" smooth="yes"/>
      <point x="30.0" y="48.40909090909091"/>
      <point x="59.5" y="-12.045454545454545"/>
      <point x="123.0" y="-12.045454545454545" type="curve" smooth="yes"/>
      <point x="210.3181818181818" y="-12.045454545454545"/>
      <point x="295.3181818181818" y="93.5"/>
      <point x="350.1818181818182" y="224.63636363636363" type="curve"/>
      <point x="342.3181818181818" y="242.4090909090909" type="line"/>
      <point x="330.0" y="143.63636363636363"/>
      <point x="311.1818181818182" y="70.13636363636364"/>
      <point x="293.8636363636364" y="-5.181818181818182" type="curve"/>
      <point x="278.22727272727275" y="-93.04545454545455"/>
      <point x="260.77272727272725" y="-180.0909090909091"/>
      <point x="244.72727272727272" y="-260.77272727272725" type="curve"/>
    </contour>
  </outline>
</glyph>
<glyph name="r" format="2">
  <advance width="397.0"/>
  <unicode hex="0072"/>
  <anchor x="153.9090909090909" y="0.0" name="bottom"/>
  <anchor x="226.8181818181818" y="494.0" name="top"/>
  <outline>
    <contour>
      <point x="74.72727272727273" y="-12.045454545454545" type="line"/>
      <point x="157.04545454545456" y="4.181818181818182" type="line"/>
      <point x="161.4090909090909" y="44.36363636363637"/>
      <point x="164.8181818181818" y="84.0"/>
      <point x="172.27272727272728" y="124.13636363636364" type="curve"/>
      <point x="203.4090909090909" y="270.3181818181818"/>
      <point x="268.6363636363636" y="368.3636363636364"/>
      <point x="321.27272727272725" y="368.3636363636364" type="curve" smooth="yes"/>
      <point x="332.72727272727275" y="368.3636363636364"/>
      <point x="354.6818181818182" y="361.04545454545456"/>
      <point x="368.09090909090907" y="355.8181818181818" type="curve"/>
      <point x="405.54545454545456" y="496.40909090909093" type="line"/>
      <point x="398.54545454545456" y="501.6363636363636"/>
      <point x="387.1363636363636" y="509.6363636363636"/>
      <point x="372.5909090909091" y="509.6363636363636" type="curve" smooth="yes"/>
      <point x="312.0" y="509.6363636363636"/>
      <point x="238.0909090909091" y="399.9090909090909"/>
      <point x="173.5" y="258.5" type="curve"/>
      <point x="187.5909090909091" y="269.8181818181818" type="line"/>
      <point x="197.86363636363637" y="339.59090909090907"/>
      <point x="218.8181818181818" y="412.1363636363636"/>
      <point x="242.3181818181818" y="487.3636363636364" type="curve"/>
      <point x="215.13636363636363" y="510.04545454545456" type="line"/>
      <point x="41.86363636363637" y="465.8636363636364" type="line"/>
      <point x="41.86363636363637" y="423.90909090909093" type="line"/>
      <point x="164.5909090909091" y="417.09090909090907" type="line"/>
      <point x="123.0909090909091" y="450.54545454545456" type="line"/>
      <point x="110.0" y="281.0909090909091"/>
      <point x="91.36363636363636" y="180.9090909090909"/>
      <point x="46.63636363636363" y="4.181818181818182" type="curve"/>
    </contour>
  </outline>
</glyph>
<glyph name="s" format="2">
  <advance width="397.40000000000003"/>
  <unicode hex="0073"/>
  <anchor x="155.4090909090909" y="0.0" name="bottom"/>
  <anchor x="235.4090909090909" y="494.0" name="top"/>
  <outline>
    <contour>
      <point x="157.9090909090909" y="-12.045454545454545" type="curve" smooth="yes"/>
      <point x="259.0909090909091" y="-12.045454545454545"/>
      <point x="340.6818181818182" y="54.18181818181818"/>
      <point x="340.6818181818182" y="151.8181818181818" type="curve" smooth="yes"/>
      <point x="340.6818181818182" y="271.90909090909093"/>
      <point x="167.5909090909091" y="322.1818181818182"/>
      <point x="167.5909090909091" y="393.8636363636364" type="curve" smooth="yes"/>
      <point x="167.5909090909091" y="429.1363636363636"/>
      <point x="201.36363636363637" y="454.04545454545456"/>
      <point x="234.0" y="454.04545454545456" type="curve" smooth="yes"/>
      <point x="265.6818181818182" y="454.04545454545456"/>
      <point x="284.1818181818182" y="440.77272727272725"/>
      <point x="314.1363636363636" y="419.8181818181818" type="curve"/>
      <point x="282.5909090909091" y="482.77272727272725" type="line"/>
      <point x="297.04545454545456" y="343.27272727272725" type="line"/>
      <point x="340.3636363636364" y="340.27272727272725" type="line"/>
      <point x="374.8181818181818" y="466.5" type="line"/>
      <point x="353.8181818181818" y="495.04545454545456" type="line"/>
      <point x="313.8636363636364" y="502.6363636363636"/>
      <point x="276.1818181818182" y="510.04545454545456"/>
      <point x="237.72727272727272" y="510.04545454545456" type="curve" smooth="yes"/>
      <point x="145.5909090909091" y="510.04545454545456"/>
      <point x="72.5909090909091" y="450.09090909090907"/>
      <point x="72.5909090909091" y="367.3636363636364" type="curve" smooth="yes"/>
      <point x="72.5909090909091" y="226.6818181818182"/>
      <point x="238.04545454545453" y="196.1818181818182"/>
      <point x="238.04545454545453" y="119.72727272727273" type="curve" smooth="yes"/>
      <point x="238.04545454545453" y="71.27272727272727"/>
      <point x="206.22727272727272" y="46.36363636363637"/>
      <point x="163.5909090909091" y="46.36363636363637" type="curve" smooth="yes"/>
      <point x="125.22727272727273" y="46.36363636363637"/>
      <point x="103.27272727272727" y="66.18181818181819"/>
      <point x="67.5909090909091" y="103.0" type="curve"/>
      <point x="92.0" y="32.90909090909091" type="line"/>
      <point x="102.5" y="171.13636363636363" type="line"/>
      <point x="62.59090909090909" y="181.77272727272728" type="line"/>
      <point x="13.409090909090908" y="76.5909090909091" type="line"/>
      <point x="16.5" y="40.27272727272727" type="line"/>
      <point x="50.59090909090909" y="10.227272727272727"/>
      <point x="105.27272727272728" y="-12.045454545454545"/>
    </contour>
  </outline>
</glyph>
<glyph name="t" format="2">
  <advance width="397.8636363636364"/>
  <unicode hex="0074"/>
  <anchor x="158.0909090909091" y="0.0" name="bottom"/>
  <anchor x="153.22727272727272" y="271.77272727272725" name="center"/>
  <anchor x="204.54545454545456" y="543.5" name="top"/>
  <anchor x="359.04545454545456" y="546.5454545454545" name="topright"/>
  <outline>
    <contour>
      <point x="362.27272727272725" y="128.0909090909091" type="curve"/>
      <point x="325.09090909090907" y="156.27272727272728" type="line"/>
      <point x="273.6818181818182" y="49.40909090909091"/>
      <point x="170.86363636363637" y="22.136363636363637"/>
      <point x="186.8181818181818" y="137.0909090909091" type="curve" smooth="yes"/>
      <point x="203.36363636363637" y="257.0"/>
      <point x="218.9090909090909" y="347.90909090909093"/>
      <point x="238.54545454545456" y="461.1363636363636" type="curve"/>
      <point x="179.6818181818182" y="422.72727272727275" type="line"/>
      <point x="365.40909090909093" y="422.72727272727275" type="line"/>
      <point x="381.8636363636364" y="485.1818181818182" type="line"/>
      <point x="194.5909090909091" y="485.1818181818182" type="line"/>
      <point x="238.13636363636363" y="463.8636363636364" type="line"/>
      <point x="259.3181818181818" y="598.0909090909091" type="line"/>
      <point x="207.5" y="613.1818181818181" type="line"/>
      <point x="207.5" y="613.1818181818181"/>
      <point x="163.6818181818182" y="518.0454545454545"/>
      <point x="143.3181818181818" y="504.8636363636364" type="curve" smooth="yes"/>
      <point x="119.31818181818181" y="490.6363636363636"/>
      <point x="74.5909090909091" y="478.54545454545456"/>
      <point x="42.81818181818182" y="471.5" type="curve"/>
      <point x="37.59090909090909" y="422.72727272727275" type="line"/>
      <point x="168.72727272727272" y="422.72727272727275" type="line"/>
      <point x="132.0" y="463.54545454545456" type="line"/>
      <point x="112.0909090909091" y="307.0"/>
      <point x="103.0" y="253.72727272727272"/>
      <point x="81.4090909090909" y="137.22727272727272" type="curve" smooth="yes"/>
      <point x="45.40909090909091" y="-57.27272727272727"/>
      <point x="261.1363636363636" y="-61.27272727272727"/>
    </contour>
  </outline>
</glyph>
<glyph name="v" format="2">
  <advance width="497.84999999999997"/>
  <unicode hex="0076"/>
  <anchor x="216.4090909090909" y="0.0" name="bottom"/>
  <anchor x="285.22727272727275" y="494.0" name="top"/>
  <outline>
    <contour>
      <point x="143.27272727272728" y="-12.045454545454545" type="curve" smooth="yes"/>
      <point x="308.1818181818182" y="-12.045454545454545"/>
      <point x="480.90909090909093" y="238.63636363636363"/>
      <point x="488.5909090909091" y="490.90909090909093" type="curve"/>
      <point x="460.8181818181818" y="510.04545454545456" type="line"/>
      <point x="303.04545454545456" y="465.8636363636364" type="line"/>
      <point x="306.59090909090907" y="423.90909090909093" type="line"/>
      <point x="424.3181818181818" y="417.09090909090907" type="line"/>
      <point x="377.6363636363636" y="436.59090909090907" type="line"/>
      <point x="381.6363636363636" y="406.6818181818182"/>
      <point x="384.6363636363636" y="364.8181818181818"/>
      <point x="384.6363636363636" y="354.59090909090907" type="curve" smooth="yes"/>
      <point x="384.6363636363636" y="237.77272727272728"/>
      <point x="282.6818181818182" y="75.72727272727273"/>
      <point x="208.3181818181818" y="75.72727272727273" type="curve" smooth="yes"/>
      <point x="192.54545454545456" y="75.72727272727273"/>
      <point x="184.9090909090909" y="85.31818181818181"/>
      <point x="184.9090909090909" y="104.4090909090909" type="curve" smooth="yes"/>
      <point x="184.9090909090909" y="161.72727272727272"/>
      <point x="221.36363636363637" y="340.0"/>
      <point x="221.36363636363637" y="377.6363636363636" type="curve" smooth="yes"/>
      <point x="221.36363636363637" y="490.90909090909093" type="line"/>
      <point x="192.1818181818182" y="510.04545454545456" type="line"/>
      <point x="40.40909090909091" y="465.8636363636364" type="line"/>
      <point x="43.36363636363637" y="423.90909090909093" type="line"/>
      <point x="163.5" y="417.09090909090907" type="line"/>
      <point x="118.0" y="434.8181818181818" type="line"/>
      <point x="120.0" y="412.5"/>
      <point x="121.4090909090909" y="358.27272727272725"/>
      <point x="121.4090909090909" y="346.1363636363636" type="curve" smooth="yes"/>
      <point x="121.4090909090909" y="278.72727272727275"/>
      <point x="75.22727272727272" y="109.81818181818181"/>
      <point x="75.22727272727272" y="56.0" type="curve" smooth="yes"/>
      <point x="75.22727272727272" y="11.545454545454545"/>
      <point x="98.68181818181819" y="-12.045454545454545"/>
    </contour>
  </outline>
</glyph>
<glyph name="w" format="2">
  <advance width="774.35"/>
  <unicode hex="0077"/>
  <anchor x="356.72727272727275" y="0.0" name="bottom"/>
  <anchor x="416.72727272727275" y="494.0" name="top"/>
  <outline>
    <contour>
      <point x="143.0" y="-12.045454545454545" type="curve" smooth="yes"/>
      <point x="221.6818181818182" y="-12.045454545454545"/>
      <point x="312.8181818181818" y="48.27272727272727"/>
      <point x="380.90909090909093" y="157.04545454545453" type="curve"/>
      <point x="365.1363636363636" y="170.04545454545453" type="line"/>
      <point x="359.22727272727275" y="117.36363636363636"/>
      <point x="353.09090909090907" y="79.5909090909091"/>
      <point x="353.09090909090907" y="59.13636363636363" type="curve" smooth="yes"/>
      <point x="353.09090909090907" y="20.5"/>
      <point x="371.5" y="-12.045454545454545"/>
      <point x="412.27272727272725" y="-12.045454545454545" type="curve" smooth="yes"/>
      <point x="568.1818181818182" y="-12.045454545454545"/>
      <point x="757.5909090909091" y="214.0"/>
      <point x="763.3181818181819" y="490.90909090909093" type="curve"/>
      <point x="733.7727272727273" y="510.04545454545456" type="line"/>
      <point x="576.8636363636364" y="465.8636363636364" type="line"/>
      <point x="580.5909090909091" y="423.90909090909093" type="line"/>
      <point x="697.2727272727273" y="417.09090909090907" type="line"/>
      <point x="647.5909090909091" y="458.27272727272725" type="line"/>
      <point x="652.7727272727273" y="414.77272727272725"/>
      <point x="657.3636363636364" y="369.40909090909093"/>
      <point x="657.3636363636364" y="354.59090909090907" type="curve" smooth="yes"/>
      <point x="657.3636363636364" y="219.86363636363637"/>
      <point x="543.0454545454545" y="75.72727272727273"/>
      <point x="474.5" y="75.72727272727273" type="curve" smooth="yes"/>
      <point x="459.5909090909091" y="75.72727272727273"/>
      <point x="450.90909090909093" y="85.68181818181819"/>
      <point x="450.90909090909093" y="103.81818181818181" type="curve" smooth="yes"/>
      <point x="450.90909090909093" y="161.13636363636363"/>
      <point x="484.54545454545456" y="339.59090909090907"/>
      <point x="484.54545454545456" y="377.6363636363636" type="curve"/>
      <point x="479.72727272727275" y="493.40909090909093" type="line"/>
      <point x="452.8181818181818" y="509.04545454545456" type="line"/>
      <point x="369.77272727272725" y="491.04545454545456" type="line"/>
      <point x="373.3181818181818" y="456.54545454545456"/>
      <point x="384.3636363636364" y="364.40909090909093"/>
      <point x="384.3636363636364" y="354.59090909090907" type="curve" smooth="yes"/>
      <point x="384.3636363636364" y="219.4090909090909"/>
      <point x="278.3181818181818" y="75.72727272727273"/>
      <point x="207.27272727272728" y="75.72727272727273" type="curve" smooth="yes"/>
      <point x="193.13636363636363" y="75.72727272727273"/>
      <point x="183.6818181818182" y="86.86363636363636"/>
      <point x="183.6818181818182" y="104.4090909090909" type="curve" smooth="yes"/>
      <point x="183.6818181818182" y="161.72727272727272"/>
      <point x="220.27272727272728" y="339.1818181818182"/>
      <point x="221.9090909090909" y="377.6363636363636" type="curve" smooth="yes"/>
      <point x="222.3181818181818" y="490.90909090909093" type="line"/>
      <point x="191.77272727272728" y="510.04545454545456" type="line"/>
      <point x="40.63636363636363" y="465.8636363636364" type="line"/>
      <point x="43.77272727272727" y="423.90909090909093" type="line"/>
      <point x="162.86363636363637" y="417.09090909090907" type="line"/>
      <point x="116.36363636363636" y="447.72727272727275" type="line"/>
      <point x="119.36363636363636" y="422.8636363636364"/>
      <point x="120.36363636363636" y="372.6818181818182"/>
      <point x="120.36363636363636" y="347.77272727272725" type="curve" smooth="yes"/>
      <point x="120.36363636363636" y="275.90909090909093"/>
      <point x="75.36363636363636" y="111.22727272727273"/>
      <point x="75.36363636363636" y="56.77272727272727" type="curve" smooth="yes"/>
      <point x="75.36363636363636" y="18.136363636363637"/>
      <point x="94.18181818181819" y="-12.045454545454545"/>
    </contour>
  </outline>
</glyph>
